<svg xmlns="http://www.w3.org/2000/svg" width="1240" height="374" viewBox="0 0 1240 374">
  <g id="Grupo_90752" data-name="Grupo 90752" transform="translate(8301 8043)">
    <rect id="Rectángulo_3043" data-name="Rectángulo 3043" width="311.532" height="93.97" transform="translate(-7823.592 -8043)" fill="#17c878"/>
    <path id="Trazado_155353" data-name="Trazado 155353" d="M35.69,18.552a8.311,8.311,0,0,1-3.6.668,6.074,6.074,0,0,1-4.562-1.705,6.233,6.233,0,0,1-1.661-4.544,6.659,6.659,0,0,1,1.868-4.9,6.533,6.533,0,0,1,4.847-1.881,9.065,9.065,0,0,1,3.111.466V9.385a5.513,5.513,0,0,0-2.883-.756,3.824,3.824,0,0,0-2.865,1.116,4.142,4.142,0,0,0-1.09,3.023,4.062,4.062,0,0,0,1.028,2.914,3.633,3.633,0,0,0,2.769,1.085,5.905,5.905,0,0,0,3.041-.809Zm6.214.668a4.838,4.838,0,0,1-3.538-1.261,4.573,4.573,0,0,1-1.288-3.423,4.573,4.573,0,0,1,1.336-3.494A5.048,5.048,0,0,1,42.027,9.78a4.78,4.78,0,0,1,3.516,1.261,4.483,4.483,0,0,1,1.274,3.335A4.759,4.759,0,0,1,45.5,17.919,4.892,4.892,0,0,1,41.9,19.22Zm.07-7.312a1.852,1.852,0,0,0-1.529.677A2.984,2.984,0,0,0,39.9,14.5q0,2.593,2.092,2.593,2,0,2-2.663Q43.987,11.907,41.974,11.907Zm6.056,6.855v-2.25a5.913,5.913,0,0,0,1.367.615,4.531,4.531,0,0,0,1.288.2,2.762,2.762,0,0,0,1.165-.2.653.653,0,0,0,.426-.615.569.569,0,0,0-.193-.439,1.8,1.8,0,0,0-.5-.308,5.635,5.635,0,0,0-.664-.237q-.36-.105-.694-.237a6.653,6.653,0,0,1-.945-.435,2.731,2.731,0,0,1-.686-.541,2.125,2.125,0,0,1-.422-.712,2.841,2.841,0,0,1-.145-.958,2.466,2.466,0,0,1,.33-1.3,2.692,2.692,0,0,1,.879-.892,4.016,4.016,0,0,1,1.257-.51,6.553,6.553,0,0,1,1.472-.163,8.168,8.168,0,0,1,1.213.092,9.053,9.053,0,0,1,1.213.268v2.145a4.383,4.383,0,0,0-1.129-.461,4.764,4.764,0,0,0-1.182-.154,2.619,2.619,0,0,0-.514.048,1.693,1.693,0,0,0-.426.141.783.783,0,0,0-.29.237.546.546,0,0,0-.105.33.609.609,0,0,0,.158.422,1.374,1.374,0,0,0,.413.3,4.078,4.078,0,0,0,.567.229q.312.1.62.207a8.056,8.056,0,0,1,1,.422,3.2,3.2,0,0,1,.769.536,2.105,2.105,0,0,1,.492.721,2.884,2.884,0,0,1-.176,2.351,2.78,2.78,0,0,1-.923.923,4.185,4.185,0,0,1-1.327.519,7.357,7.357,0,0,1-1.56.163A8.042,8.042,0,0,1,48.03,18.763Zm13.948.132a4.105,4.105,0,0,1-1.854.325q-2.936,0-2.936-3.05V12.048H55.729V10h1.459V8.058l2.769-.791V10h2.021v2.048H59.956v3.639q0,1.406,1.116,1.406a1.882,1.882,0,0,0,.905-.255Zm5.783.325a4.838,4.838,0,0,1-3.538-1.261,4.573,4.573,0,0,1-1.288-3.423,4.573,4.573,0,0,1,1.336-3.494A5.048,5.048,0,0,1,67.884,9.78,4.78,4.78,0,0,1,71.4,11.042a4.483,4.483,0,0,1,1.274,3.335,4.759,4.759,0,0,1-1.314,3.542A4.892,4.892,0,0,1,67.761,19.22Zm.07-7.312a1.852,1.852,0,0,0-1.529.677,2.984,2.984,0,0,0-.545,1.916q0,2.593,2.092,2.593,2,0,2-2.663Q69.844,11.907,67.831,11.907ZM88.248,19H85.471V17.761h-.035A3.114,3.114,0,0,1,82.65,19.22a3.412,3.412,0,0,1-2.716-1.191A4.93,4.93,0,0,1,78.906,14.7a5.366,5.366,0,0,1,1.134-3.577A3.7,3.7,0,0,1,83.01,9.78a2.527,2.527,0,0,1,2.426,1.248h.035V5.676h2.777Zm-2.725-4.377v-.677a2.13,2.13,0,0,0-.51-1.459,1.8,1.8,0,0,0-2.769.145,3.367,3.367,0,0,0-.519,1.991,2.914,2.914,0,0,0,.5,1.828,1.779,1.779,0,0,0,2.764-.035A2.821,2.821,0,0,0,85.524,14.623Zm13.148.668H92.8q.141,1.96,2.47,1.96a4.822,4.822,0,0,0,2.61-.7v2a6.858,6.858,0,0,1-3.243.668,4.565,4.565,0,0,1-3.384-1.208,4.566,4.566,0,0,1-1.2-3.371,4.816,4.816,0,0,1,1.3-3.551,4.334,4.334,0,0,1,3.2-1.31A3.933,3.933,0,0,1,97.6,10.949a4.5,4.5,0,0,1,1.077,3.173ZM96.1,13.586q0-1.934-1.564-1.934a1.494,1.494,0,0,0-1.156.554,2.513,2.513,0,0,0-.593,1.38ZM108.068,19H105.29V5.676h2.777Zm9.826,0h-2.628V17.708h-.035a2.933,2.933,0,0,1-2.681,1.512,2.8,2.8,0,0,1-2.061-.743,2.661,2.661,0,0,1-.751-1.982q0-2.619,3.1-3.023l2.443-.325q0-1.477-1.6-1.477a5.46,5.46,0,0,0-3.059.958V10.536a6.881,6.881,0,0,1,1.586-.527,8.339,8.339,0,0,1,1.833-.229q3.85,0,3.85,3.841Zm-2.61-3.656v-.606l-1.635.211q-1.354.176-1.354,1.222a1.01,1.01,0,0,0,.33.778,1.266,1.266,0,0,0,.892.3,1.644,1.644,0,0,0,1.274-.541A1.952,1.952,0,0,0,115.284,15.344ZM139.348,19h-2.769V13.867q0-1.96-1.441-1.96a1.324,1.324,0,0,0-1.116.589,2.42,2.42,0,0,0-.431,1.468V19h-2.777V13.814q0-1.907-1.415-1.907a1.356,1.356,0,0,0-1.138.563A2.475,2.475,0,0,0,127.834,14v5h-2.777V10h2.777v1.406h.035a3.41,3.41,0,0,1,2.909-1.626,2.592,2.592,0,0,1,2.61,1.679,3.329,3.329,0,0,1,3.023-1.679q2.936,0,2.936,3.621Zm9.686,0h-2.628V17.708h-.035a2.933,2.933,0,0,1-2.681,1.512,2.8,2.8,0,0,1-2.061-.743,2.661,2.661,0,0,1-.751-1.982q0-2.619,3.1-3.023l2.443-.325q0-1.477-1.6-1.477a5.46,5.46,0,0,0-3.059.958V10.536a6.881,6.881,0,0,1,1.586-.527,8.339,8.339,0,0,1,1.833-.229q3.85,0,3.85,3.841Zm-2.61-3.656v-.606l-1.635.211q-1.354.176-1.354,1.222a1.01,1.01,0,0,0,.33.778,1.266,1.266,0,0,0,.892.3,1.644,1.644,0,0,0,1.274-.541A1.952,1.952,0,0,0,146.423,15.344Zm10.248,3.551a4.105,4.105,0,0,1-1.854.325q-2.936,0-2.936-3.05V12.048h-1.459V10h1.459V8.058l2.769-.791V10h2.021v2.048H154.65v3.639q0,1.406,1.116,1.406a1.882,1.882,0,0,0,.905-.255Zm9.58-3.6H160.38q.141,1.96,2.47,1.96a4.822,4.822,0,0,0,2.61-.7v2a6.858,6.858,0,0,1-3.243.668,4.565,4.565,0,0,1-3.384-1.208,4.566,4.566,0,0,1-1.2-3.371,4.816,4.816,0,0,1,1.3-3.551,4.334,4.334,0,0,1,3.2-1.31,3.933,3.933,0,0,1,3.045,1.169,4.5,4.5,0,0,1,1.077,3.173Zm-2.575-1.705q0-1.934-1.564-1.934a1.494,1.494,0,0,0-1.156.554,2.513,2.513,0,0,0-.593,1.38Zm10.1-1.081a2.409,2.409,0,0,0-1.169-.272,1.684,1.684,0,0,0-1.415.664,2.9,2.9,0,0,0-.51,1.806V19H167.9V10h2.777v1.67h.035a2.4,2.4,0,0,1,2.373-1.828,1.788,1.788,0,0,1,.686.105Zm2.769-3.929a1.622,1.622,0,0,1-1.151-.417,1.345,1.345,0,0,1-.448-1.024,1.3,1.3,0,0,1,.448-1.02,1.88,1.88,0,0,1,2.307,0,1.3,1.3,0,0,1,.444,1.02,1.34,1.34,0,0,1-.444,1.037A1.65,1.65,0,0,1,176.543,8.576ZM177.914,19h-2.777V10h2.777Zm9.826,0h-2.628V17.708h-.035A2.933,2.933,0,0,1,182.4,19.22a2.8,2.8,0,0,1-2.061-.743,2.661,2.661,0,0,1-.751-1.982q0-2.619,3.1-3.023l2.443-.325q0-1.477-1.6-1.477a5.46,5.46,0,0,0-3.059.958V10.536a6.881,6.881,0,0,1,1.586-.527,8.339,8.339,0,0,1,1.833-.229q3.85,0,3.85,3.841Zm-2.61-3.656v-.606l-1.635.211q-1.354.176-1.354,1.222a1.01,1.01,0,0,0,.33.778,1.266,1.266,0,0,0,.892.3,1.644,1.644,0,0,0,1.274-.541A1.952,1.952,0,0,0,185.13,15.344Zm12.586,2.61h-.035V23.14H194.9V10h2.777v1.354h.035a3.534,3.534,0,0,1,5.594-.374,5.108,5.108,0,0,1,.954,3.265,5.537,5.537,0,0,1-1.112,3.612,3.625,3.625,0,0,1-2.958,1.362A2.8,2.8,0,0,1,197.716,17.954Zm-.079-3.691v.721a2.291,2.291,0,0,0,.492,1.521,1.6,1.6,0,0,0,1.292.589,1.7,1.7,0,0,0,1.472-.734,3.543,3.543,0,0,0,.523-2.079q0-2.373-1.846-2.373a1.733,1.733,0,0,0-1.393.646A2.576,2.576,0,0,0,197.637,14.263Zm14.3-1.758a2.409,2.409,0,0,0-1.169-.272,1.684,1.684,0,0,0-1.415.664,2.9,2.9,0,0,0-.51,1.806V19h-2.777V10h2.777v1.67h.035a2.4,2.4,0,0,1,2.373-1.828,1.788,1.788,0,0,1,.686.105Zm2.769-3.929a1.622,1.622,0,0,1-1.151-.417,1.345,1.345,0,0,1-.448-1.024,1.3,1.3,0,0,1,.448-1.02,1.88,1.88,0,0,1,2.307,0,1.3,1.3,0,0,1,.444,1.02,1.34,1.34,0,0,1-.444,1.037A1.65,1.65,0,0,1,214.705,8.576ZM216.077,19H213.3V10h2.777Zm16.629,0h-2.769V13.867q0-1.96-1.441-1.96a1.324,1.324,0,0,0-1.116.589,2.42,2.42,0,0,0-.431,1.468V19h-2.777V13.814q0-1.907-1.415-1.907a1.356,1.356,0,0,0-1.138.563A2.475,2.475,0,0,0,221.192,14v5h-2.777V10h2.777v1.406h.035a3.41,3.41,0,0,1,2.909-1.626,2.592,2.592,0,0,1,2.61,1.679A3.329,3.329,0,0,1,229.77,9.78q2.936,0,2.936,3.621Zm9.686,0h-2.628V17.708h-.035a2.933,2.933,0,0,1-2.681,1.512,2.8,2.8,0,0,1-2.061-.743,2.661,2.661,0,0,1-.751-1.982q0-2.619,3.1-3.023l2.443-.325q0-1.477-1.6-1.477a5.46,5.46,0,0,0-3.059.958V10.536a6.881,6.881,0,0,1,1.586-.527,8.339,8.339,0,0,1,1.833-.229q3.85,0,3.85,3.841Zm-2.61-3.656v-.606l-1.635.211q-1.354.176-1.354,1.222a1.01,1.01,0,0,0,.33.778,1.266,1.266,0,0,0,.892.3,1.644,1.644,0,0,0,1.274-.541A1.952,1.952,0,0,0,239.781,15.344Z" transform="translate(-7802.143 -8005.208)" fill="#fff"/>
    <line id="Línea_169" data-name="Línea 169" x2="25.535" transform="translate(-7670.891 -7949.03) rotate(90)" fill="none" stroke="#29c77b" stroke-width="3"/>
    <rect id="Rectángulo_3055" data-name="Rectángulo 3055" width="271.697" height="65.371" transform="translate(-7655.059 -7897.959)" fill="#eef0f2"/>
    <line id="Línea_142" data-name="Línea 142" x1="968.303" transform="translate(-8164.641 -7922.983)" fill="none" stroke="#29c77b" stroke-width="3"/>
    <line id="Línea_143" data-name="Línea 143" x2="25.535" transform="translate(-7513.082 -7923.494) rotate(90)" fill="none" stroke="#29c77b" stroke-width="3"/>
    <line id="Línea_151" data-name="Línea 151" x2="25.535" transform="translate(-7841.978 -7923.494) rotate(90)" fill="none" stroke="#29c77b" stroke-width="3"/>
    <path id="Trazado_155354" data-name="Trazado 155354" d="M83.962,19H80.868l-.9-2.8H75.49L74.6,19H71.526L76.114,6.4H79.48Zm-4.641-4.983L77.968,9.78a5.521,5.521,0,0,1-.211-1.134h-.07a4.807,4.807,0,0,1-.22,1.1L76.1,14.017ZM94.07,19H91.292V17.761h-.035a3.114,3.114,0,0,1-2.786,1.459,3.412,3.412,0,0,1-2.716-1.191A4.93,4.93,0,0,1,84.727,14.7a5.366,5.366,0,0,1,1.134-3.577A3.7,3.7,0,0,1,88.831,9.78a2.527,2.527,0,0,1,2.426,1.248h.035V5.676H94.07Zm-2.725-4.377v-.677a2.13,2.13,0,0,0-.51-1.459,1.8,1.8,0,0,0-2.769.145,3.367,3.367,0,0,0-.519,1.991,2.914,2.914,0,0,0,.5,1.828,1.779,1.779,0,0,0,2.764-.035A2.821,2.821,0,0,0,91.345,14.623ZM110.7,19H107.93V13.867q0-1.96-1.441-1.96a1.324,1.324,0,0,0-1.116.589,2.42,2.42,0,0,0-.431,1.468V19h-2.777V13.814q0-1.907-1.415-1.907a1.356,1.356,0,0,0-1.138.563A2.475,2.475,0,0,0,99.185,14v5H96.408V10h2.777v1.406h.035a3.41,3.41,0,0,1,2.909-1.626,2.592,2.592,0,0,1,2.61,1.679,3.329,3.329,0,0,1,3.023-1.679q2.936,0,2.936,3.621Zm3.6-10.424a1.622,1.622,0,0,1-1.151-.417,1.345,1.345,0,0,1-.448-1.024,1.3,1.3,0,0,1,.448-1.02,1.88,1.88,0,0,1,2.307,0,1.3,1.3,0,0,1,.444,1.02,1.34,1.34,0,0,1-.444,1.037A1.65,1.65,0,0,1,114.3,8.576ZM115.673,19H112.9V10h2.777Zm11.03,0h-2.769V14q0-2.092-1.494-2.092a1.483,1.483,0,0,0-1.187.554,2.109,2.109,0,0,0-.466,1.406V19h-2.777V10h2.777v1.424h.035a3.183,3.183,0,0,1,2.892-1.644q2.988,0,2.988,3.709Zm3.6-10.424a1.622,1.622,0,0,1-1.151-.417,1.345,1.345,0,0,1-.448-1.024,1.3,1.3,0,0,1,.448-1.02,1.88,1.88,0,0,1,2.307,0,1.3,1.3,0,0,1,.444,1.02,1.34,1.34,0,0,1-.444,1.037A1.65,1.65,0,0,1,130.307,8.576ZM131.678,19H128.9V10h2.777Zm1.749-.237v-2.25a5.913,5.913,0,0,0,1.367.615,4.531,4.531,0,0,0,1.288.2,2.762,2.762,0,0,0,1.165-.2.653.653,0,0,0,.426-.615.569.569,0,0,0-.193-.439,1.8,1.8,0,0,0-.5-.308,5.635,5.635,0,0,0-.664-.237q-.36-.105-.694-.237a6.653,6.653,0,0,1-.945-.435,2.731,2.731,0,0,1-.686-.541,2.125,2.125,0,0,1-.422-.712,2.841,2.841,0,0,1-.145-.958,2.466,2.466,0,0,1,.33-1.3,2.692,2.692,0,0,1,.879-.892,4.016,4.016,0,0,1,1.257-.51,6.553,6.553,0,0,1,1.472-.163,8.168,8.168,0,0,1,1.213.092,9.053,9.053,0,0,1,1.213.268v2.145a4.383,4.383,0,0,0-1.129-.461,4.764,4.764,0,0,0-1.182-.154,2.619,2.619,0,0,0-.514.048,1.693,1.693,0,0,0-.426.141.783.783,0,0,0-.29.237.546.546,0,0,0-.105.33.609.609,0,0,0,.158.422,1.374,1.374,0,0,0,.413.3,4.078,4.078,0,0,0,.567.229q.312.1.62.207a8.056,8.056,0,0,1,1,.422,3.2,3.2,0,0,1,.769.536,2.105,2.105,0,0,1,.492.721,2.884,2.884,0,0,1-.176,2.351,2.78,2.78,0,0,1-.923.923,4.185,4.185,0,0,1-1.327.519,7.357,7.357,0,0,1-1.56.163A8.042,8.042,0,0,1,133.427,18.763Zm13.948.132a4.105,4.105,0,0,1-1.854.325q-2.936,0-2.936-3.05V12.048h-1.459V10h1.459V8.058l2.769-.791V10h2.021v2.048h-2.021v3.639q0,1.406,1.116,1.406a1.882,1.882,0,0,0,.905-.255Zm7.436-6.39a2.409,2.409,0,0,0-1.169-.272,1.684,1.684,0,0,0-1.415.664,2.9,2.9,0,0,0-.51,1.806V19H148.94V10h2.777v1.67h.035a2.4,2.4,0,0,1,2.373-1.828,1.788,1.788,0,0,1,.686.105Zm8.78,6.5h-2.628V17.708h-.035a2.933,2.933,0,0,1-2.681,1.512,2.8,2.8,0,0,1-2.061-.743,2.661,2.661,0,0,1-.751-1.982q0-2.619,3.1-3.023l2.443-.325q0-1.477-1.6-1.477a5.46,5.46,0,0,0-3.059.958V10.536a6.881,6.881,0,0,1,1.586-.527,8.339,8.339,0,0,1,1.833-.229q3.85,0,3.85,3.841Zm-2.61-3.656v-.606l-1.635.211q-1.354.176-1.354,1.222a1.01,1.01,0,0,0,.33.778,1.266,1.266,0,0,0,.892.3,1.644,1.644,0,0,0,1.274-.541A1.952,1.952,0,0,0,160.981,15.344Zm11.628,3.331a5.492,5.492,0,0,1-2.716.545,4.593,4.593,0,0,1-3.357-1.257,4.341,4.341,0,0,1-1.283-3.243,4.782,4.782,0,0,1,1.375-3.617,5.083,5.083,0,0,1,3.678-1.323,4.72,4.72,0,0,1,2.3.422v2.355a3.166,3.166,0,0,0-1.942-.65,2.559,2.559,0,0,0-1.894.7,2.607,2.607,0,0,0-.7,1.929,2.565,2.565,0,0,0,.668,1.876,2.455,2.455,0,0,0,1.837.681,3.666,3.666,0,0,0,2.03-.65Zm3.226-10.1a1.622,1.622,0,0,1-1.151-.417,1.345,1.345,0,0,1-.448-1.024,1.3,1.3,0,0,1,.448-1.02,1.88,1.88,0,0,1,2.307,0,1.3,1.3,0,0,1,.444,1.02,1.34,1.34,0,0,1-.444,1.037A1.65,1.65,0,0,1,175.834,8.576ZM177.205,19h-2.777V10h2.777Zm6.627.22a4.838,4.838,0,0,1-3.538-1.261,4.573,4.573,0,0,1-1.288-3.423,4.573,4.573,0,0,1,1.336-3.494,5.048,5.048,0,0,1,3.612-1.261,4.78,4.78,0,0,1,3.516,1.261,4.483,4.483,0,0,1,1.274,3.335,4.759,4.759,0,0,1-1.314,3.542A4.892,4.892,0,0,1,183.832,19.22Zm.07-7.312a1.852,1.852,0,0,0-1.529.677,2.984,2.984,0,0,0-.545,1.916q0,2.593,2.092,2.593,2,0,2-2.663Q185.915,11.907,183.9,11.907Zm2.979-6.17-2.751,2.839h-2l2.285-2.839ZM199.231,19h-2.769V14q0-2.092-1.494-2.092a1.483,1.483,0,0,0-1.187.554,2.109,2.109,0,0,0-.466,1.406V19h-2.777V10h2.777v1.424h.035a3.183,3.183,0,0,1,2.892-1.644q2.988,0,2.988,3.709Z" transform="translate(-7655.059 -7874.466)" fill="#00223d"/>
    <rect id="Rectángulo_3055-2" data-name="Rectángulo 3055" width="271.697" height="65.371" transform="translate(-7977.826 -7897.959)" fill="#eef0f2"/>
    <path id="Trazado_155361" data-name="Trazado 155361" d="M86.326,19h-2.8V11.459q0-1.222.105-2.7h-.07a13.277,13.277,0,0,1-.4,1.67L80.209,19h-2.32l-3.006-8.481a16.5,16.5,0,0,1-.4-1.758h-.079q.114,1.863.114,3.27V19H71.965V6.4h4.157L78.7,13.867a10.519,10.519,0,0,1,.448,1.8H79.2a18.143,18.143,0,0,1,.5-1.819L82.275,6.4h4.052Zm10.081,0H93.78V17.708h-.035a2.933,2.933,0,0,1-2.681,1.512A2.8,2.8,0,0,1,89,18.477a2.661,2.661,0,0,1-.751-1.982q0-2.619,3.1-3.023l2.443-.325q0-1.477-1.6-1.477a5.46,5.46,0,0,0-3.059.958V10.536a6.881,6.881,0,0,1,1.586-.527,8.339,8.339,0,0,1,1.833-.229q3.85,0,3.85,3.841ZM93.8,15.344v-.606l-1.635.211q-1.354.176-1.354,1.222a1.01,1.01,0,0,0,.33.778,1.266,1.266,0,0,0,.892.3A1.644,1.644,0,0,0,93.3,16.71,1.952,1.952,0,0,0,93.8,15.344ZM107.3,19h-2.769V14q0-2.092-1.494-2.092a1.483,1.483,0,0,0-1.187.554,2.109,2.109,0,0,0-.466,1.406V19H98.6V10h2.777v1.424h.035a3.183,3.183,0,0,1,2.892-1.644q2.988,0,2.988,3.709Zm7.638-.105a4.105,4.105,0,0,1-1.854.325q-2.936,0-2.936-3.05V12.048h-1.459V10h1.459V8.058l2.769-.791V10h2.021v2.048h-2.021v3.639q0,1.406,1.116,1.406a1.882,1.882,0,0,0,.905-.255Zm9.58-3.6h-5.871q.141,1.96,2.47,1.96a4.822,4.822,0,0,0,2.61-.7v2a6.858,6.858,0,0,1-3.243.668,4.565,4.565,0,0,1-3.384-1.208,4.566,4.566,0,0,1-1.2-3.371,4.816,4.816,0,0,1,1.3-3.551,4.334,4.334,0,0,1,3.2-1.31,3.933,3.933,0,0,1,3.045,1.169,4.5,4.5,0,0,1,1.077,3.173Zm-2.575-1.705q0-1.934-1.564-1.934a1.494,1.494,0,0,0-1.156.554,2.513,2.513,0,0,0-.593,1.38ZM134.86,19h-2.769V14q0-2.092-1.494-2.092a1.483,1.483,0,0,0-1.187.554,2.109,2.109,0,0,0-.466,1.406V19h-2.777V10h2.777v1.424h.035a3.183,3.183,0,0,1,2.892-1.644q2.988,0,2.988,3.709Zm3.6-10.424a1.622,1.622,0,0,1-1.151-.417,1.345,1.345,0,0,1-.448-1.024,1.3,1.3,0,0,1,.448-1.02,1.88,1.88,0,0,1,2.307,0,1.3,1.3,0,0,1,.444,1.02,1.34,1.34,0,0,1-.444,1.037A1.65,1.65,0,0,1,138.463,8.576ZM139.834,19h-2.777V10h2.777Zm16.629,0h-2.769V13.867q0-1.96-1.441-1.96a1.324,1.324,0,0,0-1.116.589,2.42,2.42,0,0,0-.431,1.468V19h-2.777V13.814q0-1.907-1.415-1.907a1.356,1.356,0,0,0-1.138.563A2.475,2.475,0,0,0,144.95,14v5h-2.777V10h2.777v1.406h.035a3.41,3.41,0,0,1,2.909-1.626,2.592,2.592,0,0,1,2.61,1.679,3.329,3.329,0,0,1,3.023-1.679q2.936,0,2.936,3.621Zm3.6-10.424a1.622,1.622,0,0,1-1.151-.417,1.345,1.345,0,0,1-.448-1.024,1.3,1.3,0,0,1,.448-1.02,1.88,1.88,0,0,1,2.307,0,1.3,1.3,0,0,1,.444,1.02,1.34,1.34,0,0,1-.444,1.037A1.65,1.65,0,0,1,160.067,8.576ZM161.438,19H158.66V10h2.777Zm10.424-3.709h-5.871q.141,1.96,2.47,1.96a4.822,4.822,0,0,0,2.61-.7v2a6.858,6.858,0,0,1-3.243.668,4.565,4.565,0,0,1-3.384-1.208,4.566,4.566,0,0,1-1.2-3.371,4.816,4.816,0,0,1,1.3-3.551,4.334,4.334,0,0,1,3.2-1.31,3.933,3.933,0,0,1,3.045,1.169,4.5,4.5,0,0,1,1.077,3.173Zm-2.575-1.705q0-1.934-1.564-1.934a1.494,1.494,0,0,0-1.156.554,2.513,2.513,0,0,0-.593,1.38ZM182.206,19h-2.769V14q0-2.092-1.494-2.092a1.483,1.483,0,0,0-1.187.554,2.109,2.109,0,0,0-.466,1.406V19h-2.777V10h2.777v1.424h.035a3.183,3.183,0,0,1,2.892-1.644q2.988,0,2.988,3.709Zm7.638-.105a4.105,4.105,0,0,1-1.854.325q-2.936,0-2.936-3.05V12.048H183.6V10h1.459V8.058l2.769-.791V10h2.021v2.048h-2.021v3.639q0,1.406,1.116,1.406a1.882,1.882,0,0,0,.905-.255Zm5.783.325a4.838,4.838,0,0,1-3.538-1.261,4.573,4.573,0,0,1-1.288-3.423,4.573,4.573,0,0,1,1.336-3.494A5.048,5.048,0,0,1,195.75,9.78a4.78,4.78,0,0,1,3.516,1.261,4.483,4.483,0,0,1,1.274,3.335,4.759,4.759,0,0,1-1.314,3.542A4.892,4.892,0,0,1,195.627,19.22Zm.07-7.312a1.852,1.852,0,0,0-1.529.677,2.984,2.984,0,0,0-.545,1.916q0,2.593,2.092,2.593,2,0,2-2.663Q197.71,11.907,195.7,11.907Z" transform="translate(-7977.826 -7874.466)" fill="#00223d"/>
    <rect id="Rectángulo_35449" data-name="Rectángulo 35449" width="272" height="65" transform="translate(-7333 -7898)" fill="#eef0f2"/>
    <path id="Trazado_155355" data-name="Trazado 155355" d="M106.829,8.708h-4.447V11.8h4.087v2.3h-4.087V19H99.543V6.4h7.286ZM115.583,19h-2.628V17.708h-.035a2.933,2.933,0,0,1-2.681,1.512,2.8,2.8,0,0,1-2.061-.743,2.661,2.661,0,0,1-.751-1.982q0-2.619,3.1-3.023l2.443-.325q0-1.477-1.6-1.477a5.46,5.46,0,0,0-3.059.958V10.536a6.881,6.881,0,0,1,1.586-.527,8.339,8.339,0,0,1,1.833-.229q3.85,0,3.85,3.841Zm-2.61-3.656v-.606l-1.635.211q-1.354.176-1.354,1.222a1.01,1.01,0,0,0,.33.778,1.266,1.266,0,0,0,.892.3,1.644,1.644,0,0,0,1.274-.541A1.952,1.952,0,0,0,112.973,15.344ZM120.558,19H117.78V5.676h2.777Zm7.778-.105a4.105,4.105,0,0,1-1.854.325q-2.936,0-2.936-3.05V12.048h-1.459V10h1.459V8.058l2.769-.791V10h2.021v2.048h-2.021v3.639q0,1.406,1.116,1.406a1.882,1.882,0,0,0,.905-.255Zm9.053.105h-2.628V17.708h-.035a2.933,2.933,0,0,1-2.681,1.512,2.8,2.8,0,0,1-2.061-.743,2.661,2.661,0,0,1-.751-1.982q0-2.619,3.1-3.023l2.443-.325q0-1.477-1.6-1.477a5.46,5.46,0,0,0-3.059.958V10.536a6.881,6.881,0,0,1,1.586-.527,8.339,8.339,0,0,1,1.833-.229q3.85,0,3.85,3.841Zm-2.61-3.656v-.606l-1.635.211q-1.354.176-1.354,1.222a1.01,1.01,0,0,0,.33.778,1.266,1.266,0,0,0,.892.3,1.644,1.644,0,0,0,1.274-.541A1.952,1.952,0,0,0,134.778,15.344ZM148.278,19H145.51V14q0-2.092-1.494-2.092a1.483,1.483,0,0,0-1.187.554,2.109,2.109,0,0,0-.466,1.406V19h-2.777V10h2.777v1.424h.035A3.183,3.183,0,0,1,145.29,9.78q2.988,0,2.988,3.709Zm7.638-.105a4.105,4.105,0,0,1-1.854.325q-2.936,0-2.936-3.05V12.048h-1.459V10h1.459V8.058l2.769-.791V10h2.021v2.048h-2.021v3.639q0,1.406,1.116,1.406a1.882,1.882,0,0,0,.905-.255Zm9.58-3.6h-5.871q.141,1.96,2.47,1.96a4.822,4.822,0,0,0,2.61-.7v2a6.858,6.858,0,0,1-3.243.668,4.565,4.565,0,0,1-3.384-1.208,4.566,4.566,0,0,1-1.2-3.371,4.816,4.816,0,0,1,1.3-3.551,4.334,4.334,0,0,1,3.2-1.31,3.933,3.933,0,0,1,3.045,1.169,4.5,4.5,0,0,1,1.077,3.173Zm-2.575-1.705q0-1.934-1.564-1.934a1.494,1.494,0,0,0-1.156.554,2.513,2.513,0,0,0-.593,1.38Zm3.639,5.177v-2.25a5.913,5.913,0,0,0,1.367.615,4.531,4.531,0,0,0,1.288.2,2.762,2.762,0,0,0,1.165-.2.653.653,0,0,0,.426-.615.569.569,0,0,0-.193-.439,1.8,1.8,0,0,0-.5-.308,5.635,5.635,0,0,0-.664-.237q-.36-.105-.694-.237a6.653,6.653,0,0,1-.945-.435,2.731,2.731,0,0,1-.686-.541,2.125,2.125,0,0,1-.422-.712,2.841,2.841,0,0,1-.145-.958,2.466,2.466,0,0,1,.33-1.3,2.692,2.692,0,0,1,.879-.892,4.016,4.016,0,0,1,1.257-.51A6.553,6.553,0,0,1,170.5,9.78a8.168,8.168,0,0,1,1.213.092,9.053,9.053,0,0,1,1.213.268v2.145a4.383,4.383,0,0,0-1.129-.461,4.764,4.764,0,0,0-1.182-.154,2.619,2.619,0,0,0-.514.048,1.693,1.693,0,0,0-.426.141.783.783,0,0,0-.29.237.546.546,0,0,0-.105.33.609.609,0,0,0,.158.422,1.374,1.374,0,0,0,.413.3,4.078,4.078,0,0,0,.567.229q.312.1.62.207a8.056,8.056,0,0,1,1,.422,3.2,3.2,0,0,1,.769.536,2.105,2.105,0,0,1,.492.721,2.884,2.884,0,0,1-.176,2.351,2.78,2.78,0,0,1-.923.923,4.185,4.185,0,0,1-1.327.519,7.357,7.357,0,0,1-1.56.163A8.042,8.042,0,0,1,166.56,18.763Z" transform="translate(-7333 -7874)" fill="#00223d"/>
    <rect id="Rectángulo_35451" data-name="Rectángulo 35451" width="272" height="65" transform="translate(-8301 -7898)" fill="#eef0f2"/>
    <path id="Trazado_155360" data-name="Trazado 155360" d="M109.149,18.552a8.311,8.311,0,0,1-3.6.668,6.074,6.074,0,0,1-4.562-1.705,6.233,6.233,0,0,1-1.661-4.544,6.659,6.659,0,0,1,1.868-4.9,6.533,6.533,0,0,1,4.847-1.881,9.065,9.065,0,0,1,3.111.466V9.385a5.513,5.513,0,0,0-2.883-.756A3.824,3.824,0,0,0,103.4,9.745a4.142,4.142,0,0,0-1.09,3.023,4.062,4.062,0,0,0,1.028,2.914,3.633,3.633,0,0,0,2.769,1.085,5.905,5.905,0,0,0,3.041-.809Zm6.214.668a4.838,4.838,0,0,1-3.538-1.261,4.573,4.573,0,0,1-1.288-3.423,4.573,4.573,0,0,1,1.336-3.494,5.048,5.048,0,0,1,3.612-1.261A4.78,4.78,0,0,1,119,11.042a4.483,4.483,0,0,1,1.274,3.335,4.759,4.759,0,0,1-1.314,3.542A4.892,4.892,0,0,1,115.363,19.22Zm.07-7.312a1.852,1.852,0,0,0-1.529.677,2.984,2.984,0,0,0-.545,1.916q0,2.593,2.092,2.593,2,0,2-2.663Q117.446,11.907,115.434,11.907ZM136.369,19H133.6V13.867q0-1.96-1.441-1.96a1.324,1.324,0,0,0-1.116.589,2.42,2.42,0,0,0-.431,1.468V19h-2.777V13.814q0-1.907-1.415-1.907a1.356,1.356,0,0,0-1.138.563A2.475,2.475,0,0,0,124.855,14v5h-2.777V10h2.777v1.406h.035A3.41,3.41,0,0,1,127.8,9.78a2.592,2.592,0,0,1,2.61,1.679,3.329,3.329,0,0,1,3.023-1.679q2.936,0,2.936,3.621Zm5.01-1.046h-.035V23.14h-2.777V10h2.777v1.354h.035a3.534,3.534,0,0,1,5.594-.374,5.108,5.108,0,0,1,.954,3.265,5.537,5.537,0,0,1-1.112,3.612,3.625,3.625,0,0,1-2.958,1.362A2.8,2.8,0,0,1,141.379,17.954Zm-.079-3.691v.721a2.291,2.291,0,0,0,.492,1.521,1.6,1.6,0,0,0,1.292.589,1.7,1.7,0,0,0,1.472-.734,3.543,3.543,0,0,0,.523-2.079q0-2.373-1.846-2.373a1.733,1.733,0,0,0-1.393.646A2.576,2.576,0,0,0,141.3,14.263ZM155.6,12.5a2.409,2.409,0,0,0-1.169-.272,1.684,1.684,0,0,0-1.415.664,2.9,2.9,0,0,0-.51,1.806V19h-2.777V10h2.777v1.67h.035a2.4,2.4,0,0,1,2.373-1.828,1.788,1.788,0,0,1,.686.105Zm8.78,6.5h-2.628V17.708h-.035a2.933,2.933,0,0,1-2.681,1.512,2.8,2.8,0,0,1-2.061-.743,2.661,2.661,0,0,1-.751-1.982q0-2.619,3.1-3.023l2.443-.325q0-1.477-1.6-1.477a5.46,5.46,0,0,0-3.059.958V10.536a6.881,6.881,0,0,1,1.586-.527,8.339,8.339,0,0,1,1.833-.229q3.85,0,3.85,3.841Zm-2.61-3.656v-.606l-1.635.211q-1.354.176-1.354,1.222a1.01,1.01,0,0,0,.33.778,1.266,1.266,0,0,0,.892.3,1.644,1.644,0,0,0,1.274-.541A1.952,1.952,0,0,0,161.77,15.344Zm4.219,3.419v-2.25a5.913,5.913,0,0,0,1.367.615,4.531,4.531,0,0,0,1.288.2,2.762,2.762,0,0,0,1.165-.2.653.653,0,0,0,.426-.615.569.569,0,0,0-.193-.439,1.8,1.8,0,0,0-.5-.308,5.635,5.635,0,0,0-.664-.237q-.36-.105-.694-.237a6.653,6.653,0,0,1-.945-.435,2.731,2.731,0,0,1-.686-.541,2.125,2.125,0,0,1-.422-.712,2.841,2.841,0,0,1-.145-.958,2.466,2.466,0,0,1,.33-1.3,2.692,2.692,0,0,1,.879-.892,4.016,4.016,0,0,1,1.257-.51,6.553,6.553,0,0,1,1.472-.163,8.168,8.168,0,0,1,1.213.092,9.053,9.053,0,0,1,1.213.268v2.145a4.383,4.383,0,0,0-1.129-.461,4.764,4.764,0,0,0-1.182-.154,2.619,2.619,0,0,0-.514.048,1.693,1.693,0,0,0-.426.141.783.783,0,0,0-.29.237.546.546,0,0,0-.105.33.609.609,0,0,0,.158.422,1.374,1.374,0,0,0,.413.3,4.078,4.078,0,0,0,.567.229q.312.1.62.207a8.056,8.056,0,0,1,1,.422,3.2,3.2,0,0,1,.769.536,2.105,2.105,0,0,1,.492.721,2.884,2.884,0,0,1-.176,2.351,2.78,2.78,0,0,1-.923.923,4.185,4.185,0,0,1-1.327.519,7.357,7.357,0,0,1-1.56.163A8.042,8.042,0,0,1,165.988,18.763Z" transform="translate(-8301 -7874)" fill="#00223d"/>
    <line id="Línea_171" data-name="Línea 171" x2="25.535" transform="translate(-8165.151 -7923.494) rotate(90)" fill="none" stroke="#29c77b" stroke-width="3"/>
    <line id="Línea_172" data-name="Línea 172" x2="25.535" transform="translate(-7196.849 -7923.494) rotate(90)" fill="none" stroke="#29c77b" stroke-width="3"/>
    <rect id="Rectángulo_35452" data-name="Rectángulo 35452" width="271.697" height="136.481" transform="translate(-7655.059 -7805.481)" fill="#17c878"/>
    <line id="Línea_173" data-name="Línea 173" x2="25.535" transform="translate(-7513.082 -7831.017) rotate(90)" fill="none" stroke="#29c77b" stroke-width="3"/>
    <line id="Línea_174" data-name="Línea 174" x2="25.535" transform="translate(-7841.978 -7831.017) rotate(90)" fill="none" stroke="#29c77b" stroke-width="3"/>
    <path id="Trazado_155357" data-name="Trazado 155357" d="M114.948,14.658V19h-2.839V6.4h4.447q4.764,0,4.764,4.017a3.854,3.854,0,0,1-1.367,3.072,5.414,5.414,0,0,1-3.652,1.173Zm0-6.082V12.5h1.116q2.268,0,2.268-1.986,0-1.942-2.268-1.942ZM129.933,19h-2.628V17.708h-.035a2.933,2.933,0,0,1-2.681,1.512,2.8,2.8,0,0,1-2.061-.743,2.661,2.661,0,0,1-.751-1.982q0-2.619,3.1-3.023l2.443-.325q0-1.477-1.6-1.477a5.46,5.46,0,0,0-3.059.958V10.536a6.881,6.881,0,0,1,1.586-.527,8.339,8.339,0,0,1,1.833-.229q3.85,0,3.85,3.841Zm-2.61-3.656v-.606l-1.635.211q-1.354.176-1.354,1.222a1.01,1.01,0,0,0,.33.778,1.266,1.266,0,0,0,.892.3,1.644,1.644,0,0,0,1.274-.541A1.952,1.952,0,0,0,127.323,15.344Zm13.632,2.628a5.092,5.092,0,0,1-1.45,3.88,5.877,5.877,0,0,1-4.2,1.375,6.659,6.659,0,0,1-2.883-.519V20.371a5.521,5.521,0,0,0,2.8.809,3.02,3.02,0,0,0,2.18-.743,2.665,2.665,0,0,0,.773-2.017v-.712h-.035a3.1,3.1,0,0,1-2.8,1.512,3.372,3.372,0,0,1-2.733-1.213,4.919,4.919,0,0,1-1.011-3.252,5.478,5.478,0,0,1,1.125-3.63,3.673,3.673,0,0,1,2.962-1.345,2.733,2.733,0,0,1,2.461,1.266h.035V10h2.777Zm-2.742-3.3v-.712a2.188,2.188,0,0,0-.505-1.455,1.635,1.635,0,0,0-1.314-.6,1.7,1.7,0,0,0-1.45.721,3.389,3.389,0,0,0-.527,2.03,2.86,2.86,0,0,0,.5,1.78,1.633,1.633,0,0,0,1.371.655,1.7,1.7,0,0,0,1.393-.664A2.721,2.721,0,0,0,138.213,14.676Zm9.352,4.544a4.838,4.838,0,0,1-3.538-1.261,4.573,4.573,0,0,1-1.288-3.423,4.573,4.573,0,0,1,1.336-3.494,5.048,5.048,0,0,1,3.612-1.261,4.78,4.78,0,0,1,3.516,1.261,4.483,4.483,0,0,1,1.274,3.335,4.759,4.759,0,0,1-1.314,3.542A4.892,4.892,0,0,1,147.564,19.22Zm.07-7.312a1.852,1.852,0,0,0-1.529.677,2.984,2.984,0,0,0-.545,1.916q0,2.593,2.092,2.593,2,0,2-2.663Q149.647,11.907,147.635,11.907Zm6.056,6.855v-2.25a5.913,5.913,0,0,0,1.367.615,4.531,4.531,0,0,0,1.288.2,2.762,2.762,0,0,0,1.165-.2.653.653,0,0,0,.426-.615.569.569,0,0,0-.193-.439,1.8,1.8,0,0,0-.5-.308,5.635,5.635,0,0,0-.664-.237q-.36-.105-.694-.237a6.653,6.653,0,0,1-.945-.435,2.731,2.731,0,0,1-.686-.541,2.125,2.125,0,0,1-.422-.712,2.841,2.841,0,0,1-.145-.958,2.466,2.466,0,0,1,.33-1.3,2.692,2.692,0,0,1,.879-.892,4.016,4.016,0,0,1,1.257-.51,6.553,6.553,0,0,1,1.472-.163,8.168,8.168,0,0,1,1.213.092,9.053,9.053,0,0,1,1.213.268v2.145a4.383,4.383,0,0,0-1.129-.461,4.764,4.764,0,0,0-1.182-.154,2.619,2.619,0,0,0-.514.048,1.693,1.693,0,0,0-.426.141.783.783,0,0,0-.29.237.546.546,0,0,0-.105.33.609.609,0,0,0,.158.422,1.374,1.374,0,0,0,.413.3,4.078,4.078,0,0,0,.567.229q.312.1.62.207a8.056,8.056,0,0,1,1,.422,3.2,3.2,0,0,1,.769.536,2.105,2.105,0,0,1,.492.721,2.884,2.884,0,0,1-.176,2.351,2.78,2.78,0,0,1-.923.923,4.185,4.185,0,0,1-1.327.519,7.357,7.357,0,0,1-1.56.163A8.042,8.042,0,0,1,153.69,18.763ZM98.113,42.552a8.311,8.311,0,0,1-3.6.668,6.074,6.074,0,0,1-4.562-1.705,6.233,6.233,0,0,1-1.661-4.544,6.659,6.659,0,0,1,1.868-4.9A6.533,6.533,0,0,1,95,30.186a9.065,9.065,0,0,1,3.111.466v2.733a5.513,5.513,0,0,0-2.883-.756,3.824,3.824,0,0,0-2.865,1.116,4.142,4.142,0,0,0-1.09,3.023A4.062,4.062,0,0,0,92.3,39.682a3.633,3.633,0,0,0,2.769,1.085,5.905,5.905,0,0,0,3.041-.809Zm6.214.668a4.838,4.838,0,0,1-3.538-1.261A4.573,4.573,0,0,1,99.5,38.535a4.573,4.573,0,0,1,1.336-3.494,5.048,5.048,0,0,1,3.612-1.261,4.78,4.78,0,0,1,3.516,1.261,4.483,4.483,0,0,1,1.274,3.335,4.759,4.759,0,0,1-1.314,3.542A4.892,4.892,0,0,1,104.326,43.22Zm.07-7.312a1.852,1.852,0,0,0-1.529.677,2.984,2.984,0,0,0-.545,1.916q0,2.593,2.092,2.593,2,0,2-2.663Q106.409,35.907,104.4,35.907ZM125.332,43h-2.769V37.867q0-1.96-1.441-1.96a1.324,1.324,0,0,0-1.116.589,2.42,2.42,0,0,0-.431,1.468V43H116.8V37.814q0-1.907-1.415-1.907a1.356,1.356,0,0,0-1.138.563A2.475,2.475,0,0,0,113.819,38v5h-2.777V34h2.777v1.406h.035a3.41,3.41,0,0,1,2.909-1.626,2.592,2.592,0,0,1,2.61,1.679A3.329,3.329,0,0,1,122.4,33.78q2.936,0,2.936,3.621Zm3.6-10.424a1.622,1.622,0,0,1-1.151-.417,1.345,1.345,0,0,1-.448-1.024,1.3,1.3,0,0,1,.448-1.02,1.88,1.88,0,0,1,2.307,0,1.3,1.3,0,0,1,.444,1.02,1.34,1.34,0,0,1-.444,1.037A1.65,1.65,0,0,1,128.936,32.576ZM130.307,43H127.53V34h2.777Zm1.749-.237v-2.25a5.913,5.913,0,0,0,1.367.615,4.531,4.531,0,0,0,1.288.2,2.762,2.762,0,0,0,1.165-.2.653.653,0,0,0,.426-.615.569.569,0,0,0-.193-.439,1.8,1.8,0,0,0-.5-.308,5.635,5.635,0,0,0-.664-.237q-.36-.105-.694-.237a6.653,6.653,0,0,1-.945-.435,2.731,2.731,0,0,1-.686-.541,2.125,2.125,0,0,1-.422-.712,2.841,2.841,0,0,1-.145-.958,2.466,2.466,0,0,1,.33-1.3,2.692,2.692,0,0,1,.879-.892,4.016,4.016,0,0,1,1.257-.51,6.553,6.553,0,0,1,1.472-.163,8.168,8.168,0,0,1,1.213.092,9.053,9.053,0,0,1,1.213.268v2.145a4.383,4.383,0,0,0-1.129-.461,4.764,4.764,0,0,0-1.182-.154,2.619,2.619,0,0,0-.514.048,1.693,1.693,0,0,0-.426.141.783.783,0,0,0-.29.237.546.546,0,0,0-.105.33.609.609,0,0,0,.158.422,1.374,1.374,0,0,0,.413.3,4.078,4.078,0,0,0,.567.229q.312.1.62.207a8.056,8.056,0,0,1,1,.422,3.2,3.2,0,0,1,.769.536,2.105,2.105,0,0,1,.492.721,2.884,2.884,0,0,1-.176,2.351,2.78,2.78,0,0,1-.923.923,4.185,4.185,0,0,1-1.327.519,7.357,7.357,0,0,1-1.56.163A8.042,8.042,0,0,1,132.056,42.763Zm9.914-10.187a1.622,1.622,0,0,1-1.151-.417,1.345,1.345,0,0,1-.448-1.024,1.3,1.3,0,0,1,.448-1.02,1.88,1.88,0,0,1,2.307,0,1.3,1.3,0,0,1,.444,1.02,1.34,1.34,0,0,1-.444,1.037A1.65,1.65,0,0,1,141.97,32.576ZM143.341,43h-2.777V34h2.777Zm6.627.22a4.838,4.838,0,0,1-3.538-1.261,4.573,4.573,0,0,1-1.288-3.423,4.573,4.573,0,0,1,1.336-3.494,5.048,5.048,0,0,1,3.612-1.261,4.78,4.78,0,0,1,3.516,1.261,4.483,4.483,0,0,1,1.274,3.335,4.759,4.759,0,0,1-1.314,3.542A4.892,4.892,0,0,1,149.968,43.22Zm.07-7.312a1.852,1.852,0,0,0-1.529.677,2.984,2.984,0,0,0-.545,1.916q0,2.593,2.092,2.593,2,0,2-2.663Q152.051,35.907,150.038,35.907ZM165.375,43h-2.769V38q0-2.092-1.494-2.092a1.483,1.483,0,0,0-1.187.554,2.109,2.109,0,0,0-.466,1.406V43h-2.777V34h2.777v1.424h.035a3.183,3.183,0,0,1,2.892-1.644q2.988,0,2.988,3.709Zm10.283-3.709h-5.871q.141,1.96,2.47,1.96a4.822,4.822,0,0,0,2.61-.7v2a6.858,6.858,0,0,1-3.243.668,4.189,4.189,0,0,1-4.588-4.579,4.816,4.816,0,0,1,1.3-3.551,4.334,4.334,0,0,1,3.2-1.31,3.933,3.933,0,0,1,3.045,1.169,4.5,4.5,0,0,1,1.077,3.173Zm-2.575-1.705q0-1.934-1.564-1.934a1.494,1.494,0,0,0-1.156.554,2.513,2.513,0,0,0-.593,1.38Zm3.639,5.177v-2.25a5.913,5.913,0,0,0,1.367.615,4.531,4.531,0,0,0,1.288.2,2.762,2.762,0,0,0,1.165-.2.653.653,0,0,0,.426-.615.569.569,0,0,0-.193-.439,1.8,1.8,0,0,0-.5-.308,5.635,5.635,0,0,0-.664-.237q-.36-.105-.694-.237a6.653,6.653,0,0,1-.945-.435,2.731,2.731,0,0,1-.686-.541,2.125,2.125,0,0,1-.422-.712,2.841,2.841,0,0,1-.145-.958,2.466,2.466,0,0,1,.33-1.3,2.692,2.692,0,0,1,.879-.892,4.016,4.016,0,0,1,1.257-.51,6.553,6.553,0,0,1,1.472-.163,8.168,8.168,0,0,1,1.213.092,9.053,9.053,0,0,1,1.213.268v2.145a4.383,4.383,0,0,0-1.129-.461,4.764,4.764,0,0,0-1.182-.154,2.619,2.619,0,0,0-.514.048,1.693,1.693,0,0,0-.426.141.783.783,0,0,0-.29.237.546.546,0,0,0-.105.33.609.609,0,0,0,.158.422,1.374,1.374,0,0,0,.413.3,4.078,4.078,0,0,0,.567.229q.312.1.62.207a8.056,8.056,0,0,1,1,.422,3.2,3.2,0,0,1,.769.536,2.105,2.105,0,0,1,.492.721,2.884,2.884,0,0,1-.176,2.351,2.78,2.78,0,0,1-.923.923,4.185,4.185,0,0,1-1.327.519,7.357,7.357,0,0,1-1.56.163A8.042,8.042,0,0,1,176.722,42.763ZM83.9,67V54.4h4.465q6.715,0,6.715,6.144a6.212,6.212,0,0,1-1.833,4.7A6.757,6.757,0,0,1,88.366,67ZM86.74,56.708V64.7h1.406a3.8,3.8,0,0,0,2.9-1.107,4.2,4.2,0,0,0,1.05-3.015,3.812,3.812,0,0,0-1.042-2.834,3.971,3.971,0,0,0-2.922-1.033ZM101.189,67.22a4.838,4.838,0,0,1-3.538-1.261,5.216,5.216,0,0,1,.048-6.917,5.048,5.048,0,0,1,3.612-1.261,4.78,4.78,0,0,1,3.516,1.261,4.483,4.483,0,0,1,1.274,3.335,4.759,4.759,0,0,1-1.314,3.542A4.892,4.892,0,0,1,101.189,67.22Zm.07-7.312a1.852,1.852,0,0,0-1.529.677,2.984,2.984,0,0,0-.545,1.916q0,2.593,2.092,2.593,2,0,2-2.663Q103.272,59.907,101.259,59.907Zm13.465,6.768a5.492,5.492,0,0,1-2.716.545,4.593,4.593,0,0,1-3.357-1.257,4.341,4.341,0,0,1-1.283-3.243,4.782,4.782,0,0,1,1.375-3.617,5.083,5.083,0,0,1,3.678-1.323,4.72,4.72,0,0,1,2.3.422v2.355a3.166,3.166,0,0,0-1.942-.65,2.559,2.559,0,0,0-1.894.7,2.607,2.607,0,0,0-.7,1.929,2.565,2.565,0,0,0,.668,1.876,2.455,2.455,0,0,0,1.837.681,3.666,3.666,0,0,0,2.03-.65ZM125.1,67h-2.769V65.629h-.044a3.141,3.141,0,0,1-2.751,1.591q-3.129,0-3.129-3.788V58h2.769v5.186q0,1.907,1.512,1.907a1.5,1.5,0,0,0,1.2-.523,2.109,2.109,0,0,0,.448-1.419V58H125.1Zm16.629,0h-2.769V61.867q0-1.96-1.441-1.96a1.324,1.324,0,0,0-1.116.589,2.42,2.42,0,0,0-.431,1.468V67H133.19V61.814q0-1.907-1.415-1.907a1.356,1.356,0,0,0-1.138.563A2.475,2.475,0,0,0,130.21,62v5h-2.777V58h2.777v1.406h.035a3.41,3.41,0,0,1,2.909-1.626,2.592,2.592,0,0,1,2.61,1.679,3.329,3.329,0,0,1,3.023-1.679q2.936,0,2.936,3.621Zm10.283-3.709h-5.871q.141,1.96,2.47,1.96a4.822,4.822,0,0,0,2.61-.7v2a6.858,6.858,0,0,1-3.243.668,4.189,4.189,0,0,1-4.588-4.579,4.816,4.816,0,0,1,1.3-3.551,4.334,4.334,0,0,1,3.2-1.31,3.933,3.933,0,0,1,3.045,1.169,4.5,4.5,0,0,1,1.077,3.173Zm-2.575-1.705q0-1.934-1.564-1.934a1.494,1.494,0,0,0-1.156.554,2.513,2.513,0,0,0-.593,1.38ZM162.352,67h-2.769V62q0-2.092-1.494-2.092a1.483,1.483,0,0,0-1.187.554,2.109,2.109,0,0,0-.466,1.406V67h-2.777V58h2.777v1.424h.035a3.183,3.183,0,0,1,2.892-1.644q2.988,0,2.988,3.709Zm7.638-.105a4.105,4.105,0,0,1-1.854.325q-2.936,0-2.936-3.05V60.048h-1.459V58H165.2V56.058l2.769-.791V58h2.021v2.048h-2.021v3.639q0,1.406,1.116,1.406a1.882,1.882,0,0,0,.905-.255Zm5.783.325a4.838,4.838,0,0,1-3.538-1.261,5.216,5.216,0,0,1,.048-6.917A5.048,5.048,0,0,1,175.9,57.78a4.78,4.78,0,0,1,3.516,1.261,4.483,4.483,0,0,1,1.274,3.335,4.759,4.759,0,0,1-1.314,3.542A4.892,4.892,0,0,1,175.773,67.22Zm.07-7.312a1.852,1.852,0,0,0-1.529.677,2.984,2.984,0,0,0-.545,1.916q0,2.593,2.092,2.593,2,0,2-2.663Q177.856,59.907,175.843,59.907Zm6.056,6.855v-2.25a5.913,5.913,0,0,0,1.367.615,4.531,4.531,0,0,0,1.288.2,2.762,2.762,0,0,0,1.165-.2.653.653,0,0,0,.426-.615.569.569,0,0,0-.193-.439,1.8,1.8,0,0,0-.5-.308,5.635,5.635,0,0,0-.664-.237q-.36-.105-.694-.237a6.653,6.653,0,0,1-.945-.435,2.731,2.731,0,0,1-.686-.541,2.125,2.125,0,0,1-.422-.712,2.841,2.841,0,0,1-.145-.958,2.466,2.466,0,0,1,.33-1.3,2.692,2.692,0,0,1,.879-.892,4.016,4.016,0,0,1,1.257-.51,6.553,6.553,0,0,1,1.472-.163,8.168,8.168,0,0,1,1.213.092,9.053,9.053,0,0,1,1.213.268v2.145a4.383,4.383,0,0,0-1.129-.461,4.764,4.764,0,0,0-1.182-.154,2.619,2.619,0,0,0-.514.048,1.693,1.693,0,0,0-.426.141.783.783,0,0,0-.29.237.546.546,0,0,0-.105.33.609.609,0,0,0,.158.422,1.374,1.374,0,0,0,.413.3,4.078,4.078,0,0,0,.567.229q.312.1.62.207a8.056,8.056,0,0,1,1,.422,3.2,3.2,0,0,1,.769.536,2.105,2.105,0,0,1,.492.721,2.884,2.884,0,0,1-.176,2.351,2.78,2.78,0,0,1-.923.923,4.185,4.185,0,0,1-1.327.519,7.357,7.357,0,0,1-1.56.163A8.042,8.042,0,0,1,181.9,66.763ZM86.45,91H83.611V78.4H86.45Zm11.285,0H94.966V86q0-2.092-1.494-2.092a1.483,1.483,0,0,0-1.187.554,2.109,2.109,0,0,0-.466,1.406V91H89.042V82H91.82v1.424h.035a3.183,3.183,0,0,1,2.892-1.644q2.988,0,2.988,3.709Zm1.608-.237v-2.25a5.913,5.913,0,0,0,1.367.615,4.531,4.531,0,0,0,1.288.2,2.762,2.762,0,0,0,1.165-.2.653.653,0,0,0,.426-.615.569.569,0,0,0-.193-.439,1.8,1.8,0,0,0-.5-.308,5.635,5.635,0,0,0-.664-.237q-.36-.105-.694-.237a6.653,6.653,0,0,1-.945-.435,2.731,2.731,0,0,1-.686-.541,2.125,2.125,0,0,1-.422-.712,2.841,2.841,0,0,1-.145-.958,2.466,2.466,0,0,1,.33-1.3,2.692,2.692,0,0,1,.879-.892,4.016,4.016,0,0,1,1.257-.51,6.553,6.553,0,0,1,1.472-.163,8.168,8.168,0,0,1,1.213.092,9.053,9.053,0,0,1,1.213.268v2.145a4.383,4.383,0,0,0-1.129-.461,4.764,4.764,0,0,0-1.182-.154,2.619,2.619,0,0,0-.514.048,1.693,1.693,0,0,0-.426.141.783.783,0,0,0-.29.237.546.546,0,0,0-.105.33.609.609,0,0,0,.158.422,1.374,1.374,0,0,0,.413.3,4.078,4.078,0,0,0,.567.229q.312.1.62.207a8.056,8.056,0,0,1,1,.422,3.2,3.2,0,0,1,.769.536,2.105,2.105,0,0,1,.492.721,2.884,2.884,0,0,1-.176,2.351,2.78,2.78,0,0,1-.923.923,4.185,4.185,0,0,1-1.327.519,7.357,7.357,0,0,1-1.56.163A8.042,8.042,0,0,1,99.343,90.763Zm11.32-.809h-.035V95.14h-2.777V82h2.777v1.354h.035a3.534,3.534,0,0,1,5.594-.374,5.108,5.108,0,0,1,.954,3.265,5.537,5.537,0,0,1-1.112,3.612,3.625,3.625,0,0,1-2.958,1.362A2.8,2.8,0,0,1,110.663,89.954Zm-.079-3.691v.721a2.291,2.291,0,0,0,.492,1.521,1.6,1.6,0,0,0,1.292.589,1.7,1.7,0,0,0,1.472-.734,3.543,3.543,0,0,0,.523-2.079q0-2.373-1.846-2.373a1.733,1.733,0,0,0-1.393.646A2.576,2.576,0,0,0,110.584,86.263ZM127.1,87.291h-5.871q.141,1.96,2.47,1.96a4.822,4.822,0,0,0,2.61-.7v2a6.858,6.858,0,0,1-3.243.668,4.189,4.189,0,0,1-4.588-4.579,4.816,4.816,0,0,1,1.3-3.551,4.334,4.334,0,0,1,3.2-1.31,3.933,3.933,0,0,1,3.045,1.169,4.5,4.5,0,0,1,1.077,3.173Zm-2.575-1.705q0-1.934-1.564-1.934a1.494,1.494,0,0,0-1.156.554,2.513,2.513,0,0,0-.593,1.38Zm11.048,5.089a5.492,5.492,0,0,1-2.716.545,4.593,4.593,0,0,1-3.357-1.257,4.341,4.341,0,0,1-1.283-3.243,4.782,4.782,0,0,1,1.375-3.617,5.083,5.083,0,0,1,3.678-1.323,4.72,4.72,0,0,1,2.3.422v2.355a3.166,3.166,0,0,0-1.942-.65,2.559,2.559,0,0,0-1.894.7,2.607,2.607,0,0,0-.7,1.929,2.565,2.565,0,0,0,.668,1.876,2.455,2.455,0,0,0,1.837.681,3.666,3.666,0,0,0,2.03-.65Zm8.64,0a5.492,5.492,0,0,1-2.716.545,4.593,4.593,0,0,1-3.357-1.257,4.341,4.341,0,0,1-1.283-3.243A4.782,4.782,0,0,1,138.23,83.1a5.083,5.083,0,0,1,3.678-1.323,4.72,4.72,0,0,1,2.3.422v2.355a3.166,3.166,0,0,0-1.942-.65,2.559,2.559,0,0,0-1.894.7,2.607,2.607,0,0,0-.7,1.929,2.565,2.565,0,0,0,.668,1.876,2.455,2.455,0,0,0,1.837.681,3.666,3.666,0,0,0,2.03-.65Zm3.226-10.1a1.622,1.622,0,0,1-1.151-.417,1.345,1.345,0,0,1-.448-1.024,1.3,1.3,0,0,1,.448-1.02,1.88,1.88,0,0,1,2.307,0,1.3,1.3,0,0,1,.444,1.02,1.34,1.34,0,0,1-.444,1.037A1.65,1.65,0,0,1,147.437,80.576ZM148.808,91h-2.777V82h2.777Zm6.627.22a4.838,4.838,0,0,1-3.538-1.261,5.216,5.216,0,0,1,.048-6.917,5.048,5.048,0,0,1,3.612-1.261,4.78,4.78,0,0,1,3.516,1.261,4.483,4.483,0,0,1,1.274,3.335,4.759,4.759,0,0,1-1.314,3.542A4.892,4.892,0,0,1,155.435,91.22Zm.07-7.312a1.852,1.852,0,0,0-1.529.677,2.984,2.984,0,0,0-.545,1.916q0,2.593,2.092,2.593,2,0,2-2.663Q157.518,83.907,155.505,83.907ZM170.842,91h-2.769V86q0-2.092-1.494-2.092a1.483,1.483,0,0,0-1.187.554,2.109,2.109,0,0,0-.466,1.406V91H162.15V82h2.777v1.424h.035a3.183,3.183,0,0,1,2.892-1.644q2.988,0,2.988,3.709Zm10.283-3.709h-5.871q.141,1.96,2.47,1.96a4.822,4.822,0,0,0,2.61-.7v2a6.858,6.858,0,0,1-3.243.668,4.189,4.189,0,0,1-4.588-4.579,4.816,4.816,0,0,1,1.3-3.551,4.334,4.334,0,0,1,3.2-1.31,3.933,3.933,0,0,1,3.045,1.169,4.5,4.5,0,0,1,1.077,3.173Zm-2.575-1.705q0-1.934-1.564-1.934a1.494,1.494,0,0,0-1.156.554,2.513,2.513,0,0,0-.593,1.38Zm3.639,5.177v-2.25a5.913,5.913,0,0,0,1.367.615,4.531,4.531,0,0,0,1.288.2,2.762,2.762,0,0,0,1.165-.2.653.653,0,0,0,.426-.615.569.569,0,0,0-.193-.439,1.8,1.8,0,0,0-.5-.308,5.635,5.635,0,0,0-.664-.237q-.36-.105-.694-.237a6.653,6.653,0,0,1-.945-.435,2.731,2.731,0,0,1-.686-.541,2.125,2.125,0,0,1-.422-.712,2.841,2.841,0,0,1-.145-.958,2.466,2.466,0,0,1,.33-1.3,2.692,2.692,0,0,1,.879-.892,4.016,4.016,0,0,1,1.257-.51,6.553,6.553,0,0,1,1.472-.163,8.168,8.168,0,0,1,1.213.092,9.053,9.053,0,0,1,1.213.268v2.145a4.383,4.383,0,0,0-1.129-.461,4.764,4.764,0,0,0-1.182-.154,2.619,2.619,0,0,0-.514.048,1.693,1.693,0,0,0-.426.141.783.783,0,0,0-.29.237.546.546,0,0,0-.105.33.609.609,0,0,0,.158.422,1.374,1.374,0,0,0,.413.3,4.078,4.078,0,0,0,.567.229q.312.1.62.207a8.056,8.056,0,0,1,1,.422,3.2,3.2,0,0,1,.769.536,2.105,2.105,0,0,1,.492.721,2.884,2.884,0,0,1-.176,2.351,2.78,2.78,0,0,1-.923.923,4.185,4.185,0,0,1-1.327.519,7.357,7.357,0,0,1-1.56.163A8.042,8.042,0,0,1,182.189,90.763Z" transform="translate(-7655.059 -7781.989)" fill="#fff"/>
    <rect id="Rectángulo_35453" data-name="Rectángulo 35453" width="271.697" height="113.481" transform="translate(-7977.826 -7805.481)" fill="#17c878"/>
    <path id="Trazado_155358" data-name="Trazado 155358" d="M76.839,19H73.745l-.9-2.8H68.366L67.478,19H64.4L68.99,6.4h3.366ZM72.2,14.017,70.845,9.78a5.521,5.521,0,0,1-.211-1.134h-.07a4.807,4.807,0,0,1-.22,1.1l-1.371,4.271ZM80.917,19H78.139V5.676h2.777Zm16.629,0H94.777V13.867q0-1.96-1.441-1.96a1.324,1.324,0,0,0-1.116.589,2.42,2.42,0,0,0-.431,1.468V19H89.012V13.814q0-1.907-1.415-1.907a1.356,1.356,0,0,0-1.138.563A2.475,2.475,0,0,0,86.032,14v5H83.255V10h2.777v1.406h.035A3.41,3.41,0,0,1,88.976,9.78a2.592,2.592,0,0,1,2.61,1.679A3.329,3.329,0,0,1,94.61,9.78q2.936,0,2.936,3.621Zm9.686,0H104.6V17.708h-.035a2.933,2.933,0,0,1-2.681,1.512,2.8,2.8,0,0,1-2.061-.743,2.661,2.661,0,0,1-.751-1.982q0-2.619,3.1-3.023l2.443-.325q0-1.477-1.6-1.477a5.46,5.46,0,0,0-3.059.958V10.536a6.881,6.881,0,0,1,1.586-.527,8.339,8.339,0,0,1,1.833-.229q3.85,0,3.85,3.841Zm-2.61-3.656v-.606l-1.635.211q-1.354.176-1.354,1.222a1.01,1.01,0,0,0,.33.778,1.266,1.266,0,0,0,.892.3,1.644,1.644,0,0,0,1.274-.541A1.952,1.952,0,0,0,104.621,15.344Zm11.628,3.331a5.492,5.492,0,0,1-2.716.545,4.593,4.593,0,0,1-3.357-1.257,4.341,4.341,0,0,1-1.283-3.243,4.782,4.782,0,0,1,1.375-3.617,5.083,5.083,0,0,1,3.678-1.323,4.72,4.72,0,0,1,2.3.422v2.355a3.166,3.166,0,0,0-1.942-.65,2.559,2.559,0,0,0-1.894.7,2.607,2.607,0,0,0-.7,1.929,2.565,2.565,0,0,0,.668,1.876,2.455,2.455,0,0,0,1.837.681,3.666,3.666,0,0,0,2.03-.65Zm9.905-3.384h-5.871q.141,1.96,2.47,1.96a4.822,4.822,0,0,0,2.61-.7v2a6.858,6.858,0,0,1-3.243.668,4.565,4.565,0,0,1-3.384-1.208,4.566,4.566,0,0,1-1.2-3.371,4.816,4.816,0,0,1,1.3-3.551,4.334,4.334,0,0,1,3.2-1.31,3.933,3.933,0,0,1,3.045,1.169,4.5,4.5,0,0,1,1.077,3.173Zm-2.575-1.705q0-1.934-1.564-1.934a1.494,1.494,0,0,0-1.156.554,2.513,2.513,0,0,0-.593,1.38ZM136.5,19H133.73V14q0-2.092-1.494-2.092a1.483,1.483,0,0,0-1.187.554,2.109,2.109,0,0,0-.466,1.406V19h-2.777V10h2.777v1.424h.035a3.183,3.183,0,0,1,2.892-1.644q2.988,0,2.988,3.709Zm9.686,0h-2.628V17.708h-.035a2.933,2.933,0,0,1-2.681,1.512,2.8,2.8,0,0,1-2.061-.743,2.661,2.661,0,0,1-.751-1.982q0-2.619,3.1-3.023l2.443-.325q0-1.477-1.6-1.477a5.46,5.46,0,0,0-3.059.958V10.536a6.881,6.881,0,0,1,1.586-.527,8.339,8.339,0,0,1,1.833-.229q3.85,0,3.85,3.841Zm-2.61-3.656v-.606l-1.635.211q-1.354.176-1.354,1.222a1.01,1.01,0,0,0,.33.778,1.266,1.266,0,0,0,.892.3,1.644,1.644,0,0,0,1.274-.541A1.952,1.952,0,0,0,143.574,15.344ZM162.673,19H159.9V13.867q0-1.96-1.441-1.96a1.324,1.324,0,0,0-1.116.589,2.42,2.42,0,0,0-.431,1.468V19h-2.777V13.814q0-1.907-1.415-1.907a1.356,1.356,0,0,0-1.138.563A2.475,2.475,0,0,0,151.159,14v5h-2.777V10h2.777v1.406h.035A3.41,3.41,0,0,1,154.1,9.78a2.592,2.592,0,0,1,2.61,1.679,3.329,3.329,0,0,1,3.023-1.679q2.936,0,2.936,3.621Zm3.6-10.424a1.622,1.622,0,0,1-1.151-.417,1.345,1.345,0,0,1-.448-1.024,1.3,1.3,0,0,1,.448-1.02,1.88,1.88,0,0,1,2.307,0,1.3,1.3,0,0,1,.444,1.02,1.34,1.34,0,0,1-.444,1.037A1.65,1.65,0,0,1,166.276,8.576ZM167.647,19H164.87V10h2.777Zm10.424-3.709H172.2q.141,1.96,2.47,1.96a4.822,4.822,0,0,0,2.61-.7v2a6.858,6.858,0,0,1-3.243.668,4.565,4.565,0,0,1-3.384-1.208,4.566,4.566,0,0,1-1.2-3.371,4.816,4.816,0,0,1,1.3-3.551,4.334,4.334,0,0,1,3.2-1.31,3.933,3.933,0,0,1,3.045,1.169,4.5,4.5,0,0,1,1.077,3.173ZM175.5,13.586q0-1.934-1.564-1.934a1.494,1.494,0,0,0-1.156.554,2.513,2.513,0,0,0-.593,1.38ZM188.416,19h-2.769V14q0-2.092-1.494-2.092a1.483,1.483,0,0,0-1.187.554,2.109,2.109,0,0,0-.466,1.406V19h-2.777V10H182.5v1.424h.035a3.183,3.183,0,0,1,2.892-1.644q2.988,0,2.988,3.709Zm7.638-.105a4.105,4.105,0,0,1-1.854.325q-2.936,0-2.936-3.05V12.048H189.8V10h1.459V8.058l2.769-.791V10h2.021v2.048h-2.021v3.639q0,1.406,1.116,1.406a1.882,1.882,0,0,0,.905-.255Zm5.783.325a4.838,4.838,0,0,1-3.538-1.261,4.573,4.573,0,0,1-1.288-3.423,4.573,4.573,0,0,1,1.336-3.494A5.048,5.048,0,0,1,201.96,9.78a4.78,4.78,0,0,1,3.516,1.261,4.483,4.483,0,0,1,1.274,3.335,4.759,4.759,0,0,1-1.314,3.542A4.892,4.892,0,0,1,201.837,19.22Zm.07-7.312a1.852,1.852,0,0,0-1.529.677,2.984,2.984,0,0,0-.545,1.916q0,2.593,2.092,2.593,2,0,2-2.663Q203.92,11.907,201.907,11.907ZM102.771,42.517V39.7a5.4,5.4,0,0,0,1.661.962,5.34,5.34,0,0,0,1.811.321,4.015,4.015,0,0,0,.936-.1,2.193,2.193,0,0,0,.668-.268,1.169,1.169,0,0,0,.4-.4,1.009,1.009,0,0,0,.132-.505,1.092,1.092,0,0,0-.211-.659,2.27,2.27,0,0,0-.576-.536,6.015,6.015,0,0,0-.866-.475q-.5-.229-1.081-.466a5.517,5.517,0,0,1-2.2-1.5,3.281,3.281,0,0,1-.725-2.145,3.416,3.416,0,0,1,.4-1.692,3.359,3.359,0,0,1,1.077-1.165,4.828,4.828,0,0,1,1.578-.672,8.106,8.106,0,0,1,1.9-.215,11.418,11.418,0,0,1,1.745.119,6.861,6.861,0,0,1,1.4.365V33.3a4.239,4.239,0,0,0-.69-.387,5.466,5.466,0,0,0-.769-.277,5.866,5.866,0,0,0-.787-.163,5.567,5.567,0,0,0-.743-.053,3.873,3.873,0,0,0-.879.092,2.254,2.254,0,0,0-.668.259,1.29,1.29,0,0,0-.422.4.948.948,0,0,0-.149.523,1,1,0,0,0,.167.567,1.916,1.916,0,0,0,.475.475,5.037,5.037,0,0,0,.747.439q.439.215.993.444a11.067,11.067,0,0,1,1.358.672,4.827,4.827,0,0,1,1.033.8,3.133,3.133,0,0,1,.659,1.024,4.089,4.089,0,0,1-.171,3.111,3.247,3.247,0,0,1-1.085,1.16,4.707,4.707,0,0,1-1.6.637,9.219,9.219,0,0,1-1.92.193,10.678,10.678,0,0,1-1.973-.176A5.956,5.956,0,0,1,102.771,42.517Zm18.483-3.226h-5.871q.141,1.96,2.47,1.96a4.822,4.822,0,0,0,2.61-.7v2a6.858,6.858,0,0,1-3.243.668,4.189,4.189,0,0,1-4.588-4.579,4.816,4.816,0,0,1,1.3-3.551,4.334,4.334,0,0,1,3.2-1.31,3.933,3.933,0,0,1,3.045,1.169,4.5,4.5,0,0,1,1.077,3.173Zm-2.575-1.705q0-1.934-1.564-1.934a1.494,1.494,0,0,0-1.156.554,2.513,2.513,0,0,0-.593,1.38Zm13.052,4.386a5.092,5.092,0,0,1-1.45,3.88,5.877,5.877,0,0,1-4.2,1.375,6.659,6.659,0,0,1-2.883-.519V44.371a5.521,5.521,0,0,0,2.8.809,3.02,3.02,0,0,0,2.18-.743,2.665,2.665,0,0,0,.773-2.017v-.712h-.035a3.1,3.1,0,0,1-2.8,1.512,3.372,3.372,0,0,1-2.733-1.213,4.919,4.919,0,0,1-1.011-3.252,5.478,5.478,0,0,1,1.125-3.63,3.673,3.673,0,0,1,2.962-1.345,2.733,2.733,0,0,1,2.461,1.266h.035V34h2.777Zm-2.742-3.3v-.712a2.188,2.188,0,0,0-.505-1.455,1.635,1.635,0,0,0-1.314-.6,1.7,1.7,0,0,0-1.45.721,3.389,3.389,0,0,0-.527,2.03,2.86,2.86,0,0,0,.5,1.78,1.633,1.633,0,0,0,1.371.655,1.7,1.7,0,0,0,1.393-.664A2.721,2.721,0,0,0,128.989,38.676ZM142.6,43h-2.769V41.629h-.044a3.141,3.141,0,0,1-2.751,1.591q-3.129,0-3.129-3.788V34h2.769v5.186q0,1.907,1.512,1.907a1.5,1.5,0,0,0,1.2-.523,2.109,2.109,0,0,0,.448-1.419V34H142.6Zm8.209-6.5a2.409,2.409,0,0,0-1.169-.272,1.684,1.684,0,0,0-1.415.664,2.9,2.9,0,0,0-.51,1.806V43h-2.777V34h2.777v1.67h.035a2.4,2.4,0,0,1,2.373-1.828,1.788,1.788,0,0,1,.686.105Zm5.511,6.715a4.838,4.838,0,0,1-3.538-1.261,4.573,4.573,0,0,1-1.288-3.423,4.573,4.573,0,0,1,1.336-3.494,5.048,5.048,0,0,1,3.612-1.261,4.78,4.78,0,0,1,3.516,1.261,4.483,4.483,0,0,1,1.274,3.335,4.759,4.759,0,0,1-1.314,3.542A4.892,4.892,0,0,1,156.323,43.22Zm.07-7.312a1.852,1.852,0,0,0-1.529.677,2.984,2.984,0,0,0-.545,1.916q0,2.593,2.092,2.593,2,0,2-2.663Q158.406,35.907,156.393,35.907Zm6.056,6.855v-2.25a5.913,5.913,0,0,0,1.367.615,4.531,4.531,0,0,0,1.288.2,2.762,2.762,0,0,0,1.165-.2.653.653,0,0,0,.426-.615.569.569,0,0,0-.193-.439,1.8,1.8,0,0,0-.5-.308,5.635,5.635,0,0,0-.664-.237q-.36-.105-.694-.237a6.653,6.653,0,0,1-.945-.435,2.731,2.731,0,0,1-.686-.541,2.125,2.125,0,0,1-.422-.712,2.841,2.841,0,0,1-.145-.958,2.466,2.466,0,0,1,.33-1.3,2.692,2.692,0,0,1,.879-.892,4.016,4.016,0,0,1,1.257-.51,6.553,6.553,0,0,1,1.472-.163,8.168,8.168,0,0,1,1.213.092,9.053,9.053,0,0,1,1.213.268v2.145a4.383,4.383,0,0,0-1.129-.461,4.764,4.764,0,0,0-1.182-.154,2.619,2.619,0,0,0-.514.048,1.693,1.693,0,0,0-.426.141.783.783,0,0,0-.29.237.546.546,0,0,0-.105.33.609.609,0,0,0,.158.422,1.374,1.374,0,0,0,.413.3,4.078,4.078,0,0,0,.567.229q.312.1.62.207a8.056,8.056,0,0,1,1,.422,3.2,3.2,0,0,1,.769.536,2.105,2.105,0,0,1,.492.721,2.884,2.884,0,0,1-.176,2.351,2.78,2.78,0,0,1-.923.923,4.185,4.185,0,0,1-1.327.519,7.357,7.357,0,0,1-1.56.163A8.042,8.042,0,0,1,162.449,42.763ZM96.249,67H93.41V54.4h2.839Zm16.884,0h-2.769V61.867q0-1.96-1.441-1.96a1.324,1.324,0,0,0-1.116.589,2.42,2.42,0,0,0-.431,1.468V67H104.6V61.814q0-1.907-1.415-1.907a1.356,1.356,0,0,0-1.138.563A2.475,2.475,0,0,0,101.619,62v5H98.842V58h2.777v1.406h.035a3.41,3.41,0,0,1,2.909-1.626,2.592,2.592,0,0,1,2.61,1.679A3.329,3.329,0,0,1,110.2,57.78q2.936,0,2.936,3.621Zm5.01-1.046h-.035V71.14H115.33V58h2.777v1.354h.035a3.534,3.534,0,0,1,5.594-.374,5.108,5.108,0,0,1,.954,3.265,5.537,5.537,0,0,1-1.112,3.612,3.625,3.625,0,0,1-2.958,1.362A2.8,2.8,0,0,1,118.143,65.954Zm-.079-3.691v.721a2.291,2.291,0,0,0,.492,1.521,1.6,1.6,0,0,0,1.292.589,1.7,1.7,0,0,0,1.472-.734,3.543,3.543,0,0,0,.523-2.079q0-2.373-1.846-2.373a1.733,1.733,0,0,0-1.393.646A2.576,2.576,0,0,0,118.064,62.263ZM135.044,67h-2.769V65.629h-.044a3.141,3.141,0,0,1-2.751,1.591q-3.129,0-3.129-3.788V58h2.769v5.186q0,1.907,1.512,1.907a1.5,1.5,0,0,0,1.2-.523,2.109,2.109,0,0,0,.448-1.419V58h2.769Zm10.424-3.709H139.6q.141,1.96,2.47,1.96a4.822,4.822,0,0,0,2.61-.7v2a6.858,6.858,0,0,1-3.243.668,4.189,4.189,0,0,1-4.588-4.579,4.816,4.816,0,0,1,1.3-3.551,4.334,4.334,0,0,1,3.2-1.31,3.933,3.933,0,0,1,3.045,1.169,4.5,4.5,0,0,1,1.077,3.173Zm-2.575-1.705q0-1.934-1.564-1.934a1.494,1.494,0,0,0-1.156.554,2.513,2.513,0,0,0-.593,1.38Zm3.639,5.177v-2.25a5.913,5.913,0,0,0,1.367.615,4.531,4.531,0,0,0,1.288.2,2.762,2.762,0,0,0,1.165-.2.653.653,0,0,0,.426-.615.569.569,0,0,0-.193-.439,1.8,1.8,0,0,0-.5-.308,5.635,5.635,0,0,0-.664-.237q-.36-.105-.694-.237a6.653,6.653,0,0,1-.945-.435,2.731,2.731,0,0,1-.686-.541,2.125,2.125,0,0,1-.422-.712,2.841,2.841,0,0,1-.145-.958,2.466,2.466,0,0,1,.33-1.3,2.692,2.692,0,0,1,.879-.892,4.016,4.016,0,0,1,1.257-.51,6.553,6.553,0,0,1,1.472-.163,8.168,8.168,0,0,1,1.213.092,9.053,9.053,0,0,1,1.213.268v2.145a4.383,4.383,0,0,0-1.129-.461,4.764,4.764,0,0,0-1.182-.154,2.619,2.619,0,0,0-.514.048,1.693,1.693,0,0,0-.426.141.783.783,0,0,0-.29.237.546.546,0,0,0-.105.33.609.609,0,0,0,.158.422,1.374,1.374,0,0,0,.413.3,4.078,4.078,0,0,0,.567.229q.312.1.62.207a8.056,8.056,0,0,1,1,.422,3.2,3.2,0,0,1,.769.536,2.105,2.105,0,0,1,.492.721,2.884,2.884,0,0,1-.176,2.351,2.78,2.78,0,0,1-.923.923,4.185,4.185,0,0,1-1.327.519,7.357,7.357,0,0,1-1.56.163A8.042,8.042,0,0,1,146.532,66.763Zm13.948.132a4.105,4.105,0,0,1-1.854.325q-2.936,0-2.936-3.05V60.048h-1.459V58h1.459V56.058l2.769-.791V58h2.021v2.048h-2.021v3.639q0,1.406,1.116,1.406a1.882,1.882,0,0,0,.905-.255Zm5.783.325a4.838,4.838,0,0,1-3.538-1.261,5.216,5.216,0,0,1,.048-6.917,5.048,5.048,0,0,1,3.612-1.261,4.78,4.78,0,0,1,3.516,1.261,4.483,4.483,0,0,1,1.274,3.335,4.759,4.759,0,0,1-1.314,3.542A4.892,4.892,0,0,1,166.263,67.22Zm.07-7.312a1.852,1.852,0,0,0-1.529.677,2.984,2.984,0,0,0-.545,1.916q0,2.593,2.092,2.593,2,0,2-2.663Q168.346,59.907,166.333,59.907Zm6.056,6.855v-2.25a5.913,5.913,0,0,0,1.367.615,4.531,4.531,0,0,0,1.288.2,2.762,2.762,0,0,0,1.165-.2.653.653,0,0,0,.426-.615.569.569,0,0,0-.193-.439,1.8,1.8,0,0,0-.5-.308,5.635,5.635,0,0,0-.664-.237q-.36-.105-.694-.237a6.653,6.653,0,0,1-.945-.435,2.731,2.731,0,0,1-.686-.541,2.125,2.125,0,0,1-.422-.712,2.841,2.841,0,0,1-.145-.958,2.466,2.466,0,0,1,.33-1.3,2.692,2.692,0,0,1,.879-.892,4.016,4.016,0,0,1,1.257-.51,6.553,6.553,0,0,1,1.472-.163,8.168,8.168,0,0,1,1.213.092,9.053,9.053,0,0,1,1.213.268v2.145a4.383,4.383,0,0,0-1.129-.461,4.764,4.764,0,0,0-1.182-.154,2.619,2.619,0,0,0-.514.048,1.693,1.693,0,0,0-.426.141.783.783,0,0,0-.29.237.546.546,0,0,0-.105.33.609.609,0,0,0,.158.422,1.374,1.374,0,0,0,.413.3,4.078,4.078,0,0,0,.567.229q.312.1.62.207a8.056,8.056,0,0,1,1,.422,3.2,3.2,0,0,1,.769.536,2.105,2.105,0,0,1,.492.721,2.884,2.884,0,0,1-.176,2.351,2.78,2.78,0,0,1-.923.923,4.185,4.185,0,0,1-1.327.519,7.357,7.357,0,0,1-1.56.163A8.042,8.042,0,0,1,172.389,66.763Z" transform="translate(-7977.826 -7781.989)" fill="#fff"/>
    <rect id="Rectángulo_35454" data-name="Rectángulo 35454" width="272" height="92.522" transform="translate(-7333 -7805.522)" fill="#17c878"/>
    <path id="Trazado_155356" data-name="Trazado 155356" d="M121.819,19h-3.261l-1.96-3.243q-.22-.369-.422-.659a3.662,3.662,0,0,0-.409-.5,1.625,1.625,0,0,0-.431-.316,1.093,1.093,0,0,0-.488-.11h-.765V19h-2.839V6.4h4.5q4.588,0,4.588,3.428a3.55,3.55,0,0,1-.2,1.217,3.382,3.382,0,0,1-.571,1.006,3.621,3.621,0,0,1-.892.773,4.6,4.6,0,0,1-1.165.51v.035a1.806,1.806,0,0,1,.545.286,3.9,3.9,0,0,1,.51.461,6.438,6.438,0,0,1,.47.567q.224.3.409.593ZM114.084,8.523V12.03h1.23a2.04,2.04,0,0,0,1.468-.527,1.76,1.76,0,0,0,.563-1.327q0-1.652-1.978-1.652Zm12.48,10.7a4.838,4.838,0,0,1-3.538-1.261,4.573,4.573,0,0,1-1.288-3.423,4.573,4.573,0,0,1,1.336-3.494,5.048,5.048,0,0,1,3.612-1.261,4.78,4.78,0,0,1,3.516,1.261,4.483,4.483,0,0,1,1.274,3.335,4.759,4.759,0,0,1-1.314,3.542A4.892,4.892,0,0,1,126.565,19.22Zm.07-7.312a1.852,1.852,0,0,0-1.529.677,2.984,2.984,0,0,0-.545,1.916q0,2.593,2.092,2.593,2,0,2-2.663Q128.648,11.907,126.635,11.907Zm9.457,6.047h-.035V19H133.28V5.676h2.777v5.678h.035a3.3,3.3,0,0,1,2.927-1.573,3.211,3.211,0,0,1,2.681,1.2,5.155,5.155,0,0,1,.94,3.27,5.582,5.582,0,0,1-1.1,3.612,3.579,3.579,0,0,1-2.936,1.362A2.836,2.836,0,0,1,136.092,17.954Zm-.079-3.8v.923a2.107,2.107,0,0,0,.5,1.441,1.63,1.63,0,0,0,1.283.571,1.7,1.7,0,0,0,1.472-.734,3.543,3.543,0,0,0,.523-2.079,2.819,2.819,0,0,0-.479-1.745,1.616,1.616,0,0,0-1.367-.628,1.766,1.766,0,0,0-1.384.624A2.37,2.37,0,0,0,136.013,14.157Zm12.718,5.063a4.838,4.838,0,0,1-3.538-1.261,4.573,4.573,0,0,1-1.288-3.423,4.573,4.573,0,0,1,1.336-3.494,5.048,5.048,0,0,1,3.612-1.261,4.78,4.78,0,0,1,3.516,1.261,4.483,4.483,0,0,1,1.274,3.335,4.759,4.759,0,0,1-1.314,3.542A4.892,4.892,0,0,1,148.731,19.22Zm.07-7.312a1.852,1.852,0,0,0-1.529.677,2.984,2.984,0,0,0-.545,1.916q0,2.593,2.092,2.593,2,0,2-2.663Q150.814,11.907,148.8,11.907Zm6.056,6.855v-2.25a5.913,5.913,0,0,0,1.367.615,4.531,4.531,0,0,0,1.288.2,2.762,2.762,0,0,0,1.165-.2.653.653,0,0,0,.426-.615.569.569,0,0,0-.193-.439,1.8,1.8,0,0,0-.5-.308,5.635,5.635,0,0,0-.664-.237q-.36-.105-.694-.237a6.653,6.653,0,0,1-.945-.435,2.731,2.731,0,0,1-.686-.541A2.125,2.125,0,0,1,155,13.6a2.841,2.841,0,0,1-.145-.958,2.466,2.466,0,0,1,.33-1.3,2.692,2.692,0,0,1,.879-.892,4.016,4.016,0,0,1,1.257-.51,6.553,6.553,0,0,1,1.472-.163,8.168,8.168,0,0,1,1.213.092,9.053,9.053,0,0,1,1.213.268v2.145a4.383,4.383,0,0,0-1.129-.461,4.764,4.764,0,0,0-1.182-.154,2.619,2.619,0,0,0-.514.048,1.693,1.693,0,0,0-.426.141.783.783,0,0,0-.29.237.546.546,0,0,0-.105.33.609.609,0,0,0,.158.422,1.374,1.374,0,0,0,.413.3,4.078,4.078,0,0,0,.567.229q.312.1.62.207a8.056,8.056,0,0,1,1,.422,3.2,3.2,0,0,1,.769.536,2.105,2.105,0,0,1,.492.721,2.884,2.884,0,0,1-.176,2.351,2.78,2.78,0,0,1-.923.923,4.185,4.185,0,0,1-1.327.519,7.357,7.357,0,0,1-1.56.163A8.042,8.042,0,0,1,154.857,18.763ZM83.16,43.22a5.867,5.867,0,0,1-4.412-1.762,6.327,6.327,0,0,1-1.705-4.592,6.779,6.779,0,0,1,1.731-4.834,6,6,0,0,1,4.588-1.846,5.721,5.721,0,0,1,4.364,1.767,6.513,6.513,0,0,1,1.666,4.658,6.671,6.671,0,0,1-1.727,4.79A5.928,5.928,0,0,1,83.16,43.22Zm.123-10.591A2.858,2.858,0,0,0,80.91,33.75a4.672,4.672,0,0,0-.879,2.966,4.586,4.586,0,0,0,.879,2.962,3.033,3.033,0,0,0,4.632.031,4.536,4.536,0,0,0,.861-2.94,4.915,4.915,0,0,0-.835-3.05A2.722,2.722,0,0,0,83.283,32.629Zm10.74,9.325h-.035V43H91.211V29.676h2.777v5.678h.035A3.3,3.3,0,0,1,96.95,33.78a3.211,3.211,0,0,1,2.681,1.2,5.155,5.155,0,0,1,.94,3.27,5.582,5.582,0,0,1-1.1,3.612,3.579,3.579,0,0,1-2.936,1.362A2.836,2.836,0,0,1,94.023,41.954Zm-.079-3.8v.923a2.107,2.107,0,0,0,.5,1.441,1.63,1.63,0,0,0,1.283.571,1.7,1.7,0,0,0,1.472-.734,3.543,3.543,0,0,0,.523-2.079,2.819,2.819,0,0,0-.479-1.745,1.616,1.616,0,0,0-1.367-.628,1.766,1.766,0,0,0-1.384.624A2.37,2.37,0,0,0,93.944,38.157Zm7.84,4.605v-2.25a5.913,5.913,0,0,0,1.367.615,4.531,4.531,0,0,0,1.288.2,2.762,2.762,0,0,0,1.165-.2.653.653,0,0,0,.426-.615.569.569,0,0,0-.193-.439,1.8,1.8,0,0,0-.5-.308,5.635,5.635,0,0,0-.664-.237q-.36-.105-.694-.237a6.653,6.653,0,0,1-.945-.435,2.731,2.731,0,0,1-.686-.541,2.125,2.125,0,0,1-.422-.712,2.841,2.841,0,0,1-.145-.958,2.466,2.466,0,0,1,.33-1.3,2.692,2.692,0,0,1,.879-.892,4.016,4.016,0,0,1,1.257-.51,6.553,6.553,0,0,1,1.472-.163,8.168,8.168,0,0,1,1.213.092,9.053,9.053,0,0,1,1.213.268v2.145a4.383,4.383,0,0,0-1.129-.461,4.764,4.764,0,0,0-1.182-.154,2.619,2.619,0,0,0-.514.048,1.693,1.693,0,0,0-.426.141.783.783,0,0,0-.29.237.546.546,0,0,0-.105.33.609.609,0,0,0,.158.422,1.374,1.374,0,0,0,.413.3,4.078,4.078,0,0,0,.567.229q.312.1.62.207a8.056,8.056,0,0,1,1,.422,3.2,3.2,0,0,1,.769.536,2.105,2.105,0,0,1,.492.721,2.884,2.884,0,0,1-.176,2.351,2.78,2.78,0,0,1-.923.923,4.185,4.185,0,0,1-1.327.519,7.357,7.357,0,0,1-1.56.163A8.042,8.042,0,0,1,101.784,42.763Zm12.8.457a4.838,4.838,0,0,1-3.538-1.261,4.573,4.573,0,0,1-1.288-3.423,4.573,4.573,0,0,1,1.336-3.494A5.048,5.048,0,0,1,114.7,33.78a4.78,4.78,0,0,1,3.516,1.261,4.483,4.483,0,0,1,1.274,3.335,4.759,4.759,0,0,1-1.314,3.542A4.892,4.892,0,0,1,114.581,43.22Zm.07-7.312a1.852,1.852,0,0,0-1.529.677,2.984,2.984,0,0,0-.545,1.916q0,2.593,2.092,2.593,2,0,2-2.663Q116.664,35.907,114.651,35.907ZM124.073,43H121.3V29.676h2.777ZM134.5,39.291h-5.871q.141,1.96,2.47,1.96a4.822,4.822,0,0,0,2.61-.7v2a6.858,6.858,0,0,1-3.243.668,4.189,4.189,0,0,1-4.588-4.579,4.816,4.816,0,0,1,1.3-3.551,4.334,4.334,0,0,1,3.2-1.31,3.933,3.933,0,0,1,3.045,1.169,4.5,4.5,0,0,1,1.077,3.173Zm-2.575-1.705q0-1.934-1.564-1.934a1.494,1.494,0,0,0-1.156.554,2.513,2.513,0,0,0-.593,1.38Zm3.639,5.177v-2.25a5.913,5.913,0,0,0,1.367.615,4.531,4.531,0,0,0,1.288.2,2.762,2.762,0,0,0,1.165-.2.653.653,0,0,0,.426-.615.569.569,0,0,0-.193-.439,1.8,1.8,0,0,0-.5-.308,5.635,5.635,0,0,0-.664-.237q-.36-.105-.694-.237a6.653,6.653,0,0,1-.945-.435,2.731,2.731,0,0,1-.686-.541,2.125,2.125,0,0,1-.422-.712,2.841,2.841,0,0,1-.145-.958,2.466,2.466,0,0,1,.33-1.3,2.692,2.692,0,0,1,.879-.892,4.016,4.016,0,0,1,1.257-.51,6.553,6.553,0,0,1,1.472-.163,8.168,8.168,0,0,1,1.213.092,9.053,9.053,0,0,1,1.213.268v2.145a4.383,4.383,0,0,0-1.129-.461,4.764,4.764,0,0,0-1.182-.154,2.619,2.619,0,0,0-.514.048,1.693,1.693,0,0,0-.426.141.783.783,0,0,0-.29.237.546.546,0,0,0-.105.33.609.609,0,0,0,.158.422,1.374,1.374,0,0,0,.413.3,4.078,4.078,0,0,0,.567.229q.312.1.62.207a8.056,8.056,0,0,1,1,.422,3.2,3.2,0,0,1,.769.536,2.105,2.105,0,0,1,.492.721,2.884,2.884,0,0,1-.176,2.351,2.78,2.78,0,0,1-.923.923,4.185,4.185,0,0,1-1.327.519,7.357,7.357,0,0,1-1.56.163A8.042,8.042,0,0,1,135.561,42.763Zm15.328-.088a5.492,5.492,0,0,1-2.716.545,4.593,4.593,0,0,1-3.357-1.257,4.341,4.341,0,0,1-1.283-3.243,4.782,4.782,0,0,1,1.375-3.617,5.083,5.083,0,0,1,3.678-1.323,4.72,4.72,0,0,1,2.3.422v2.355a3.166,3.166,0,0,0-1.942-.65,2.559,2.559,0,0,0-1.894.7,2.607,2.607,0,0,0-.7,1.929,2.565,2.565,0,0,0,.668,1.876,2.455,2.455,0,0,0,1.837.681,3.666,3.666,0,0,0,2.03-.65Zm9.905-3.384h-5.871q.141,1.96,2.47,1.96a4.822,4.822,0,0,0,2.61-.7v2a6.858,6.858,0,0,1-3.243.668,4.189,4.189,0,0,1-4.588-4.579,4.816,4.816,0,0,1,1.3-3.551,4.334,4.334,0,0,1,3.2-1.31,3.933,3.933,0,0,1,3.045,1.169,4.5,4.5,0,0,1,1.077,3.173Zm-2.575-1.705q0-1.934-1.564-1.934a1.494,1.494,0,0,0-1.156.554,2.513,2.513,0,0,0-.593,1.38ZM171.139,43H168.37V38q0-2.092-1.494-2.092a1.483,1.483,0,0,0-1.187.554,2.109,2.109,0,0,0-.466,1.406V43h-2.777V34h2.777v1.424h.035a3.183,3.183,0,0,1,2.892-1.644q2.988,0,2.988,3.709Zm9.018-.325a5.492,5.492,0,0,1-2.716.545,4.593,4.593,0,0,1-3.357-1.257A4.341,4.341,0,0,1,172.8,38.72a4.782,4.782,0,0,1,1.375-3.617,5.083,5.083,0,0,1,3.678-1.323,4.72,4.72,0,0,1,2.3.422v2.355a3.166,3.166,0,0,0-1.942-.65,2.559,2.559,0,0,0-1.894.7,2.607,2.607,0,0,0-.7,1.929,2.565,2.565,0,0,0,.668,1.876,2.455,2.455,0,0,0,1.837.681,3.666,3.666,0,0,0,2.03-.65Zm3.226-10.1a1.622,1.622,0,0,1-1.151-.417,1.345,1.345,0,0,1-.448-1.024,1.3,1.3,0,0,1,.448-1.02,1.88,1.88,0,0,1,2.307,0,1.3,1.3,0,0,1,.444,1.02,1.34,1.34,0,0,1-.444,1.037A1.65,1.65,0,0,1,183.382,32.576ZM184.753,43h-2.777V34h2.777Zm9.826,0h-2.628V41.708h-.035a2.933,2.933,0,0,1-2.681,1.512,2.8,2.8,0,0,1-2.061-.743,2.661,2.661,0,0,1-.751-1.982q0-2.619,3.1-3.023l2.443-.325q0-1.477-1.6-1.477a5.46,5.46,0,0,0-3.059.958V34.536a6.881,6.881,0,0,1,1.586-.527,8.339,8.339,0,0,1,1.833-.229q3.85,0,3.85,3.841Zm-2.61-3.656v-.606l-1.635.211q-1.354.176-1.354,1.222a1.01,1.01,0,0,0,.33.778,1.266,1.266,0,0,0,.892.3,1.644,1.644,0,0,0,1.274-.541A1.952,1.952,0,0,0,191.969,39.344Z" transform="translate(-7333 -7781.522)" fill="#fff"/>
    <rect id="Rectángulo_35455" data-name="Rectángulo 35455" width="272" height="113.522" transform="translate(-8301 -7805.522)" fill="#17c878"/>
    <path id="Trazado_155359" data-name="Trazado 155359" d="M66.479,14.658V19H63.64V6.4h4.447q4.764,0,4.764,4.017a3.854,3.854,0,0,1-1.367,3.072,5.414,5.414,0,0,1-3.652,1.173Zm0-6.082V12.5h1.116q2.268,0,2.268-1.986,0-1.942-2.268-1.942ZM80.295,12.5a2.409,2.409,0,0,0-1.169-.272,1.684,1.684,0,0,0-1.415.664A2.9,2.9,0,0,0,77.2,14.7V19H74.424V10H77.2v1.67h.035a2.4,2.4,0,0,1,2.373-1.828,1.788,1.788,0,0,1,.686.105ZM89.6,15.291H83.731q.141,1.96,2.47,1.96a4.822,4.822,0,0,0,2.61-.7v2a6.858,6.858,0,0,1-3.243.668,4.565,4.565,0,0,1-3.384-1.208,4.566,4.566,0,0,1-1.2-3.371,4.816,4.816,0,0,1,1.3-3.551,4.334,4.334,0,0,1,3.2-1.31,3.933,3.933,0,0,1,3.045,1.169A4.5,4.5,0,0,1,89.6,14.122Zm-2.575-1.705q0-1.934-1.564-1.934a1.494,1.494,0,0,0-1.156.554,2.513,2.513,0,0,0-.593,1.38Zm11.048,5.089a5.492,5.492,0,0,1-2.716.545A4.593,4.593,0,0,1,92,17.963a4.341,4.341,0,0,1-1.283-3.243A4.782,4.782,0,0,1,92.094,11.1,5.083,5.083,0,0,1,95.772,9.78a4.72,4.72,0,0,1,2.3.422v2.355a3.166,3.166,0,0,0-1.942-.65,2.559,2.559,0,0,0-1.894.7,2.607,2.607,0,0,0-.7,1.929,2.565,2.565,0,0,0,.668,1.876,2.455,2.455,0,0,0,1.837.681,3.666,3.666,0,0,0,2.03-.65Zm3.226-10.1a1.622,1.622,0,0,1-1.151-.417A1.345,1.345,0,0,1,99.7,7.135a1.3,1.3,0,0,1,.448-1.02,1.88,1.88,0,0,1,2.307,0,1.3,1.3,0,0,1,.444,1.02,1.34,1.34,0,0,1-.444,1.037A1.65,1.65,0,0,1,101.3,8.576ZM102.672,19H99.895V10h2.777Zm6.627.22a4.838,4.838,0,0,1-3.538-1.261,4.573,4.573,0,0,1-1.288-3.423,4.573,4.573,0,0,1,1.336-3.494,5.048,5.048,0,0,1,3.612-1.261,4.78,4.78,0,0,1,3.516,1.261,4.483,4.483,0,0,1,1.274,3.335,4.759,4.759,0,0,1-1.314,3.542A4.892,4.892,0,0,1,109.3,19.22Zm.07-7.312a1.852,1.852,0,0,0-1.529.677,2.984,2.984,0,0,0-.545,1.916q0,2.593,2.092,2.593,2,0,2-2.663Q111.382,11.907,109.369,11.907ZM129.786,19h-2.777V17.761h-.035a3.114,3.114,0,0,1-2.786,1.459,3.412,3.412,0,0,1-2.716-1.191,4.93,4.93,0,0,1-1.028-3.327,5.366,5.366,0,0,1,1.134-3.577,3.7,3.7,0,0,1,2.971-1.345,2.527,2.527,0,0,1,2.426,1.248h.035V5.676h2.777Zm-2.725-4.377v-.677a2.13,2.13,0,0,0-.51-1.459,1.8,1.8,0,0,0-2.769.145,3.367,3.367,0,0,0-.519,1.991,2.914,2.914,0,0,0,.5,1.828,1.779,1.779,0,0,0,2.764-.035A2.821,2.821,0,0,0,127.062,14.623Zm13.148.668h-5.871q.141,1.96,2.47,1.96a4.822,4.822,0,0,0,2.61-.7v2a6.858,6.858,0,0,1-3.243.668,4.565,4.565,0,0,1-3.384-1.208,4.566,4.566,0,0,1-1.2-3.371,4.816,4.816,0,0,1,1.3-3.551,4.334,4.334,0,0,1,3.2-1.31,3.933,3.933,0,0,1,3.045,1.169,4.5,4.5,0,0,1,1.077,3.173Zm-2.575-1.705q0-1.934-1.564-1.934a1.494,1.494,0,0,0-1.156.554,2.513,2.513,0,0,0-.593,1.38Zm16.014,5.089a5.492,5.492,0,0,1-2.716.545,4.593,4.593,0,0,1-3.357-1.257,4.341,4.341,0,0,1-1.283-3.243,4.782,4.782,0,0,1,1.375-3.617,5.083,5.083,0,0,1,3.678-1.323,4.72,4.72,0,0,1,2.3.422v2.355a3.166,3.166,0,0,0-1.942-.65,2.559,2.559,0,0,0-1.894.7,2.607,2.607,0,0,0-.7,1.929,2.565,2.565,0,0,0,.668,1.876,2.455,2.455,0,0,0,1.837.681,3.666,3.666,0,0,0,2.03-.65Zm6.108.545a4.838,4.838,0,0,1-3.538-1.261,4.573,4.573,0,0,1-1.288-3.423,4.573,4.573,0,0,1,1.336-3.494A5.048,5.048,0,0,1,159.88,9.78a4.78,4.78,0,0,1,3.516,1.261,4.483,4.483,0,0,1,1.274,3.335,4.759,4.759,0,0,1-1.314,3.542A4.892,4.892,0,0,1,159.757,19.22Zm.07-7.312a1.852,1.852,0,0,0-1.529.677,2.984,2.984,0,0,0-.545,1.916q0,2.593,2.092,2.593,2,0,2-2.663Q161.84,11.907,159.827,11.907ZM180.763,19h-2.769V13.867q0-1.96-1.441-1.96a1.324,1.324,0,0,0-1.116.589,2.42,2.42,0,0,0-.431,1.468V19h-2.777V13.814q0-1.907-1.415-1.907a1.356,1.356,0,0,0-1.138.563A2.475,2.475,0,0,0,169.249,14v5h-2.777V10h2.777v1.406h.035a3.41,3.41,0,0,1,2.909-1.626,2.592,2.592,0,0,1,2.61,1.679,3.329,3.329,0,0,1,3.023-1.679q2.936,0,2.936,3.621Zm5.01-1.046h-.035V23.14H182.96V10h2.777v1.354h.035a3.534,3.534,0,0,1,5.594-.374,5.108,5.108,0,0,1,.954,3.265,5.537,5.537,0,0,1-1.112,3.612,3.625,3.625,0,0,1-2.958,1.362A2.8,2.8,0,0,1,185.772,17.954Zm-.079-3.691v.721a2.291,2.291,0,0,0,.492,1.521,1.6,1.6,0,0,0,1.292.589,1.7,1.7,0,0,0,1.472-.734,3.543,3.543,0,0,0,.523-2.079q0-2.373-1.846-2.373a1.733,1.733,0,0,0-1.393.646A2.576,2.576,0,0,0,185.693,14.263Zm14.3-1.758a2.409,2.409,0,0,0-1.169-.272,1.684,1.684,0,0,0-1.415.664,2.9,2.9,0,0,0-.51,1.806V19h-2.777V10H196.9v1.67h.035a2.4,2.4,0,0,1,2.373-1.828,1.788,1.788,0,0,1,.686.105Zm8.78,6.5h-2.628V17.708h-.035a2.933,2.933,0,0,1-2.681,1.512,2.8,2.8,0,0,1-2.061-.743,2.661,2.661,0,0,1-.751-1.982q0-2.619,3.1-3.023l2.443-.325q0-1.477-1.6-1.477a5.46,5.46,0,0,0-3.059.958V10.536a6.881,6.881,0,0,1,1.586-.527,8.339,8.339,0,0,1,1.833-.229q3.85,0,3.85,3.841Zm-2.61-3.656v-.606l-1.635.211q-1.354.176-1.354,1.222a1.01,1.01,0,0,0,.33.778,1.266,1.266,0,0,0,.892.3,1.644,1.644,0,0,0,1.274-.541A1.952,1.952,0,0,0,206.163,15.344ZM89.954,39.168H85.146V37.226h4.808ZM92.608,43V30.4h4.465q6.715,0,6.715,6.144a6.212,6.212,0,0,1-1.833,4.7A6.757,6.757,0,0,1,97.073,43Zm2.839-10.292V40.7h1.406a3.8,3.8,0,0,0,2.9-1.107,4.2,4.2,0,0,0,1.05-3.015,3.812,3.812,0,0,0-1.042-2.834,3.971,3.971,0,0,0-2.922-1.033Zm18.246,6.583h-5.871q.141,1.96,2.47,1.96a4.822,4.822,0,0,0,2.61-.7v2a6.858,6.858,0,0,1-3.243.668,4.189,4.189,0,0,1-4.588-4.579,4.816,4.816,0,0,1,1.3-3.551,4.334,4.334,0,0,1,3.2-1.31,3.933,3.933,0,0,1,3.045,1.169,4.5,4.5,0,0,1,1.077,3.173Zm-2.575-1.705q0-1.934-1.564-1.934a1.494,1.494,0,0,0-1.156.554,2.513,2.513,0,0,0-.593,1.38Zm3.639,5.177v-2.25a5.913,5.913,0,0,0,1.367.615,4.531,4.531,0,0,0,1.288.2,2.762,2.762,0,0,0,1.165-.2.653.653,0,0,0,.426-.615.569.569,0,0,0-.193-.439,1.8,1.8,0,0,0-.5-.308,5.635,5.635,0,0,0-.664-.237q-.36-.105-.694-.237a6.653,6.653,0,0,1-.945-.435,2.731,2.731,0,0,1-.686-.541,2.125,2.125,0,0,1-.422-.712,2.841,2.841,0,0,1-.145-.958,2.466,2.466,0,0,1,.33-1.3,2.692,2.692,0,0,1,.879-.892,4.016,4.016,0,0,1,1.257-.51,6.553,6.553,0,0,1,1.472-.163,8.168,8.168,0,0,1,1.213.092,9.053,9.053,0,0,1,1.213.268v2.145a4.383,4.383,0,0,0-1.129-.461,4.764,4.764,0,0,0-1.182-.154,2.619,2.619,0,0,0-.514.048,1.693,1.693,0,0,0-.426.141.783.783,0,0,0-.29.237.546.546,0,0,0-.105.33.609.609,0,0,0,.158.422,1.374,1.374,0,0,0,.413.3,4.078,4.078,0,0,0,.567.229q.312.1.62.207a8.056,8.056,0,0,1,1,.422,3.2,3.2,0,0,1,.769.536,2.105,2.105,0,0,1,.492.721,2.884,2.884,0,0,1-.176,2.351,2.78,2.78,0,0,1-.923.923,4.185,4.185,0,0,1-1.327.519,7.357,7.357,0,0,1-1.56.163A8.042,8.042,0,0,1,114.757,42.763Zm15.328-.088a5.492,5.492,0,0,1-2.716.545,4.593,4.593,0,0,1-3.357-1.257,4.341,4.341,0,0,1-1.283-3.243A4.782,4.782,0,0,1,124.1,35.1a5.083,5.083,0,0,1,3.678-1.323,4.72,4.72,0,0,1,2.3.422v2.355a3.166,3.166,0,0,0-1.942-.65,2.559,2.559,0,0,0-1.894.7,2.607,2.607,0,0,0-.7,1.929,2.565,2.565,0,0,0,.668,1.876,2.455,2.455,0,0,0,1.837.681,3.666,3.666,0,0,0,2.03-.65ZM140.456,43h-2.769V41.629h-.044a3.141,3.141,0,0,1-2.751,1.591q-3.129,0-3.129-3.788V34h2.769v5.186q0,1.907,1.512,1.907a1.5,1.5,0,0,0,1.2-.523,2.109,2.109,0,0,0,.448-1.419V34h2.769Zm10.424-3.709h-5.871q.141,1.96,2.47,1.96a4.822,4.822,0,0,0,2.61-.7v2a6.858,6.858,0,0,1-3.243.668,4.189,4.189,0,0,1-4.588-4.579,4.816,4.816,0,0,1,1.3-3.551,4.334,4.334,0,0,1,3.2-1.31,3.933,3.933,0,0,1,3.045,1.169,4.5,4.5,0,0,1,1.077,3.173ZM148.3,37.586q0-1.934-1.564-1.934a1.494,1.494,0,0,0-1.156.554,2.513,2.513,0,0,0-.593,1.38ZM161.225,43h-2.769V38q0-2.092-1.494-2.092a1.483,1.483,0,0,0-1.187.554,2.109,2.109,0,0,0-.466,1.406V43h-2.777V34h2.777v1.424h.035a3.183,3.183,0,0,1,2.892-1.644q2.988,0,2.988,3.709Zm7.638-.105a4.105,4.105,0,0,1-1.854.325q-2.936,0-2.936-3.05V36.048h-1.459V34h1.459V32.058l2.769-.791V34h2.021v2.048h-2.021v3.639q0,1.406,1.116,1.406a1.882,1.882,0,0,0,.905-.255Zm5.783.325a4.838,4.838,0,0,1-3.538-1.261,4.573,4.573,0,0,1-1.288-3.423,4.573,4.573,0,0,1,1.336-3.494,5.048,5.048,0,0,1,3.612-1.261,4.78,4.78,0,0,1,3.516,1.261,4.483,4.483,0,0,1,1.274,3.335,4.759,4.759,0,0,1-1.314,3.542A4.892,4.892,0,0,1,174.646,43.22Zm.07-7.312a1.852,1.852,0,0,0-1.529.677,2.984,2.984,0,0,0-.545,1.916q0,2.593,2.092,2.593,2,0,2-2.663Q176.729,35.907,174.716,35.907Zm6.056,6.855v-2.25a5.913,5.913,0,0,0,1.367.615,4.531,4.531,0,0,0,1.288.2,2.762,2.762,0,0,0,1.165-.2.653.653,0,0,0,.426-.615.569.569,0,0,0-.193-.439,1.8,1.8,0,0,0-.5-.308,5.635,5.635,0,0,0-.664-.237q-.36-.105-.694-.237a6.653,6.653,0,0,1-.945-.435,2.731,2.731,0,0,1-.686-.541,2.125,2.125,0,0,1-.422-.712,2.841,2.841,0,0,1-.145-.958,2.466,2.466,0,0,1,.33-1.3,2.692,2.692,0,0,1,.879-.892,4.016,4.016,0,0,1,1.257-.51,6.553,6.553,0,0,1,1.472-.163,8.168,8.168,0,0,1,1.213.092,9.053,9.053,0,0,1,1.213.268v2.145a4.383,4.383,0,0,0-1.129-.461,4.764,4.764,0,0,0-1.182-.154,2.619,2.619,0,0,0-.514.048,1.693,1.693,0,0,0-.426.141.783.783,0,0,0-.29.237.546.546,0,0,0-.105.33.609.609,0,0,0,.158.422,1.374,1.374,0,0,0,.413.3,4.078,4.078,0,0,0,.567.229q.312.1.62.207a8.056,8.056,0,0,1,1,.422,3.2,3.2,0,0,1,.769.536,2.105,2.105,0,0,1,.492.721,2.884,2.884,0,0,1-.176,2.351,2.78,2.78,0,0,1-.923.923,4.185,4.185,0,0,1-1.327.519,7.357,7.357,0,0,1-1.56.163A8.042,8.042,0,0,1,180.771,42.763ZM94.6,62.737H91.22v3.384H89.444V62.737h-3.4V60.953h3.4v-3.4H91.22v3.4H94.6Zm12.366-6.029h-3.595V67h-2.848V56.708H96.95V54.4h10.02Zm5.941,3.8a2.409,2.409,0,0,0-1.169-.272,1.684,1.684,0,0,0-1.415.664,2.9,2.9,0,0,0-.51,1.806V67H107.04V58h2.777v1.67h.035a2.4,2.4,0,0,1,2.373-1.828,1.788,1.788,0,0,1,.686.105Zm8.78,6.5h-2.628V65.708h-.035a2.933,2.933,0,0,1-2.681,1.512,2.8,2.8,0,0,1-2.061-.743,2.661,2.661,0,0,1-.751-1.982q0-2.619,3.1-3.023l2.443-.325q0-1.477-1.6-1.477a5.46,5.46,0,0,0-3.059.958V58.536a6.881,6.881,0,0,1,1.586-.527,8.339,8.339,0,0,1,1.833-.229q3.85,0,3.85,3.841Zm-2.61-3.656v-.606l-1.635.211q-1.354.176-1.354,1.222a1.01,1.01,0,0,0,.33.778,1.266,1.266,0,0,0,.892.3,1.644,1.644,0,0,0,1.274-.541A1.952,1.952,0,0,0,119.081,63.344ZM132.581,67h-2.769V62q0-2.092-1.494-2.092a1.483,1.483,0,0,0-1.187.554,2.109,2.109,0,0,0-.466,1.406V67h-2.777V58h2.777v1.424h.035a3.183,3.183,0,0,1,2.892-1.644q2.988,0,2.988,3.709Zm1.608-.237v-2.25a5.913,5.913,0,0,0,1.367.615,4.531,4.531,0,0,0,1.288.2,2.762,2.762,0,0,0,1.165-.2.653.653,0,0,0,.426-.615.569.569,0,0,0-.193-.439,1.8,1.8,0,0,0-.5-.308,5.635,5.635,0,0,0-.664-.237q-.36-.105-.694-.237a6.653,6.653,0,0,1-.945-.435,2.731,2.731,0,0,1-.686-.541,2.125,2.125,0,0,1-.422-.712,2.841,2.841,0,0,1-.145-.958,2.466,2.466,0,0,1,.33-1.3,2.692,2.692,0,0,1,.879-.892,4.016,4.016,0,0,1,1.257-.51,6.553,6.553,0,0,1,1.472-.163,8.168,8.168,0,0,1,1.213.092,9.053,9.053,0,0,1,1.213.268v2.145a4.383,4.383,0,0,0-1.129-.461,4.764,4.764,0,0,0-1.182-.154,2.619,2.619,0,0,0-.514.048,1.693,1.693,0,0,0-.426.141.783.783,0,0,0-.29.237.546.546,0,0,0-.105.33.609.609,0,0,0,.158.422,1.374,1.374,0,0,0,.413.3,4.078,4.078,0,0,0,.567.229q.312.1.62.207a8.056,8.056,0,0,1,1,.422,3.2,3.2,0,0,1,.769.536,2.105,2.105,0,0,1,.492.721,2.884,2.884,0,0,1-.176,2.351,2.78,2.78,0,0,1-.923.923,4.185,4.185,0,0,1-1.327.519,7.357,7.357,0,0,1-1.56.163A8.042,8.042,0,0,1,134.189,66.763Zm11.32-.809h-.035V71.14H142.7V58h2.777v1.354h.035a3.534,3.534,0,0,1,5.594-.374,5.108,5.108,0,0,1,.954,3.265,5.537,5.537,0,0,1-1.112,3.612,3.625,3.625,0,0,1-2.958,1.362A2.8,2.8,0,0,1,145.51,65.954Zm-.079-3.691v.721a2.291,2.291,0,0,0,.492,1.521,1.6,1.6,0,0,0,1.292.589,1.7,1.7,0,0,0,1.472-.734,3.543,3.543,0,0,0,.523-2.079q0-2.373-1.846-2.373a1.733,1.733,0,0,0-1.393.646A2.576,2.576,0,0,0,145.431,62.263Zm12.718,4.957a4.838,4.838,0,0,1-3.538-1.261,5.216,5.216,0,0,1,.048-6.917,5.048,5.048,0,0,1,3.612-1.261,4.78,4.78,0,0,1,3.516,1.261,4.483,4.483,0,0,1,1.274,3.335,4.759,4.759,0,0,1-1.314,3.542A4.892,4.892,0,0,1,158.148,67.22Zm.07-7.312a1.852,1.852,0,0,0-1.529.677,2.984,2.984,0,0,0-.545,1.916q0,2.593,2.092,2.593,2,0,2-2.663Q160.231,59.907,158.219,59.907Zm12.516.6a2.409,2.409,0,0,0-1.169-.272,1.684,1.684,0,0,0-1.415.664,2.9,2.9,0,0,0-.51,1.806V67h-2.777V58h2.777v1.67h.035a2.4,2.4,0,0,1,2.373-1.828,1.788,1.788,0,0,1,.686.105Zm7.251,6.39a4.105,4.105,0,0,1-1.854.325q-2.936,0-2.936-3.05V60.048h-1.459V58H173.2V56.058l2.769-.791V58h2.021v2.048h-2.021v3.639q0,1.406,1.116,1.406a1.882,1.882,0,0,0,.905-.255Zm9.58-3.6h-5.871q.141,1.96,2.47,1.96a4.822,4.822,0,0,0,2.61-.7v2a6.858,6.858,0,0,1-3.243.668,4.189,4.189,0,0,1-4.588-4.579,4.816,4.816,0,0,1,1.3-3.551,4.334,4.334,0,0,1,3.2-1.31,3.933,3.933,0,0,1,3.045,1.169,4.5,4.5,0,0,1,1.077,3.173Zm-2.575-1.705q0-1.934-1.564-1.934a1.494,1.494,0,0,0-1.156.554,2.513,2.513,0,0,0-.593,1.38Z" transform="translate(-8301 -7781.522)" fill="#fff"/>
    <line id="Línea_175" data-name="Línea 175" x2="25.535" transform="translate(-8165.151 -7831.017) rotate(90)" fill="none" stroke="#29c77b" stroke-width="3"/>
    <line id="Línea_176" data-name="Línea 176" x2="25.535" transform="translate(-7196.849 -7831.017) rotate(90)" fill="none" stroke="#29c77b" stroke-width="3"/>
  </g>
</svg>
