<svg xmlns="http://www.w3.org/2000/svg" width="1240" height="221" viewBox="0 0 1240 221">
  <g id="Grupo_97014" data-name="Grupo 97014" transform="translate(-179.591 -1499)">
    <rect id="Rectángulo_35451" data-name="Rectángulo 35451" width="216" height="90" transform="translate(179.591 1499)" fill="#eef0f2"/>
    <path id="Trazado_155371" data-name="Trazado 155371" d="M68.858,19H66.019V6.4h2.839Zm11.285,0H77.375V14q0-2.092-1.494-2.092a1.483,1.483,0,0,0-1.187.554,2.109,2.109,0,0,0-.466,1.406V19H71.451V10h2.777v1.424h.035A3.183,3.183,0,0,1,77.155,9.78q2.988,0,2.988,3.709ZM90.91,10l-3.349,9H84.4l-3.19-9h2.971l1.564,5.546a8.1,8.1,0,0,1,.308,1.6h.035A9.078,9.078,0,0,1,86.41,15.6l1.6-5.6Zm9.1,5.291H94.135q.141,1.96,2.47,1.96a4.822,4.822,0,0,0,2.61-.7v2a6.858,6.858,0,0,1-3.243.668,4.565,4.565,0,0,1-3.384-1.208,4.566,4.566,0,0,1-1.2-3.371,4.816,4.816,0,0,1,1.3-3.551,4.334,4.334,0,0,1,3.2-1.31,3.933,3.933,0,0,1,3.045,1.169,4.5,4.5,0,0,1,1.077,3.173Zm-2.575-1.705q0-1.934-1.564-1.934a1.494,1.494,0,0,0-1.156.554,2.513,2.513,0,0,0-.593,1.38ZM110.351,19h-2.769V14q0-2.092-1.494-2.092a1.483,1.483,0,0,0-1.187.554,2.109,2.109,0,0,0-.466,1.406V19h-2.777V10h2.777v1.424h.035a3.183,3.183,0,0,1,2.892-1.644q2.988,0,2.988,3.709Zm7.638-.105a4.105,4.105,0,0,1-1.854.325q-2.936,0-2.936-3.05V12.048H111.74V10H113.2V8.058l2.769-.791V10h2.021v2.048h-2.021v3.639q0,1.406,1.116,1.406a1.882,1.882,0,0,0,.905-.255Zm9.053.105h-2.628V17.708h-.035A2.933,2.933,0,0,1,121.7,19.22a2.8,2.8,0,0,1-2.061-.743,2.661,2.661,0,0,1-.751-1.982q0-2.619,3.1-3.023l2.443-.325q0-1.477-1.6-1.477a5.46,5.46,0,0,0-3.059.958V10.536a6.881,6.881,0,0,1,1.586-.527,8.339,8.339,0,0,1,1.833-.229q3.85,0,3.85,3.841Zm-2.61-3.656v-.606l-1.635.211q-1.354.176-1.354,1.222a1.01,1.01,0,0,0,.33.778,1.266,1.266,0,0,0,.892.3,1.644,1.644,0,0,0,1.274-.541A1.952,1.952,0,0,0,124.431,15.344ZM135.11,12.5a2.409,2.409,0,0,0-1.169-.272,1.684,1.684,0,0,0-1.415.664,2.9,2.9,0,0,0-.51,1.806V19h-2.777V10h2.777v1.67h.035a2.4,2.4,0,0,1,2.373-1.828,1.788,1.788,0,0,1,.686.105Zm2.769-3.929a1.622,1.622,0,0,1-1.151-.417,1.345,1.345,0,0,1-.448-1.024,1.3,1.3,0,0,1,.448-1.02,1.88,1.88,0,0,1,2.307,0,1.3,1.3,0,0,1,.444,1.02,1.34,1.34,0,0,1-.444,1.037A1.65,1.65,0,0,1,137.878,8.576ZM139.25,19h-2.777V10h2.777Zm6.627.22a4.838,4.838,0,0,1-3.538-1.261,4.573,4.573,0,0,1-1.288-3.423,4.573,4.573,0,0,1,1.336-3.494A5.048,5.048,0,0,1,146,9.78a4.78,4.78,0,0,1,3.516,1.261,4.483,4.483,0,0,1,1.274,3.335,4.759,4.759,0,0,1-1.314,3.542A4.892,4.892,0,0,1,145.876,19.22Zm.07-7.312a1.852,1.852,0,0,0-1.529.677,2.984,2.984,0,0,0-.545,1.916q0,2.593,2.092,2.593,2,0,2-2.663Q147.959,11.907,145.947,11.907ZM63.694,43H60.926V37.867q0-1.96-1.441-1.96a1.324,1.324,0,0,0-1.116.589,2.42,2.42,0,0,0-.431,1.468V43H55.16V37.814q0-1.907-1.415-1.907a1.356,1.356,0,0,0-1.138.563A2.475,2.475,0,0,0,52.181,38v5H49.4V34h2.777v1.406h.035a3.41,3.41,0,0,1,2.909-1.626,2.592,2.592,0,0,1,2.61,1.679,3.329,3.329,0,0,1,3.023-1.679q2.936,0,2.936,3.621Zm9.686,0H70.752V41.708h-.035a2.933,2.933,0,0,1-2.681,1.512,2.8,2.8,0,0,1-2.061-.743,2.661,2.661,0,0,1-.751-1.982q0-2.619,3.1-3.023l2.443-.325q0-1.477-1.6-1.477a5.46,5.46,0,0,0-3.059.958V34.536a6.881,6.881,0,0,1,1.586-.527,8.339,8.339,0,0,1,1.833-.229q3.85,0,3.85,3.841Zm-2.61-3.656v-.606l-1.635.211q-1.354.176-1.354,1.222a1.01,1.01,0,0,0,.33.778,1.266,1.266,0,0,0,.892.3,1.644,1.644,0,0,0,1.274-.541A1.952,1.952,0,0,0,70.77,39.344Zm10.248,3.551a4.105,4.105,0,0,1-1.854.325q-2.936,0-2.936-3.05V36.048H74.769V34h1.459V32.058L79,31.267V34h2.021v2.048H79v3.639q0,1.406,1.116,1.406a1.882,1.882,0,0,0,.905-.255Zm9.58-3.6H84.727q.141,1.96,2.47,1.96a4.822,4.822,0,0,0,2.61-.7v2a6.858,6.858,0,0,1-3.243.668,4.189,4.189,0,0,1-4.588-4.579,4.816,4.816,0,0,1,1.3-3.551,4.334,4.334,0,0,1,3.2-1.31,3.933,3.933,0,0,1,3.045,1.169A4.5,4.5,0,0,1,90.6,38.122Zm-2.575-1.705q0-1.934-1.564-1.934a1.494,1.494,0,0,0-1.156.554,2.513,2.513,0,0,0-.593,1.38Zm10.1-1.081a2.409,2.409,0,0,0-1.169-.272,1.684,1.684,0,0,0-1.415.664,2.9,2.9,0,0,0-.51,1.806V43H92.25V34h2.777v1.67h.035a2.4,2.4,0,0,1,2.373-1.828,1.788,1.788,0,0,1,.686.105Zm2.769-3.929a1.622,1.622,0,0,1-1.151-.417,1.345,1.345,0,0,1-.448-1.024,1.3,1.3,0,0,1,.448-1.02,1.88,1.88,0,0,1,2.307,0,1.3,1.3,0,0,1,.444,1.02,1.34,1.34,0,0,1-.444,1.037A1.65,1.65,0,0,1,100.89,32.576ZM102.261,43H99.483V34h2.777Zm9.826,0h-2.628V41.708h-.035a2.933,2.933,0,0,1-2.681,1.512,2.8,2.8,0,0,1-2.061-.743,2.661,2.661,0,0,1-.751-1.982q0-2.619,3.1-3.023l2.443-.325q0-1.477-1.6-1.477a5.46,5.46,0,0,0-3.059.958V34.536a6.881,6.881,0,0,1,1.586-.527,8.339,8.339,0,0,1,1.833-.229q3.85,0,3.85,3.841Zm-2.61-3.656v-.606l-1.635.211q-1.354.176-1.354,1.222a1.01,1.01,0,0,0,.33.778,1.266,1.266,0,0,0,.892.3,1.644,1.644,0,0,0,1.274-.541A1.952,1.952,0,0,0,109.477,39.344Zm12.586,2.61h-.035V47.14H119.25V34h2.777v1.354h.035a3.534,3.534,0,0,1,5.594-.374,5.108,5.108,0,0,1,.954,3.265,5.537,5.537,0,0,1-1.112,3.612,3.625,3.625,0,0,1-2.958,1.362A2.8,2.8,0,0,1,122.063,41.954Zm-.079-3.691v.721a2.291,2.291,0,0,0,.492,1.521,1.6,1.6,0,0,0,1.292.589,1.7,1.7,0,0,0,1.472-.734,3.543,3.543,0,0,0,.523-2.079q0-2.373-1.846-2.373a1.733,1.733,0,0,0-1.393.646A2.576,2.576,0,0,0,121.983,38.263Zm14.3-1.758a2.409,2.409,0,0,0-1.169-.272,1.684,1.684,0,0,0-1.415.664,2.9,2.9,0,0,0-.51,1.806V43h-2.777V34h2.777v1.67h.035a2.4,2.4,0,0,1,2.373-1.828,1.788,1.788,0,0,1,.686.105Zm2.769-3.929a1.622,1.622,0,0,1-1.151-.417,1.345,1.345,0,0,1-.448-1.024,1.3,1.3,0,0,1,.448-1.02,1.88,1.88,0,0,1,2.307,0,1.3,1.3,0,0,1,.444,1.02,1.34,1.34,0,0,1-.444,1.037A1.65,1.65,0,0,1,139.052,32.576ZM140.423,43h-2.777V34h2.777Zm16.629,0h-2.769V37.867q0-1.96-1.441-1.96a1.324,1.324,0,0,0-1.116.589,2.42,2.42,0,0,0-.431,1.468V43h-2.777V37.814q0-1.907-1.415-1.907a1.356,1.356,0,0,0-1.138.563A2.475,2.475,0,0,0,145.538,38v5h-2.777V34h2.777v1.406h.035a3.41,3.41,0,0,1,2.909-1.626,2.592,2.592,0,0,1,2.61,1.679,3.329,3.329,0,0,1,3.023-1.679q2.936,0,2.936,3.621Zm9.686,0h-2.628V41.708h-.035a2.933,2.933,0,0,1-2.681,1.512,2.8,2.8,0,0,1-2.061-.743,2.661,2.661,0,0,1-.751-1.982q0-2.619,3.1-3.023l2.443-.325q0-1.477-1.6-1.477a5.46,5.46,0,0,0-3.059.958V34.536a6.881,6.881,0,0,1,1.586-.527,8.339,8.339,0,0,1,1.833-.229q3.85,0,3.85,3.841Zm-2.61-3.656v-.606l-1.635.211q-1.354.176-1.354,1.222a1.01,1.01,0,0,0,.33.778,1.266,1.266,0,0,0,.892.3,1.644,1.644,0,0,0,1.274-.541A1.952,1.952,0,0,0,164.127,39.344Z" transform="translate(179.591 1523)" fill="#00223d"/>
    <rect id="Rectángulo_35452" data-name="Rectángulo 35452" width="271.697" height="90" transform="translate(825.532 1630)" fill="#17c878"/>
    <path id="Trazado_155376" data-name="Trazado 155376" d="M74.039,18.552a8.311,8.311,0,0,1-3.6.668,6.074,6.074,0,0,1-4.562-1.705,6.233,6.233,0,0,1-1.661-4.544,6.659,6.659,0,0,1,1.868-4.9,6.533,6.533,0,0,1,4.847-1.881,9.065,9.065,0,0,1,3.111.466V9.385a5.513,5.513,0,0,0-2.883-.756,3.824,3.824,0,0,0-2.865,1.116,4.142,4.142,0,0,0-1.09,3.023,4.062,4.062,0,0,0,1.028,2.914A3.633,3.633,0,0,0,71,16.768a5.905,5.905,0,0,0,3.041-.809Zm6.214.668a4.838,4.838,0,0,1-3.538-1.261,4.573,4.573,0,0,1-1.288-3.423,4.573,4.573,0,0,1,1.336-3.494A5.048,5.048,0,0,1,80.376,9.78a4.78,4.78,0,0,1,3.516,1.261,4.483,4.483,0,0,1,1.274,3.335,4.759,4.759,0,0,1-1.314,3.542A4.892,4.892,0,0,1,80.253,19.22Zm.07-7.312a1.852,1.852,0,0,0-1.529.677,2.984,2.984,0,0,0-.545,1.916q0,2.593,2.092,2.593,2,0,2-2.663Q82.336,11.907,80.324,11.907Zm6.056,6.855v-2.25a5.913,5.913,0,0,0,1.367.615,4.531,4.531,0,0,0,1.288.2,2.762,2.762,0,0,0,1.165-.2.653.653,0,0,0,.426-.615.569.569,0,0,0-.193-.439,1.8,1.8,0,0,0-.5-.308,5.635,5.635,0,0,0-.664-.237q-.36-.105-.694-.237a6.653,6.653,0,0,1-.945-.435,2.731,2.731,0,0,1-.686-.541,2.125,2.125,0,0,1-.422-.712,2.841,2.841,0,0,1-.145-.958,2.466,2.466,0,0,1,.33-1.3,2.692,2.692,0,0,1,.879-.892,4.016,4.016,0,0,1,1.257-.51,6.553,6.553,0,0,1,1.472-.163,8.168,8.168,0,0,1,1.213.092,9.053,9.053,0,0,1,1.213.268v2.145a4.383,4.383,0,0,0-1.129-.461,4.764,4.764,0,0,0-1.182-.154,2.619,2.619,0,0,0-.514.048,1.693,1.693,0,0,0-.426.141.783.783,0,0,0-.29.237.546.546,0,0,0-.105.33.609.609,0,0,0,.158.422,1.374,1.374,0,0,0,.413.3,4.078,4.078,0,0,0,.567.229q.312.1.62.207a8.056,8.056,0,0,1,1,.422,3.2,3.2,0,0,1,.769.536,2.105,2.105,0,0,1,.492.721,2.884,2.884,0,0,1-.176,2.351,2.78,2.78,0,0,1-.923.923,4.185,4.185,0,0,1-1.327.519,7.357,7.357,0,0,1-1.56.163A8.042,8.042,0,0,1,86.379,18.763Zm13.948.132a4.105,4.105,0,0,1-1.854.325q-2.936,0-2.936-3.05V12.048H94.078V10h1.459V8.058l2.769-.791V10h2.021v2.048H98.306v3.639q0,1.406,1.116,1.406a1.882,1.882,0,0,0,.905-.255Zm5.783.325a4.838,4.838,0,0,1-3.538-1.261,4.573,4.573,0,0,1-1.288-3.423,4.573,4.573,0,0,1,1.336-3.494,5.048,5.048,0,0,1,3.612-1.261,4.78,4.78,0,0,1,3.516,1.261,4.483,4.483,0,0,1,1.274,3.335,4.759,4.759,0,0,1-1.314,3.542A4.892,4.892,0,0,1,106.111,19.22Zm.07-7.312a1.852,1.852,0,0,0-1.529.677,2.984,2.984,0,0,0-.545,1.916q0,2.593,2.092,2.593,2,0,2-2.663Q108.194,11.907,106.181,11.907Zm6.056,6.855v-2.25a5.913,5.913,0,0,0,1.367.615,4.531,4.531,0,0,0,1.288.2,2.762,2.762,0,0,0,1.165-.2.653.653,0,0,0,.426-.615.569.569,0,0,0-.193-.439,1.8,1.8,0,0,0-.5-.308,5.635,5.635,0,0,0-.664-.237q-.36-.105-.694-.237a6.653,6.653,0,0,1-.945-.435,2.731,2.731,0,0,1-.686-.541,2.125,2.125,0,0,1-.422-.712,2.841,2.841,0,0,1-.145-.958,2.466,2.466,0,0,1,.33-1.3,2.692,2.692,0,0,1,.879-.892,4.016,4.016,0,0,1,1.257-.51,6.553,6.553,0,0,1,1.472-.163,8.168,8.168,0,0,1,1.213.092,9.053,9.053,0,0,1,1.213.268v2.145a4.383,4.383,0,0,0-1.129-.461,4.764,4.764,0,0,0-1.182-.154,2.619,2.619,0,0,0-.514.048,1.693,1.693,0,0,0-.426.141.783.783,0,0,0-.29.237.546.546,0,0,0-.105.33.609.609,0,0,0,.158.422,1.374,1.374,0,0,0,.413.3,4.078,4.078,0,0,0,.567.229q.312.1.62.207a8.056,8.056,0,0,1,1,.422,3.2,3.2,0,0,1,.769.536,2.105,2.105,0,0,1,.492.721,2.884,2.884,0,0,1-.176,2.351,2.78,2.78,0,0,1-.923.923,4.185,4.185,0,0,1-1.327.519,7.357,7.357,0,0,1-1.56.163A8.042,8.042,0,0,1,112.237,18.763Zm14.88-10.187a1.622,1.622,0,0,1-1.151-.417,1.345,1.345,0,0,1-.448-1.024,1.3,1.3,0,0,1,.448-1.02,1.88,1.88,0,0,1,2.307,0,1.3,1.3,0,0,1,.444,1.02,1.34,1.34,0,0,1-.444,1.037A1.65,1.65,0,0,1,127.117,8.576ZM128.488,19H125.71V10h2.777Zm11.03,0h-2.769V14q0-2.092-1.494-2.092a1.483,1.483,0,0,0-1.187.554,2.109,2.109,0,0,0-.466,1.406V19h-2.777V10H133.6v1.424h.035A3.183,3.183,0,0,1,136.53,9.78q2.988,0,2.988,3.709Zm11,0h-2.777V17.761h-.035a3.114,3.114,0,0,1-2.786,1.459,3.412,3.412,0,0,1-2.716-1.191,4.93,4.93,0,0,1-1.028-3.327,5.366,5.366,0,0,1,1.134-3.577,3.7,3.7,0,0,1,2.971-1.345,2.527,2.527,0,0,1,2.426,1.248h.035V5.676h2.777ZM147.8,14.623v-.677a2.13,2.13,0,0,0-.51-1.459,1.8,1.8,0,0,0-2.769.145A3.367,3.367,0,0,0,144,14.623a2.914,2.914,0,0,0,.5,1.828,1.779,1.779,0,0,0,2.764-.035A2.821,2.821,0,0,0,147.8,14.623Zm6.469-6.047a1.622,1.622,0,0,1-1.151-.417,1.345,1.345,0,0,1-.448-1.024,1.3,1.3,0,0,1,.448-1.02,1.88,1.88,0,0,1,2.307,0,1.3,1.3,0,0,1,.444,1.02,1.34,1.34,0,0,1-.444,1.037A1.65,1.65,0,0,1,154.266,8.576ZM155.637,19H152.86V10h2.777Zm8.209-6.5a2.409,2.409,0,0,0-1.169-.272,1.684,1.684,0,0,0-1.415.664,2.9,2.9,0,0,0-.51,1.806V19h-2.777V10h2.777v1.67h.035a2.4,2.4,0,0,1,2.373-1.828,1.788,1.788,0,0,1,.686.105Zm9.308,2.786h-5.871q.141,1.96,2.47,1.96a4.822,4.822,0,0,0,2.61-.7v2a6.858,6.858,0,0,1-3.243.668,4.565,4.565,0,0,1-3.384-1.208,4.566,4.566,0,0,1-1.2-3.371,4.816,4.816,0,0,1,1.3-3.551,4.334,4.334,0,0,1,3.2-1.31,3.933,3.933,0,0,1,3.045,1.169,4.5,4.5,0,0,1,1.077,3.173Zm-2.575-1.705q0-1.934-1.564-1.934a1.494,1.494,0,0,0-1.156.554,2.513,2.513,0,0,0-.593,1.38Zm11.048,5.089a5.492,5.492,0,0,1-2.716.545,4.593,4.593,0,0,1-3.357-1.257,4.341,4.341,0,0,1-1.283-3.243,4.782,4.782,0,0,1,1.375-3.617,5.083,5.083,0,0,1,3.678-1.323,4.72,4.72,0,0,1,2.3.422v2.355a3.166,3.166,0,0,0-1.942-.65,2.559,2.559,0,0,0-1.894.7,2.607,2.607,0,0,0-.7,1.929,2.565,2.565,0,0,0,.668,1.876,2.455,2.455,0,0,0,1.837.681,3.666,3.666,0,0,0,2.03-.65Zm7.26.22a4.105,4.105,0,0,1-1.854.325q-2.936,0-2.936-3.05V12.048h-1.459V10H184.1V8.058l2.769-.791V10h2.021v2.048h-2.021v3.639q0,1.406,1.116,1.406a1.882,1.882,0,0,0,.905-.255Zm5.783.325a4.838,4.838,0,0,1-3.538-1.261,4.573,4.573,0,0,1-1.288-3.423,4.573,4.573,0,0,1,1.336-3.494,5.048,5.048,0,0,1,3.612-1.261,4.78,4.78,0,0,1,3.516,1.261,4.483,4.483,0,0,1,1.274,3.335,4.759,4.759,0,0,1-1.314,3.542A4.892,4.892,0,0,1,194.669,19.22Zm.07-7.312a1.852,1.852,0,0,0-1.529.677,2.984,2.984,0,0,0-.545,1.916q0,2.593,2.092,2.593,2,0,2-2.663Q196.752,11.907,194.74,11.907Zm6.056,6.855v-2.25a5.913,5.913,0,0,0,1.367.615,4.531,4.531,0,0,0,1.288.2,2.762,2.762,0,0,0,1.165-.2.653.653,0,0,0,.426-.615.569.569,0,0,0-.193-.439,1.8,1.8,0,0,0-.5-.308,5.635,5.635,0,0,0-.664-.237q-.36-.105-.694-.237a6.653,6.653,0,0,1-.945-.435,2.731,2.731,0,0,1-.686-.541,2.125,2.125,0,0,1-.422-.712,2.841,2.841,0,0,1-.145-.958,2.466,2.466,0,0,1,.33-1.3,2.692,2.692,0,0,1,.879-.892,4.016,4.016,0,0,1,1.257-.51,6.553,6.553,0,0,1,1.472-.163,8.168,8.168,0,0,1,1.213.092,9.053,9.053,0,0,1,1.213.268v2.145a4.383,4.383,0,0,0-1.129-.461,4.764,4.764,0,0,0-1.182-.154,2.619,2.619,0,0,0-.514.048,1.693,1.693,0,0,0-.426.141.783.783,0,0,0-.29.237.546.546,0,0,0-.105.33.609.609,0,0,0,.158.422,1.374,1.374,0,0,0,.413.3,4.078,4.078,0,0,0,.567.229q.312.1.62.207a8.056,8.056,0,0,1,1,.422,3.2,3.2,0,0,1,.769.536,2.105,2.105,0,0,1,.492.721,2.884,2.884,0,0,1-.176,2.351,2.78,2.78,0,0,1-.923.923,4.185,4.185,0,0,1-1.327.519,7.357,7.357,0,0,1-1.56.163A8.042,8.042,0,0,1,200.8,18.763Z" transform="translate(825.532 1666)" fill="#fff"/>
    <rect id="Rectángulo_35453" data-name="Rectángulo 35453" width="271.697" height="90" transform="translate(502.765 1630)" fill="#17c878"/>
    <path id="Trazado_155377" data-name="Trazado 155377" d="M92.334,19h-2.8V11.459q0-1.222.105-2.7h-.07a13.277,13.277,0,0,1-.4,1.67L86.217,19H83.9L80.89,10.519a16.5,16.5,0,0,1-.4-1.758h-.079q.114,1.863.114,3.27V19H77.972V6.4H82.13L84.7,13.867a10.519,10.519,0,0,1,.448,1.8h.053a18.143,18.143,0,0,1,.5-1.819L88.282,6.4h4.052Zm10.081,0H99.787V17.708h-.035a2.933,2.933,0,0,1-2.681,1.512,2.8,2.8,0,0,1-2.061-.743,2.661,2.661,0,0,1-.751-1.982q0-2.619,3.1-3.023l2.443-.325q0-1.477-1.6-1.477a5.46,5.46,0,0,0-3.059.958V10.536a6.881,6.881,0,0,1,1.586-.527,8.339,8.339,0,0,1,1.833-.229q3.85,0,3.85,3.841ZM99.8,15.344v-.606l-1.635.211q-1.354.176-1.354,1.222a1.01,1.01,0,0,0,.33.778,1.266,1.266,0,0,0,.892.3,1.644,1.644,0,0,0,1.274-.541A1.952,1.952,0,0,0,99.8,15.344ZM113.3,19h-2.769V14q0-2.092-1.494-2.092a1.483,1.483,0,0,0-1.187.554,2.109,2.109,0,0,0-.466,1.406V19h-2.777V10h2.777v1.424h.035a3.183,3.183,0,0,1,2.892-1.644q2.988,0,2.988,3.709Zm6.486.22a4.838,4.838,0,0,1-3.538-1.261,4.573,4.573,0,0,1-1.288-3.423,4.573,4.573,0,0,1,1.336-3.494,5.048,5.048,0,0,1,3.612-1.261,4.78,4.78,0,0,1,3.516,1.261,4.483,4.483,0,0,1,1.274,3.335,4.759,4.759,0,0,1-1.314,3.542A4.892,4.892,0,0,1,119.791,19.22Zm.07-7.312a1.852,1.852,0,0,0-1.529.677,2.984,2.984,0,0,0-.545,1.916q0,2.593,2.092,2.593,2,0,2-2.663Q121.874,11.907,119.861,11.907ZM140.278,19H137.5V17.761h-.035a3.114,3.114,0,0,1-2.786,1.459,3.412,3.412,0,0,1-2.716-1.191,4.93,4.93,0,0,1-1.028-3.327,5.366,5.366,0,0,1,1.134-3.577A3.7,3.7,0,0,1,135.04,9.78a2.527,2.527,0,0,1,2.426,1.248h.035V5.676h2.777Zm-2.725-4.377v-.677a2.13,2.13,0,0,0-.51-1.459,1.8,1.8,0,0,0-2.769.145,3.367,3.367,0,0,0-.519,1.991,2.914,2.914,0,0,0,.5,1.828,1.779,1.779,0,0,0,2.764-.035A2.821,2.821,0,0,0,137.554,14.623Zm13.148.668h-5.871q.141,1.96,2.47,1.96a4.822,4.822,0,0,0,2.61-.7v2a6.858,6.858,0,0,1-3.243.668,4.565,4.565,0,0,1-3.384-1.208,4.566,4.566,0,0,1-1.2-3.371,4.816,4.816,0,0,1,1.3-3.551,4.334,4.334,0,0,1,3.2-1.31,3.933,3.933,0,0,1,3.045,1.169,4.5,4.5,0,0,1,1.077,3.173Zm-2.575-1.705q0-1.934-1.564-1.934a1.494,1.494,0,0,0-1.156.554,2.513,2.513,0,0,0-.593,1.38Zm13.482,5.634a4.838,4.838,0,0,1-3.538-1.261,4.573,4.573,0,0,1-1.288-3.423,4.573,4.573,0,0,1,1.336-3.494,5.048,5.048,0,0,1,3.612-1.261,4.78,4.78,0,0,1,3.516,1.261,4.483,4.483,0,0,1,1.274,3.335,4.759,4.759,0,0,1-1.314,3.542A4.892,4.892,0,0,1,161.609,19.22Zm.07-7.312a1.852,1.852,0,0,0-1.529.677,2.984,2.984,0,0,0-.545,1.916q0,2.593,2.092,2.593,2,0,2-2.663Q163.692,11.907,161.679,11.907Zm9.457,6.047H171.1V19h-2.777V5.676H171.1v5.678h.035a3.3,3.3,0,0,1,2.927-1.573,3.211,3.211,0,0,1,2.681,1.2,5.155,5.155,0,0,1,.94,3.27,5.582,5.582,0,0,1-1.1,3.612,3.579,3.579,0,0,1-2.936,1.362A2.836,2.836,0,0,1,171.137,17.954Zm-.079-3.8v.923a2.107,2.107,0,0,0,.5,1.441,1.63,1.63,0,0,0,1.283.571,1.7,1.7,0,0,0,1.472-.734,3.543,3.543,0,0,0,.523-2.079,2.819,2.819,0,0,0-.479-1.745,1.616,1.616,0,0,0-1.367-.628,1.766,1.766,0,0,0-1.384.624A2.37,2.37,0,0,0,171.057,14.157Zm14.3-1.652a2.409,2.409,0,0,0-1.169-.272,1.684,1.684,0,0,0-1.415.664,2.9,2.9,0,0,0-.51,1.806V19h-2.777V10h2.777v1.67h.035a2.4,2.4,0,0,1,2.373-1.828,1.788,1.788,0,0,1,.686.105Zm8.78,6.5H191.51V17.708h-.035a2.933,2.933,0,0,1-2.681,1.512,2.8,2.8,0,0,1-2.061-.743,2.661,2.661,0,0,1-.751-1.982q0-2.619,3.1-3.023l2.443-.325q0-1.477-1.6-1.477a5.46,5.46,0,0,0-3.059.958V10.536a6.881,6.881,0,0,1,1.586-.527,8.339,8.339,0,0,1,1.833-.229q3.85,0,3.85,3.841Zm-2.61-3.656v-.606l-1.635.211q-1.354.176-1.354,1.222a1.01,1.01,0,0,0,.33.778,1.266,1.266,0,0,0,.892.3,1.644,1.644,0,0,0,1.274-.541A1.952,1.952,0,0,0,191.527,15.344Z" transform="translate(502.765 1666)" fill="#fff"/>
    <rect id="Rectángulo_35451-2" data-name="Rectángulo 35451" width="216" height="90" transform="translate(435.591 1499)" fill="#eef0f2"/>
    <path id="Trazado_155372" data-name="Trazado 155372" d="M81.505,18.552a8.311,8.311,0,0,1-3.6.668,6.074,6.074,0,0,1-4.562-1.705,6.233,6.233,0,0,1-1.661-4.544,6.659,6.659,0,0,1,1.868-4.9,6.533,6.533,0,0,1,4.847-1.881,9.065,9.065,0,0,1,3.111.466V9.385a5.513,5.513,0,0,0-2.883-.756,3.824,3.824,0,0,0-2.865,1.116,4.142,4.142,0,0,0-1.09,3.023A4.062,4.062,0,0,0,75.7,15.682a3.633,3.633,0,0,0,2.769,1.085,5.905,5.905,0,0,0,3.041-.809Zm6.214.668a4.838,4.838,0,0,1-3.538-1.261,4.573,4.573,0,0,1-1.288-3.423,4.573,4.573,0,0,1,1.336-3.494A5.048,5.048,0,0,1,87.842,9.78a4.78,4.78,0,0,1,3.516,1.261,4.483,4.483,0,0,1,1.274,3.335,4.759,4.759,0,0,1-1.314,3.542A4.892,4.892,0,0,1,87.719,19.22Zm.07-7.312a1.852,1.852,0,0,0-1.529.677,2.984,2.984,0,0,0-.545,1.916q0,2.593,2.092,2.593,2,0,2-2.663Q89.8,11.907,87.79,11.907Zm6.056,6.855v-2.25a5.913,5.913,0,0,0,1.367.615,4.531,4.531,0,0,0,1.288.2,2.762,2.762,0,0,0,1.165-.2.653.653,0,0,0,.426-.615.569.569,0,0,0-.193-.439,1.8,1.8,0,0,0-.5-.308,5.635,5.635,0,0,0-.664-.237q-.36-.105-.694-.237a6.653,6.653,0,0,1-.945-.435,2.731,2.731,0,0,1-.686-.541,2.125,2.125,0,0,1-.422-.712,2.841,2.841,0,0,1-.145-.958,2.466,2.466,0,0,1,.33-1.3,2.692,2.692,0,0,1,.879-.892,4.016,4.016,0,0,1,1.257-.51,6.553,6.553,0,0,1,1.472-.163A8.168,8.168,0,0,1,99,9.873a9.053,9.053,0,0,1,1.213.268v2.145a4.383,4.383,0,0,0-1.129-.461A4.764,4.764,0,0,0,97.9,11.67a2.619,2.619,0,0,0-.514.048,1.693,1.693,0,0,0-.426.141.783.783,0,0,0-.29.237.546.546,0,0,0-.105.33.609.609,0,0,0,.158.422,1.374,1.374,0,0,0,.413.3,4.078,4.078,0,0,0,.567.229q.312.1.62.207a8.056,8.056,0,0,1,1,.422,3.2,3.2,0,0,1,.769.536,2.105,2.105,0,0,1,.492.721,2.884,2.884,0,0,1-.176,2.351,2.78,2.78,0,0,1-.923.923,4.185,4.185,0,0,1-1.327.519,7.357,7.357,0,0,1-1.56.163A8.042,8.042,0,0,1,93.845,18.763Zm13.948.132a4.105,4.105,0,0,1-1.854.325Q103,19.22,103,16.17V12.048h-1.459V10H103V8.058l2.769-.791V10h2.021v2.048h-2.021v3.639q0,1.406,1.116,1.406a1.882,1.882,0,0,0,.905-.255Zm5.783.325a4.838,4.838,0,0,1-3.538-1.261,4.573,4.573,0,0,1-1.288-3.423,4.573,4.573,0,0,1,1.336-3.494A5.048,5.048,0,0,1,113.7,9.78a4.78,4.78,0,0,1,3.516,1.261,4.483,4.483,0,0,1,1.274,3.335,4.759,4.759,0,0,1-1.314,3.542A4.892,4.892,0,0,1,113.577,19.22Zm.07-7.312a1.852,1.852,0,0,0-1.529.677,2.984,2.984,0,0,0-.545,1.916q0,2.593,2.092,2.593,2,0,2-2.663Q115.66,11.907,113.647,11.907ZM134.064,19h-2.777V17.761h-.035a3.114,3.114,0,0,1-2.786,1.459,3.412,3.412,0,0,1-2.716-1.191,4.93,4.93,0,0,1-1.028-3.327,5.366,5.366,0,0,1,1.134-3.577,3.7,3.7,0,0,1,2.971-1.345,2.527,2.527,0,0,1,2.426,1.248h.035V5.676h2.777Zm-2.725-4.377v-.677a2.13,2.13,0,0,0-.51-1.459,1.8,1.8,0,0,0-2.769.145,3.367,3.367,0,0,0-.519,1.991,2.914,2.914,0,0,0,.5,1.828,1.779,1.779,0,0,0,2.764-.035A2.821,2.821,0,0,0,131.339,14.623Zm13.148.668h-5.871q.141,1.96,2.47,1.96a4.822,4.822,0,0,0,2.61-.7v2a6.858,6.858,0,0,1-3.243.668,4.565,4.565,0,0,1-3.384-1.208,4.566,4.566,0,0,1-1.2-3.371,4.816,4.816,0,0,1,1.3-3.551,4.334,4.334,0,0,1,3.2-1.31,3.933,3.933,0,0,1,3.045,1.169,4.5,4.5,0,0,1,1.077,3.173Zm-2.575-1.705q0-1.934-1.564-1.934a1.494,1.494,0,0,0-1.156.554,2.513,2.513,0,0,0-.593,1.38ZM63.694,43H60.926V37.867q0-1.96-1.441-1.96a1.324,1.324,0,0,0-1.116.589,2.42,2.42,0,0,0-.431,1.468V43H55.16V37.814q0-1.907-1.415-1.907a1.356,1.356,0,0,0-1.138.563A2.475,2.475,0,0,0,52.181,38v5H49.4V34h2.777v1.406h.035a3.41,3.41,0,0,1,2.909-1.626,2.592,2.592,0,0,1,2.61,1.679,3.329,3.329,0,0,1,3.023-1.679q2.936,0,2.936,3.621Zm9.686,0H70.752V41.708h-.035a2.933,2.933,0,0,1-2.681,1.512,2.8,2.8,0,0,1-2.061-.743,2.661,2.661,0,0,1-.751-1.982q0-2.619,3.1-3.023l2.443-.325q0-1.477-1.6-1.477a5.46,5.46,0,0,0-3.059.958V34.536a6.881,6.881,0,0,1,1.586-.527,8.339,8.339,0,0,1,1.833-.229q3.85,0,3.85,3.841Zm-2.61-3.656v-.606l-1.635.211q-1.354.176-1.354,1.222a1.01,1.01,0,0,0,.33.778,1.266,1.266,0,0,0,.892.3,1.644,1.644,0,0,0,1.274-.541A1.952,1.952,0,0,0,70.77,39.344Zm10.248,3.551a4.105,4.105,0,0,1-1.854.325q-2.936,0-2.936-3.05V36.048H74.769V34h1.459V32.058L79,31.267V34h2.021v2.048H79v3.639q0,1.406,1.116,1.406a1.882,1.882,0,0,0,.905-.255Zm9.58-3.6H84.727q.141,1.96,2.47,1.96a4.822,4.822,0,0,0,2.61-.7v2a6.858,6.858,0,0,1-3.243.668,4.189,4.189,0,0,1-4.588-4.579,4.816,4.816,0,0,1,1.3-3.551,4.334,4.334,0,0,1,3.2-1.31,3.933,3.933,0,0,1,3.045,1.169A4.5,4.5,0,0,1,90.6,38.122Zm-2.575-1.705q0-1.934-1.564-1.934a1.494,1.494,0,0,0-1.156.554,2.513,2.513,0,0,0-.593,1.38Zm10.1-1.081a2.409,2.409,0,0,0-1.169-.272,1.684,1.684,0,0,0-1.415.664,2.9,2.9,0,0,0-.51,1.806V43H92.25V34h2.777v1.67h.035a2.4,2.4,0,0,1,2.373-1.828,1.788,1.788,0,0,1,.686.105Zm2.769-3.929a1.622,1.622,0,0,1-1.151-.417,1.345,1.345,0,0,1-.448-1.024,1.3,1.3,0,0,1,.448-1.02,1.88,1.88,0,0,1,2.307,0,1.3,1.3,0,0,1,.444,1.02,1.34,1.34,0,0,1-.444,1.037A1.65,1.65,0,0,1,100.89,32.576ZM102.261,43H99.483V34h2.777Zm9.826,0h-2.628V41.708h-.035a2.933,2.933,0,0,1-2.681,1.512,2.8,2.8,0,0,1-2.061-.743,2.661,2.661,0,0,1-.751-1.982q0-2.619,3.1-3.023l2.443-.325q0-1.477-1.6-1.477a5.46,5.46,0,0,0-3.059.958V34.536a6.881,6.881,0,0,1,1.586-.527,8.339,8.339,0,0,1,1.833-.229q3.85,0,3.85,3.841Zm-2.61-3.656v-.606l-1.635.211q-1.354.176-1.354,1.222a1.01,1.01,0,0,0,.33.778,1.266,1.266,0,0,0,.892.3,1.644,1.644,0,0,0,1.274-.541A1.952,1.952,0,0,0,109.477,39.344Zm12.586,2.61h-.035V47.14H119.25V34h2.777v1.354h.035a3.534,3.534,0,0,1,5.594-.374,5.108,5.108,0,0,1,.954,3.265,5.537,5.537,0,0,1-1.112,3.612,3.625,3.625,0,0,1-2.958,1.362A2.8,2.8,0,0,1,122.063,41.954Zm-.079-3.691v.721a2.291,2.291,0,0,0,.492,1.521,1.6,1.6,0,0,0,1.292.589,1.7,1.7,0,0,0,1.472-.734,3.543,3.543,0,0,0,.523-2.079q0-2.373-1.846-2.373a1.733,1.733,0,0,0-1.393.646A2.576,2.576,0,0,0,121.983,38.263Zm14.3-1.758a2.409,2.409,0,0,0-1.169-.272,1.684,1.684,0,0,0-1.415.664,2.9,2.9,0,0,0-.51,1.806V43h-2.777V34h2.777v1.67h.035a2.4,2.4,0,0,1,2.373-1.828,1.788,1.788,0,0,1,.686.105Zm2.769-3.929a1.622,1.622,0,0,1-1.151-.417,1.345,1.345,0,0,1-.448-1.024,1.3,1.3,0,0,1,.448-1.02,1.88,1.88,0,0,1,2.307,0,1.3,1.3,0,0,1,.444,1.02,1.34,1.34,0,0,1-.444,1.037A1.65,1.65,0,0,1,139.052,32.576ZM140.423,43h-2.777V34h2.777Zm16.629,0h-2.769V37.867q0-1.96-1.441-1.96a1.324,1.324,0,0,0-1.116.589,2.42,2.42,0,0,0-.431,1.468V43h-2.777V37.814q0-1.907-1.415-1.907a1.356,1.356,0,0,0-1.138.563A2.475,2.475,0,0,0,145.538,38v5h-2.777V34h2.777v1.406h.035a3.41,3.41,0,0,1,2.909-1.626,2.592,2.592,0,0,1,2.61,1.679,3.329,3.329,0,0,1,3.023-1.679q2.936,0,2.936,3.621Zm9.686,0h-2.628V41.708h-.035a2.933,2.933,0,0,1-2.681,1.512,2.8,2.8,0,0,1-2.061-.743,2.661,2.661,0,0,1-.751-1.982q0-2.619,3.1-3.023l2.443-.325q0-1.477-1.6-1.477a5.46,5.46,0,0,0-3.059.958V34.536a6.881,6.881,0,0,1,1.586-.527,8.339,8.339,0,0,1,1.833-.229q3.85,0,3.85,3.841Zm-2.61-3.656v-.606l-1.635.211q-1.354.176-1.354,1.222a1.01,1.01,0,0,0,.33.778,1.266,1.266,0,0,0,.892.3,1.644,1.644,0,0,0,1.274-.541A1.952,1.952,0,0,0,164.127,39.344Z" transform="translate(435.591 1523)" fill="#00223d"/>
    <rect id="Rectángulo_35451-3" data-name="Rectángulo 35451" width="216" height="90" transform="translate(692.591 1499)" fill="#eef0f2"/>
    <path id="Trazado_155373" data-name="Trazado 155373" d="M27.439,19H24.6V6.4h2.839Zm11.285,0H35.956V14q0-2.092-1.494-2.092a1.483,1.483,0,0,0-1.187.554,2.109,2.109,0,0,0-.466,1.406V19H30.032V10H32.81v1.424h.035A3.183,3.183,0,0,1,35.736,9.78q2.988,0,2.988,3.709Zm10.767-9-3.349,9H42.979l-3.19-9h2.971l1.564,5.546a8.1,8.1,0,0,1,.308,1.6h.035a9.078,9.078,0,0,1,.325-1.547l1.6-5.6Zm9.1,5.291H52.717q.141,1.96,2.47,1.96a4.822,4.822,0,0,0,2.61-.7v2a6.858,6.858,0,0,1-3.243.668,4.565,4.565,0,0,1-3.384-1.208,4.566,4.566,0,0,1-1.2-3.371,4.816,4.816,0,0,1,1.3-3.551,4.334,4.334,0,0,1,3.2-1.31,3.933,3.933,0,0,1,3.045,1.169,4.5,4.5,0,0,1,1.077,3.173Zm-2.575-1.705q0-1.934-1.564-1.934a1.494,1.494,0,0,0-1.156.554,2.513,2.513,0,0,0-.593,1.38ZM68.933,19H66.164V14q0-2.092-1.494-2.092a1.483,1.483,0,0,0-1.187.554,2.109,2.109,0,0,0-.466,1.406V19H60.24V10h2.777v1.424h.035A3.183,3.183,0,0,1,65.944,9.78q2.988,0,2.988,3.709Zm7.638-.105a4.105,4.105,0,0,1-1.854.325q-2.936,0-2.936-3.05V12.048H70.321V10H71.78V8.058l2.769-.791V10H76.57v2.048H74.549v3.639q0,1.406,1.116,1.406a1.882,1.882,0,0,0,.905-.255ZM85.623,19H83V17.708H82.96a2.933,2.933,0,0,1-2.681,1.512,2.8,2.8,0,0,1-2.061-.743,2.661,2.661,0,0,1-.751-1.982q0-2.619,3.1-3.023l2.443-.325q0-1.477-1.6-1.477a5.46,5.46,0,0,0-3.059.958V10.536a6.881,6.881,0,0,1,1.586-.527,8.339,8.339,0,0,1,1.833-.229q3.85,0,3.85,3.841Zm-2.61-3.656v-.606l-1.635.211q-1.354.176-1.354,1.222a1.01,1.01,0,0,0,.33.778,1.266,1.266,0,0,0,.892.3,1.644,1.644,0,0,0,1.274-.541A1.952,1.952,0,0,0,83.013,15.344ZM93.691,12.5a2.409,2.409,0,0,0-1.169-.272,1.684,1.684,0,0,0-1.415.664A2.9,2.9,0,0,0,90.6,14.7V19H87.82V10H90.6v1.67h.035a2.4,2.4,0,0,1,2.373-1.828,1.788,1.788,0,0,1,.686.105ZM96.46,8.576a1.622,1.622,0,0,1-1.151-.417,1.345,1.345,0,0,1-.448-1.024,1.3,1.3,0,0,1,.448-1.02,1.88,1.88,0,0,1,2.307,0,1.3,1.3,0,0,1,.444,1.02,1.34,1.34,0,0,1-.444,1.037A1.65,1.65,0,0,1,96.46,8.576ZM97.831,19H95.054V10h2.777Zm6.627.22a4.838,4.838,0,0,1-3.538-1.261,4.573,4.573,0,0,1-1.288-3.423,4.573,4.573,0,0,1,1.336-3.494,5.048,5.048,0,0,1,3.612-1.261,4.78,4.78,0,0,1,3.516,1.261,4.483,4.483,0,0,1,1.274,3.335,4.759,4.759,0,0,1-1.314,3.542A4.892,4.892,0,0,1,104.458,19.22Zm.07-7.312a1.852,1.852,0,0,0-1.529.677,2.984,2.984,0,0,0-.545,1.916q0,2.593,2.092,2.593,2,0,2-2.663Q106.541,11.907,104.528,11.907Zm14.423,6.047h-.035V23.14h-2.777V10h2.777v1.354h.035a3.534,3.534,0,0,1,5.594-.374,5.108,5.108,0,0,1,.954,3.265,5.537,5.537,0,0,1-1.112,3.612,3.625,3.625,0,0,1-2.958,1.362A2.8,2.8,0,0,1,118.951,17.954Zm-.079-3.691v.721a2.291,2.291,0,0,0,.492,1.521,1.6,1.6,0,0,0,1.292.589,1.7,1.7,0,0,0,1.472-.734,3.543,3.543,0,0,0,.523-2.079q0-2.373-1.846-2.373a1.733,1.733,0,0,0-1.393.646A2.576,2.576,0,0,0,118.872,14.263Zm14.3-1.758A2.409,2.409,0,0,0,132,12.232a1.684,1.684,0,0,0-1.415.664,2.9,2.9,0,0,0-.51,1.806V19H127.3V10h2.777v1.67h.035a2.4,2.4,0,0,1,2.373-1.828,1.788,1.788,0,0,1,.686.105Zm5.511,6.715a4.838,4.838,0,0,1-3.538-1.261,4.573,4.573,0,0,1-1.288-3.423,4.573,4.573,0,0,1,1.336-3.494,5.048,5.048,0,0,1,3.612-1.261,4.78,4.78,0,0,1,3.516,1.261,4.483,4.483,0,0,1,1.274,3.335,4.759,4.759,0,0,1-1.314,3.542A4.892,4.892,0,0,1,138.683,19.22Zm.07-7.312a1.852,1.852,0,0,0-1.529.677,2.984,2.984,0,0,0-.545,1.916q0,2.593,2.092,2.593,2,0,2-2.663Q140.766,11.907,138.753,11.907ZM154.2,19h-2.777V17.761h-.035a3.114,3.114,0,0,1-2.786,1.459,3.412,3.412,0,0,1-2.716-1.191,4.93,4.93,0,0,1-1.028-3.327A5.366,5.366,0,0,1,146,11.125a3.7,3.7,0,0,1,2.971-1.345,2.527,2.527,0,0,1,2.426,1.248h.035V5.676H154.2Zm-2.725-4.377v-.677a2.13,2.13,0,0,0-.51-1.459,1.8,1.8,0,0,0-2.769.145,3.367,3.367,0,0,0-.519,1.991,2.914,2.914,0,0,0,.5,1.828,1.779,1.779,0,0,0,2.764-.035A2.821,2.821,0,0,0,151.479,14.623ZM165.094,19h-2.769V17.629h-.044a3.141,3.141,0,0,1-2.751,1.591q-3.129,0-3.129-3.788V10h2.769v5.186q0,1.907,1.512,1.907a1.5,1.5,0,0,0,1.2-.523,2.109,2.109,0,0,0,.448-1.419V10h2.769Zm9.158-.325a5.492,5.492,0,0,1-2.716.545,4.593,4.593,0,0,1-3.357-1.257A4.341,4.341,0,0,1,166.9,14.72a4.782,4.782,0,0,1,1.375-3.617,5.083,5.083,0,0,1,3.678-1.323,4.72,4.72,0,0,1,2.3.422v2.355a3.166,3.166,0,0,0-1.942-.65,2.559,2.559,0,0,0-1.894.7,2.607,2.607,0,0,0-.7,1.929,2.565,2.565,0,0,0,.668,1.876,2.455,2.455,0,0,0,1.837.681,3.666,3.666,0,0,0,2.03-.65Zm7.26.22a4.105,4.105,0,0,1-1.854.325q-2.936,0-2.936-3.05V12.048h-1.459V10h1.459V8.058l2.769-.791V10h2.021v2.048H179.49v3.639q0,1.406,1.116,1.406a1.882,1.882,0,0,0,.905-.255Zm5.783.325a4.838,4.838,0,0,1-3.538-1.261,4.573,4.573,0,0,1-1.288-3.423,4.573,4.573,0,0,1,1.336-3.494,5.048,5.048,0,0,1,3.612-1.261,4.78,4.78,0,0,1,3.516,1.261,4.483,4.483,0,0,1,1.274,3.335,4.759,4.759,0,0,1-1.314,3.542A4.892,4.892,0,0,1,187.295,19.22Zm.07-7.312a1.852,1.852,0,0,0-1.529.677,2.984,2.984,0,0,0-.545,1.916q0,2.593,2.092,2.593,2,0,2-2.663Q189.378,11.907,187.365,11.907ZM71.178,39.291H65.307q.141,1.96,2.47,1.96a4.822,4.822,0,0,0,2.61-.7v2a6.858,6.858,0,0,1-3.243.668,4.189,4.189,0,0,1-4.588-4.579,4.816,4.816,0,0,1,1.3-3.551,4.334,4.334,0,0,1,3.2-1.31A3.933,3.933,0,0,1,70.1,34.949a4.5,4.5,0,0,1,1.077,3.173ZM68.6,37.586q0-1.934-1.564-1.934a1.494,1.494,0,0,0-1.156.554,2.513,2.513,0,0,0-.593,1.38ZM81.523,43H78.754V38q0-2.092-1.494-2.092a1.483,1.483,0,0,0-1.187.554,2.109,2.109,0,0,0-.466,1.406V43H72.831V34h2.777v1.424h.035a3.183,3.183,0,0,1,2.892-1.644q2.988,0,2.988,3.709ZM91.5,41.954h-.035V47.14H88.686V34h2.777v1.354H91.5a3.534,3.534,0,0,1,5.594-.374,5.108,5.108,0,0,1,.954,3.265,5.537,5.537,0,0,1-1.112,3.612,3.625,3.625,0,0,1-2.958,1.362A2.8,2.8,0,0,1,91.5,41.954Zm-.079-3.691v.721a2.291,2.291,0,0,0,.492,1.521,1.6,1.6,0,0,0,1.292.589,1.7,1.7,0,0,0,1.472-.734A3.543,3.543,0,0,0,95.2,38.28q0-2.373-1.846-2.373a1.733,1.733,0,0,0-1.393.646A2.576,2.576,0,0,0,91.419,38.263Zm14.3-1.758a2.409,2.409,0,0,0-1.169-.272,1.684,1.684,0,0,0-1.415.664,2.9,2.9,0,0,0-.51,1.806V43H99.848V34h2.777v1.67h.035a2.4,2.4,0,0,1,2.373-1.828,1.788,1.788,0,0,1,.686.105Zm5.511,6.715a4.838,4.838,0,0,1-3.538-1.261,4.573,4.573,0,0,1-1.288-3.423,4.573,4.573,0,0,1,1.336-3.494,5.048,5.048,0,0,1,3.612-1.261,4.78,4.78,0,0,1,3.516,1.261,4.483,4.483,0,0,1,1.274,3.335,4.759,4.759,0,0,1-1.314,3.542A4.892,4.892,0,0,1,111.23,43.22Zm.07-7.312a1.852,1.852,0,0,0-1.529.677,2.984,2.984,0,0,0-.545,1.916q0,2.593,2.092,2.593,2,0,2-2.663Q113.313,35.907,111.3,35.907Zm13.465,6.768a5.492,5.492,0,0,1-2.716.545,4.593,4.593,0,0,1-3.357-1.257,4.341,4.341,0,0,1-1.283-3.243,4.782,4.782,0,0,1,1.375-3.617,5.083,5.083,0,0,1,3.678-1.323,4.72,4.72,0,0,1,2.3.422v2.355a3.166,3.166,0,0,0-1.942-.65,2.559,2.559,0,0,0-1.894.7,2.607,2.607,0,0,0-.7,1.929,2.565,2.565,0,0,0,.668,1.876,2.455,2.455,0,0,0,1.837.681,3.666,3.666,0,0,0,2.03-.65Zm9.905-3.384H128.8q.141,1.96,2.47,1.96a4.822,4.822,0,0,0,2.61-.7v2a6.858,6.858,0,0,1-3.243.668,4.189,4.189,0,0,1-4.588-4.579,4.816,4.816,0,0,1,1.3-3.551,4.334,4.334,0,0,1,3.2-1.31,3.933,3.933,0,0,1,3.045,1.169,4.5,4.5,0,0,1,1.077,3.173ZM132.1,37.586q0-1.934-1.564-1.934a1.494,1.494,0,0,0-1.156.554,2.513,2.513,0,0,0-.593,1.38Zm3.639,5.177v-2.25a5.913,5.913,0,0,0,1.367.615,4.531,4.531,0,0,0,1.288.2,2.762,2.762,0,0,0,1.165-.2.653.653,0,0,0,.426-.615.569.569,0,0,0-.193-.439,1.8,1.8,0,0,0-.5-.308,5.635,5.635,0,0,0-.664-.237q-.36-.105-.694-.237a6.653,6.653,0,0,1-.945-.435,2.731,2.731,0,0,1-.686-.541,2.125,2.125,0,0,1-.422-.712,2.841,2.841,0,0,1-.145-.958,2.466,2.466,0,0,1,.33-1.3,2.692,2.692,0,0,1,.879-.892,4.016,4.016,0,0,1,1.257-.51,6.553,6.553,0,0,1,1.472-.163,8.168,8.168,0,0,1,1.213.092,9.053,9.053,0,0,1,1.213.268v2.145a4.383,4.383,0,0,0-1.129-.461,4.764,4.764,0,0,0-1.182-.154,2.619,2.619,0,0,0-.514.048,1.693,1.693,0,0,0-.426.141.783.783,0,0,0-.29.237.546.546,0,0,0-.105.33.609.609,0,0,0,.158.422,1.374,1.374,0,0,0,.413.3,4.078,4.078,0,0,0,.567.229q.312.1.62.207a8.056,8.056,0,0,1,1,.422,3.2,3.2,0,0,1,.769.536,2.105,2.105,0,0,1,.492.721,2.884,2.884,0,0,1-.176,2.351,2.78,2.78,0,0,1-.923.923,4.185,4.185,0,0,1-1.327.519,7.357,7.357,0,0,1-1.56.163A8.042,8.042,0,0,1,135.734,42.763Zm12.8.457a4.838,4.838,0,0,1-3.538-1.261,4.573,4.573,0,0,1-1.288-3.423,4.573,4.573,0,0,1,1.336-3.494,5.048,5.048,0,0,1,3.612-1.261,4.78,4.78,0,0,1,3.516,1.261,4.483,4.483,0,0,1,1.274,3.335,4.759,4.759,0,0,1-1.314,3.542A4.892,4.892,0,0,1,148.531,43.22Zm.07-7.312a1.852,1.852,0,0,0-1.529.677,2.984,2.984,0,0,0-.545,1.916q0,2.593,2.092,2.593,2,0,2-2.663Q150.614,35.907,148.6,35.907Z" transform="translate(692.591 1523)" fill="#00223d"/>
    <rect id="Rectángulo_35451-4" data-name="Rectángulo 35451" width="216" height="90" transform="translate(948.591 1499)" fill="#eef0f2"/>
    <path id="Trazado_155374" data-name="Trazado 155374" d="M68.858,19H66.019V6.4h2.839Zm11.285,0H77.375V14q0-2.092-1.494-2.092a1.483,1.483,0,0,0-1.187.554,2.109,2.109,0,0,0-.466,1.406V19H71.451V10h2.777v1.424h.035A3.183,3.183,0,0,1,77.155,9.78q2.988,0,2.988,3.709ZM90.91,10l-3.349,9H84.4l-3.19-9h2.971l1.564,5.546a8.1,8.1,0,0,1,.308,1.6h.035A9.078,9.078,0,0,1,86.41,15.6l1.6-5.6Zm9.1,5.291H94.135q.141,1.96,2.47,1.96a4.822,4.822,0,0,0,2.61-.7v2a6.858,6.858,0,0,1-3.243.668,4.565,4.565,0,0,1-3.384-1.208,4.566,4.566,0,0,1-1.2-3.371,4.816,4.816,0,0,1,1.3-3.551,4.334,4.334,0,0,1,3.2-1.31,3.933,3.933,0,0,1,3.045,1.169,4.5,4.5,0,0,1,1.077,3.173Zm-2.575-1.705q0-1.934-1.564-1.934a1.494,1.494,0,0,0-1.156.554,2.513,2.513,0,0,0-.593,1.38ZM110.351,19h-2.769V14q0-2.092-1.494-2.092a1.483,1.483,0,0,0-1.187.554,2.109,2.109,0,0,0-.466,1.406V19h-2.777V10h2.777v1.424h.035a3.183,3.183,0,0,1,2.892-1.644q2.988,0,2.988,3.709Zm7.638-.105a4.105,4.105,0,0,1-1.854.325q-2.936,0-2.936-3.05V12.048H111.74V10H113.2V8.058l2.769-.791V10h2.021v2.048h-2.021v3.639q0,1.406,1.116,1.406a1.882,1.882,0,0,0,.905-.255Zm9.053.105h-2.628V17.708h-.035A2.933,2.933,0,0,1,121.7,19.22a2.8,2.8,0,0,1-2.061-.743,2.661,2.661,0,0,1-.751-1.982q0-2.619,3.1-3.023l2.443-.325q0-1.477-1.6-1.477a5.46,5.46,0,0,0-3.059.958V10.536a6.881,6.881,0,0,1,1.586-.527,8.339,8.339,0,0,1,1.833-.229q3.85,0,3.85,3.841Zm-2.61-3.656v-.606l-1.635.211q-1.354.176-1.354,1.222a1.01,1.01,0,0,0,.33.778,1.266,1.266,0,0,0,.892.3,1.644,1.644,0,0,0,1.274-.541A1.952,1.952,0,0,0,124.431,15.344ZM135.11,12.5a2.409,2.409,0,0,0-1.169-.272,1.684,1.684,0,0,0-1.415.664,2.9,2.9,0,0,0-.51,1.806V19h-2.777V10h2.777v1.67h.035a2.4,2.4,0,0,1,2.373-1.828,1.788,1.788,0,0,1,.686.105Zm2.769-3.929a1.622,1.622,0,0,1-1.151-.417,1.345,1.345,0,0,1-.448-1.024,1.3,1.3,0,0,1,.448-1.02,1.88,1.88,0,0,1,2.307,0,1.3,1.3,0,0,1,.444,1.02,1.34,1.34,0,0,1-.444,1.037A1.65,1.65,0,0,1,137.878,8.576ZM139.25,19h-2.777V10h2.777Zm6.627.22a4.838,4.838,0,0,1-3.538-1.261,4.573,4.573,0,0,1-1.288-3.423,4.573,4.573,0,0,1,1.336-3.494A5.048,5.048,0,0,1,146,9.78a4.78,4.78,0,0,1,3.516,1.261,4.483,4.483,0,0,1,1.274,3.335,4.759,4.759,0,0,1-1.314,3.542A4.892,4.892,0,0,1,145.876,19.22Zm.07-7.312a1.852,1.852,0,0,0-1.529.677,2.984,2.984,0,0,0-.545,1.916q0,2.593,2.092,2.593,2,0,2-2.663Q147.959,11.907,145.947,11.907ZM26.455,41.954H26.42V47.14H23.643V34H26.42v1.354h.035a3.534,3.534,0,0,1,5.594-.374A5.108,5.108,0,0,1,33,38.245a5.537,5.537,0,0,1-1.112,3.612,3.625,3.625,0,0,1-2.958,1.362A2.8,2.8,0,0,1,26.455,41.954Zm-.079-3.691v.721a2.291,2.291,0,0,0,.492,1.521,1.6,1.6,0,0,0,1.292.589,1.7,1.7,0,0,0,1.472-.734,3.543,3.543,0,0,0,.523-2.079q0-2.373-1.846-2.373a1.733,1.733,0,0,0-1.393.646A2.576,2.576,0,0,0,26.376,38.263Zm14.3-1.758a2.409,2.409,0,0,0-1.169-.272,1.684,1.684,0,0,0-1.415.664,2.9,2.9,0,0,0-.51,1.806V43H34.8V34h2.777v1.67h.035a2.4,2.4,0,0,1,2.373-1.828,1.788,1.788,0,0,1,.686.105Zm5.511,6.715a4.838,4.838,0,0,1-3.538-1.261,4.573,4.573,0,0,1-1.288-3.423A4.573,4.573,0,0,1,42.7,35.042,5.048,5.048,0,0,1,46.31,33.78a4.78,4.78,0,0,1,3.516,1.261A4.483,4.483,0,0,1,51.1,38.377a4.759,4.759,0,0,1-1.314,3.542A4.892,4.892,0,0,1,46.187,43.22Zm.07-7.312a1.852,1.852,0,0,0-1.529.677,2.984,2.984,0,0,0-.545,1.916q0,2.593,2.092,2.593,2,0,2-2.663Q48.27,35.907,46.257,35.907ZM61.708,43H58.931V41.761H58.9a3.114,3.114,0,0,1-2.786,1.459,3.412,3.412,0,0,1-2.716-1.191A4.93,4.93,0,0,1,52.365,38.7,5.366,5.366,0,0,1,53.5,35.125,3.7,3.7,0,0,1,56.47,33.78,2.527,2.527,0,0,1,58.9,35.028h.035V29.676h2.777Zm-2.725-4.377v-.677a2.13,2.13,0,0,0-.51-1.459,1.8,1.8,0,0,0-2.769.145,3.367,3.367,0,0,0-.519,1.991,2.914,2.914,0,0,0,.5,1.828,1.779,1.779,0,0,0,2.764-.035A2.821,2.821,0,0,0,58.983,38.623ZM72.6,43H69.829V41.629h-.044a3.141,3.141,0,0,1-2.751,1.591q-3.129,0-3.129-3.788V34h2.769v5.186q0,1.907,1.512,1.907a1.5,1.5,0,0,0,1.2-.523,2.109,2.109,0,0,0,.448-1.419V34H72.6Zm9.158-.325a5.492,5.492,0,0,1-2.716.545,4.593,4.593,0,0,1-3.357-1.257A4.341,4.341,0,0,1,74.4,38.72,4.782,4.782,0,0,1,75.775,35.1a5.083,5.083,0,0,1,3.678-1.323,4.72,4.72,0,0,1,2.3.422v2.355a3.166,3.166,0,0,0-1.942-.65,2.559,2.559,0,0,0-1.894.7,2.607,2.607,0,0,0-.7,1.929,2.565,2.565,0,0,0,.668,1.876,2.455,2.455,0,0,0,1.837.681,3.666,3.666,0,0,0,2.03-.65Zm7.26.22a4.105,4.105,0,0,1-1.854.325q-2.936,0-2.936-3.05V36.048H82.767V34h1.459V32.058l2.769-.791V34h2.021v2.048H86.994v3.639q0,1.406,1.116,1.406a1.882,1.882,0,0,0,.905-.255Zm5.783.325a4.838,4.838,0,0,1-3.538-1.261,4.573,4.573,0,0,1-1.288-3.423,4.573,4.573,0,0,1,1.336-3.494,5.048,5.048,0,0,1,3.612-1.261,4.78,4.78,0,0,1,3.516,1.261,4.483,4.483,0,0,1,1.274,3.335A4.759,4.759,0,0,1,98.4,41.919,4.892,4.892,0,0,1,94.8,43.22Zm.07-7.312a1.852,1.852,0,0,0-1.529.677,2.984,2.984,0,0,0-.545,1.916q0,2.593,2.092,2.593,2,0,2-2.663Q96.882,35.907,94.869,35.907Zm17.051,6.987a4.105,4.105,0,0,1-1.854.325q-2.936,0-2.936-3.05V36.048h-1.459V34h1.459V32.058l2.769-.791V34h2.021v2.048H109.9v3.639q0,1.406,1.116,1.406a1.882,1.882,0,0,0,.905-.255Zm9.58-3.6h-5.871q.141,1.96,2.47,1.96a4.822,4.822,0,0,0,2.61-.7v2a6.858,6.858,0,0,1-3.243.668,4.189,4.189,0,0,1-4.588-4.579,4.816,4.816,0,0,1,1.3-3.551,4.334,4.334,0,0,1,3.2-1.31,3.933,3.933,0,0,1,3.045,1.169,4.5,4.5,0,0,1,1.077,3.173Zm-2.575-1.705q0-1.934-1.564-1.934a1.494,1.494,0,0,0-1.156.554,2.513,2.513,0,0,0-.593,1.38Zm10.1-1.081a2.409,2.409,0,0,0-1.169-.272,1.684,1.684,0,0,0-1.415.664,2.9,2.9,0,0,0-.51,1.806V43h-2.777V34h2.777v1.67h.035a2.4,2.4,0,0,1,2.373-1.828,1.788,1.788,0,0,1,.686.105ZM144.659,43h-2.769V37.867q0-1.96-1.441-1.96a1.324,1.324,0,0,0-1.116.589,2.42,2.42,0,0,0-.431,1.468V43h-2.777V37.814q0-1.907-1.415-1.907a1.356,1.356,0,0,0-1.138.563A2.475,2.475,0,0,0,133.146,38v5h-2.777V34h2.777v1.406h.035a3.41,3.41,0,0,1,2.909-1.626,2.592,2.592,0,0,1,2.61,1.679,3.329,3.329,0,0,1,3.023-1.679q2.936,0,2.936,3.621Zm3.6-10.424a1.622,1.622,0,0,1-1.151-.417,1.345,1.345,0,0,1-.448-1.024,1.3,1.3,0,0,1,.448-1.02,1.88,1.88,0,0,1,2.307,0,1.3,1.3,0,0,1,.444,1.02,1.34,1.34,0,0,1-.444,1.037A1.65,1.65,0,0,1,148.263,32.576ZM149.634,43h-2.777V34h2.777Zm11.03,0H157.9V38q0-2.092-1.494-2.092a1.483,1.483,0,0,0-1.187.554,2.109,2.109,0,0,0-.466,1.406V43h-2.777V34h2.777v1.424h.035a3.183,3.183,0,0,1,2.892-1.644q2.988,0,2.988,3.709Zm9.686,0h-2.628V41.708h-.035a2.933,2.933,0,0,1-2.681,1.512,2.8,2.8,0,0,1-2.061-.743,2.661,2.661,0,0,1-.751-1.982q0-2.619,3.1-3.023l2.443-.325q0-1.477-1.6-1.477a5.46,5.46,0,0,0-3.059.958V34.536a6.881,6.881,0,0,1,1.586-.527,8.339,8.339,0,0,1,1.833-.229q3.85,0,3.85,3.841Zm-2.61-3.656v-.606l-1.635.211q-1.354.176-1.354,1.222a1.01,1.01,0,0,0,.33.778,1.266,1.266,0,0,0,.892.3,1.644,1.644,0,0,0,1.274-.541A1.952,1.952,0,0,0,167.739,39.344ZM181.354,43h-2.777V41.761h-.035a3.114,3.114,0,0,1-2.786,1.459,3.412,3.412,0,0,1-2.716-1.191,4.93,4.93,0,0,1-1.028-3.327,5.366,5.366,0,0,1,1.134-3.577,3.7,3.7,0,0,1,2.971-1.345,2.527,2.527,0,0,1,2.426,1.248h.035V29.676h2.777Zm-2.725-4.377v-.677a2.13,2.13,0,0,0-.51-1.459,1.8,1.8,0,0,0-2.769.145,3.367,3.367,0,0,0-.519,1.991,2.914,2.914,0,0,0,.5,1.828,1.779,1.779,0,0,0,2.764-.035A2.821,2.821,0,0,0,178.629,38.623Zm9.352,4.6a4.838,4.838,0,0,1-3.538-1.261,4.573,4.573,0,0,1-1.288-3.423,4.573,4.573,0,0,1,1.336-3.494A5.048,5.048,0,0,1,188.1,33.78a4.78,4.78,0,0,1,3.516,1.261,4.483,4.483,0,0,1,1.274,3.335,4.759,4.759,0,0,1-1.314,3.542A4.892,4.892,0,0,1,187.98,43.22Zm.07-7.312a1.852,1.852,0,0,0-1.529.677,2.984,2.984,0,0,0-.545,1.916q0,2.593,2.092,2.593,2,0,2-2.663Q190.063,35.907,188.051,35.907Z" transform="translate(948.591 1523)" fill="#00223d"/>
    <rect id="Rectángulo_35451-5" data-name="Rectángulo 35451" width="216" height="90" transform="translate(1203.591 1499)" fill="#eef0f2"/>
    <path id="Trazado_155375" data-name="Trazado 155375" d="M55.573,18.552a8.311,8.311,0,0,1-3.6.668,6.074,6.074,0,0,1-4.562-1.705,6.233,6.233,0,0,1-1.661-4.544,6.659,6.659,0,0,1,1.868-4.9,6.533,6.533,0,0,1,4.847-1.881,9.065,9.065,0,0,1,3.111.466V9.385a5.513,5.513,0,0,0-2.883-.756,3.824,3.824,0,0,0-2.865,1.116,4.142,4.142,0,0,0-1.09,3.023,4.062,4.062,0,0,0,1.028,2.914,3.633,3.633,0,0,0,2.769,1.085,5.905,5.905,0,0,0,3.041-.809Zm6.214.668a4.838,4.838,0,0,1-3.538-1.261,4.573,4.573,0,0,1-1.288-3.423A4.573,4.573,0,0,1,58.3,11.042,5.048,5.048,0,0,1,61.91,9.78a4.78,4.78,0,0,1,3.516,1.261A4.483,4.483,0,0,1,66.7,14.377a4.759,4.759,0,0,1-1.314,3.542A4.892,4.892,0,0,1,61.787,19.22Zm.07-7.312a1.852,1.852,0,0,0-1.529.677,2.984,2.984,0,0,0-.545,1.916q0,2.593,2.092,2.593,2,0,2-2.663Q63.87,11.907,61.857,11.907Zm6.056,6.855v-2.25a5.913,5.913,0,0,0,1.367.615,4.531,4.531,0,0,0,1.288.2,2.762,2.762,0,0,0,1.165-.2.653.653,0,0,0,.426-.615.569.569,0,0,0-.193-.439,1.8,1.8,0,0,0-.5-.308,5.635,5.635,0,0,0-.664-.237q-.36-.105-.694-.237a6.653,6.653,0,0,1-.945-.435,2.731,2.731,0,0,1-.686-.541,2.125,2.125,0,0,1-.422-.712,2.841,2.841,0,0,1-.145-.958,2.466,2.466,0,0,1,.33-1.3,2.692,2.692,0,0,1,.879-.892,4.016,4.016,0,0,1,1.257-.51,6.553,6.553,0,0,1,1.472-.163,8.168,8.168,0,0,1,1.213.092,9.053,9.053,0,0,1,1.213.268v2.145a4.383,4.383,0,0,0-1.129-.461,4.764,4.764,0,0,0-1.182-.154,2.619,2.619,0,0,0-.514.048,1.693,1.693,0,0,0-.426.141.783.783,0,0,0-.29.237.546.546,0,0,0-.105.33.609.609,0,0,0,.158.422,1.374,1.374,0,0,0,.413.3,4.078,4.078,0,0,0,.567.229q.312.1.62.207a8.056,8.056,0,0,1,1,.422,3.2,3.2,0,0,1,.769.536,2.105,2.105,0,0,1,.492.721,2.884,2.884,0,0,1-.176,2.351,2.78,2.78,0,0,1-.923.923,4.185,4.185,0,0,1-1.327.519,7.357,7.357,0,0,1-1.56.163A8.042,8.042,0,0,1,67.913,18.763Zm13.948.132a4.105,4.105,0,0,1-1.854.325q-2.936,0-2.936-3.05V12.048H75.612V10h1.459V8.058l2.769-.791V10h2.021v2.048H79.84v3.639q0,1.406,1.116,1.406a1.882,1.882,0,0,0,.905-.255Zm5.783.325a4.838,4.838,0,0,1-3.538-1.261,4.573,4.573,0,0,1-1.288-3.423,4.573,4.573,0,0,1,1.336-3.494A5.048,5.048,0,0,1,87.768,9.78a4.78,4.78,0,0,1,3.516,1.261,4.483,4.483,0,0,1,1.274,3.335,4.759,4.759,0,0,1-1.314,3.542A4.892,4.892,0,0,1,87.645,19.22Zm.07-7.312a1.852,1.852,0,0,0-1.529.677,2.984,2.984,0,0,0-.545,1.916q0,2.593,2.092,2.593,2,0,2-2.663Q89.728,11.907,87.715,11.907ZM108.132,19h-2.777V17.761h-.035a3.114,3.114,0,0,1-2.786,1.459,3.412,3.412,0,0,1-2.716-1.191A4.93,4.93,0,0,1,98.789,14.7a5.366,5.366,0,0,1,1.134-3.577,3.7,3.7,0,0,1,2.971-1.345,2.527,2.527,0,0,1,2.426,1.248h.035V5.676h2.777Zm-2.725-4.377v-.677a2.13,2.13,0,0,0-.51-1.459,1.8,1.8,0,0,0-2.769.145,3.367,3.367,0,0,0-.519,1.991,2.914,2.914,0,0,0,.5,1.828,1.779,1.779,0,0,0,2.764-.035A2.821,2.821,0,0,0,105.407,14.623Zm13.148.668h-5.871q.141,1.96,2.47,1.96a4.822,4.822,0,0,0,2.61-.7v2a6.858,6.858,0,0,1-3.243.668,4.565,4.565,0,0,1-3.384-1.208,4.566,4.566,0,0,1-1.2-3.371,4.816,4.816,0,0,1,1.3-3.551,4.334,4.334,0,0,1,3.2-1.31,3.933,3.933,0,0,1,3.045,1.169,4.5,4.5,0,0,1,1.077,3.173Zm-2.575-1.705q0-1.934-1.564-1.934a1.494,1.494,0,0,0-1.156.554,2.513,2.513,0,0,0-.593,1.38ZM133.743,10l-3.349,9H127.23l-3.19-9h2.971l1.564,5.546a8.1,8.1,0,0,1,.308,1.6h.035a9.078,9.078,0,0,1,.325-1.547l1.6-5.6Zm9.1,5.291h-5.871q.141,1.96,2.47,1.96a4.822,4.822,0,0,0,2.61-.7v2a6.858,6.858,0,0,1-3.243.668,4.565,4.565,0,0,1-3.384-1.208,4.566,4.566,0,0,1-1.2-3.371,4.816,4.816,0,0,1,1.3-3.551,4.334,4.334,0,0,1,3.2-1.31,3.933,3.933,0,0,1,3.045,1.169,4.5,4.5,0,0,1,1.077,3.173Zm-2.575-1.705q0-1.934-1.564-1.934a1.494,1.494,0,0,0-1.156.554,2.513,2.513,0,0,0-.593,1.38ZM153.185,19h-2.769V14q0-2.092-1.494-2.092a1.483,1.483,0,0,0-1.187.554,2.109,2.109,0,0,0-.466,1.406V19h-2.777V10h2.777v1.424h.035A3.183,3.183,0,0,1,150.2,9.78q2.988,0,2.988,3.709Zm7.638-.105a4.105,4.105,0,0,1-1.854.325q-2.936,0-2.936-3.05V12.048h-1.459V10h1.459V8.058l2.769-.791V10h2.021v2.048H158.8v3.639q0,1.406,1.116,1.406a1.882,1.882,0,0,0,.905-.255Zm9.053.105h-2.628V17.708h-.035a2.933,2.933,0,0,1-2.681,1.512,2.8,2.8,0,0,1-2.061-.743,2.661,2.661,0,0,1-.751-1.982q0-2.619,3.1-3.023l2.443-.325q0-1.477-1.6-1.477a5.46,5.46,0,0,0-3.059.958V10.536a6.881,6.881,0,0,1,1.586-.527,8.339,8.339,0,0,1,1.833-.229q3.85,0,3.85,3.841Zm-2.61-3.656v-.606l-1.635.211q-1.354.176-1.354,1.222a1.01,1.01,0,0,0,.33.778,1.266,1.266,0,0,0,.892.3,1.644,1.644,0,0,0,1.274-.541A1.952,1.952,0,0,0,167.265,15.344Z" transform="translate(1203.591 1535)" fill="#00223d"/>
    <g id="Grupo_92859" data-name="Grupo 92859" transform="translate(-175.797 1053.377)">
      <g id="Grupo_90996" data-name="Grupo 90996" transform="translate(584.388 493.29)">
        <path id="Trazado_145056" data-name="Trazado 145056" d="M587.388,583.232a1.5,1.5,0,1,1-1.5-1.5A1.5,1.5,0,0,1,587.388,583.232Z" transform="translate(-584.388 -581.732)" fill="#17c878"/>
      </g>
      <g id="Grupo_90997" data-name="Grupo 90997" transform="translate(584.388 496.956)">
        <path id="Trazado_145057" data-name="Trazado 145057" d="M587.388,609.009a1.5,1.5,0,1,1-1.5-1.5A1.5,1.5,0,0,1,587.388,609.009Z" transform="translate(-584.388 -607.509)" fill="#17c878"/>
      </g>
      <g id="Grupo_90998" data-name="Grupo 90998" transform="translate(588.055 497.29)">
        <path id="Trazado_145058" data-name="Trazado 145058" d="M613.166,611.353a1.5,1.5,0,1,1-1.5-1.5A1.5,1.5,0,0,1,613.166,611.353Z" transform="translate(-610.166 -609.853)" fill="#17c878"/>
      </g>
      <g id="Grupo_90999" data-name="Grupo 90999" transform="translate(584.388 500.623)">
        <path id="Trazado_145059" data-name="Trazado 145059" d="M587.388,634.787a1.5,1.5,0,1,1-1.5-1.5A1.5,1.5,0,0,1,587.388,634.787Z" transform="translate(-584.388 -633.287)" fill="#17c878"/>
      </g>
      <g id="Grupo_91000" data-name="Grupo 91000" transform="translate(584.388 478.623)">
        <path id="Trazado_145060" data-name="Trazado 145060" d="M587.388,480.123a1.5,1.5,0,1,1-1.5-1.5A1.5,1.5,0,0,1,587.388,480.123Z" transform="translate(-584.388 -478.623)" fill="#17c878"/>
      </g>
      <g id="Grupo_91001" data-name="Grupo 91001" transform="translate(584.388 489.623)">
        <path id="Trazado_145061" data-name="Trazado 145061" d="M587.388,557.455a1.5,1.5,0,1,1-1.5-1.5A1.5,1.5,0,0,1,587.388,557.455Z" transform="translate(-584.388 -555.955)" fill="#17c878"/>
      </g>
      <g id="Grupo_91002" data-name="Grupo 91002" transform="translate(588.055 489.79)">
        <path id="Trazado_145062" data-name="Trazado 145062" d="M613.166,558.627a1.5,1.5,0,1,1-1.5-1.5A1.5,1.5,0,0,1,613.166,558.627Z" transform="translate(-610.166 -557.127)" fill="#17c878"/>
      </g>
      <g id="Grupo_91003" data-name="Grupo 91003" transform="translate(588.055 493.54)">
        <path id="Trazado_145063" data-name="Trazado 145063" d="M613.166,584.99a1.5,1.5,0,1,1-1.5-1.5A1.5,1.5,0,0,1,613.166,584.99Z" transform="translate(-610.166 -583.49)" fill="#17c878"/>
      </g>
      <g id="Grupo_91004" data-name="Grupo 91004" transform="translate(584.388 485.956)">
        <path id="Trazado_145064" data-name="Trazado 145064" d="M587.388,531.677a1.5,1.5,0,1,1-1.5-1.5A1.5,1.5,0,0,1,587.388,531.677Z" transform="translate(-584.388 -530.177)" fill="#17c878"/>
      </g>
      <g id="Grupo_91005" data-name="Grupo 91005" transform="translate(588.055 486.04)">
        <path id="Trazado_145065" data-name="Trazado 145065" d="M613.166,532.264a1.5,1.5,0,1,1-1.5-1.5A1.5,1.5,0,0,1,613.166,532.264Z" transform="translate(-610.166 -530.764)" fill="#17c878"/>
      </g>
      <g id="Grupo_91006" data-name="Grupo 91006" transform="translate(584.388 482.29)">
        <path id="Trazado_145066" data-name="Trazado 145066" d="M587.388,505.9a1.5,1.5,0,1,1-1.5-1.5A1.5,1.5,0,0,1,587.388,505.9Z" transform="translate(-584.388 -504.4)" fill="#17c878"/>
      </g>
      <g id="Grupo_91007" data-name="Grupo 91007" transform="translate(588.055 482.29)">
        <path id="Trazado_145067" data-name="Trazado 145067" d="M613.166,505.9a1.5,1.5,0,1,1-1.5-1.5A1.5,1.5,0,0,1,613.166,505.9Z" transform="translate(-610.166 -504.4)" fill="#17c878"/>
      </g>
      <g id="Grupo_91008" data-name="Grupo 91008" transform="translate(591.721 489.623)">
        <path id="Trazado_145068" data-name="Trazado 145068" d="M638.943,557.455a1.5,1.5,0,1,1-1.5-1.5A1.5,1.5,0,0,1,638.943,557.455Z" transform="translate(-635.943 -555.955)" fill="#17c878"/>
      </g>
      <g id="Grupo_91009" data-name="Grupo 91009" transform="translate(591.721 493.29)">
        <path id="Trazado_145069" data-name="Trazado 145069" d="M638.943,583.232a1.5,1.5,0,1,1-1.5-1.5A1.5,1.5,0,0,1,638.943,583.232Z" transform="translate(-635.943 -581.732)" fill="#17c878"/>
      </g>
      <g id="Grupo_91010" data-name="Grupo 91010" transform="translate(595.388 489.623)">
        <path id="Trazado_145070" data-name="Trazado 145070" d="M664.72,557.455a1.5,1.5,0,1,1-1.5-1.5A1.5,1.5,0,0,1,664.72,557.455Z" transform="translate(-661.72 -555.955)" fill="#17c878"/>
      </g>
      <g id="Grupo_91011" data-name="Grupo 91011" transform="translate(591.721 485.956)">
        <path id="Trazado_145071" data-name="Trazado 145071" d="M638.943,531.677a1.5,1.5,0,1,1-1.5-1.5A1.5,1.5,0,0,1,638.943,531.677Z" transform="translate(-635.943 -530.177)" fill="#17c878"/>
      </g>
    </g>
    <g id="Grupo_92860" data-name="Grupo 92860" transform="translate(80.203 1053.377)">
      <g id="Grupo_90996-2" data-name="Grupo 90996" transform="translate(584.388 493.29)">
        <path id="Trazado_145056-2" data-name="Trazado 145056" d="M587.388,583.232a1.5,1.5,0,1,1-1.5-1.5A1.5,1.5,0,0,1,587.388,583.232Z" transform="translate(-584.388 -581.732)" fill="#17c878"/>
      </g>
      <g id="Grupo_90997-2" data-name="Grupo 90997" transform="translate(584.388 496.956)">
        <path id="Trazado_145057-2" data-name="Trazado 145057" d="M587.388,609.009a1.5,1.5,0,1,1-1.5-1.5A1.5,1.5,0,0,1,587.388,609.009Z" transform="translate(-584.388 -607.509)" fill="#17c878"/>
      </g>
      <g id="Grupo_90998-2" data-name="Grupo 90998" transform="translate(588.055 497.29)">
        <path id="Trazado_145058-2" data-name="Trazado 145058" d="M613.166,611.353a1.5,1.5,0,1,1-1.5-1.5A1.5,1.5,0,0,1,613.166,611.353Z" transform="translate(-610.166 -609.853)" fill="#17c878"/>
      </g>
      <g id="Grupo_90999-2" data-name="Grupo 90999" transform="translate(584.388 500.623)">
        <path id="Trazado_145059-2" data-name="Trazado 145059" d="M587.388,634.787a1.5,1.5,0,1,1-1.5-1.5A1.5,1.5,0,0,1,587.388,634.787Z" transform="translate(-584.388 -633.287)" fill="#17c878"/>
      </g>
      <g id="Grupo_91000-2" data-name="Grupo 91000" transform="translate(584.388 478.623)">
        <path id="Trazado_145060-2" data-name="Trazado 145060" d="M587.388,480.123a1.5,1.5,0,1,1-1.5-1.5A1.5,1.5,0,0,1,587.388,480.123Z" transform="translate(-584.388 -478.623)" fill="#17c878"/>
      </g>
      <g id="Grupo_91001-2" data-name="Grupo 91001" transform="translate(584.388 489.623)">
        <path id="Trazado_145061-2" data-name="Trazado 145061" d="M587.388,557.455a1.5,1.5,0,1,1-1.5-1.5A1.5,1.5,0,0,1,587.388,557.455Z" transform="translate(-584.388 -555.955)" fill="#17c878"/>
      </g>
      <g id="Grupo_91002-2" data-name="Grupo 91002" transform="translate(588.055 489.79)">
        <path id="Trazado_145062-2" data-name="Trazado 145062" d="M613.166,558.627a1.5,1.5,0,1,1-1.5-1.5A1.5,1.5,0,0,1,613.166,558.627Z" transform="translate(-610.166 -557.127)" fill="#17c878"/>
      </g>
      <g id="Grupo_91003-2" data-name="Grupo 91003" transform="translate(588.055 493.54)">
        <path id="Trazado_145063-2" data-name="Trazado 145063" d="M613.166,584.99a1.5,1.5,0,1,1-1.5-1.5A1.5,1.5,0,0,1,613.166,584.99Z" transform="translate(-610.166 -583.49)" fill="#17c878"/>
      </g>
      <g id="Grupo_91004-2" data-name="Grupo 91004" transform="translate(584.388 485.956)">
        <path id="Trazado_145064-2" data-name="Trazado 145064" d="M587.388,531.677a1.5,1.5,0,1,1-1.5-1.5A1.5,1.5,0,0,1,587.388,531.677Z" transform="translate(-584.388 -530.177)" fill="#17c878"/>
      </g>
      <g id="Grupo_91005-2" data-name="Grupo 91005" transform="translate(588.055 486.04)">
        <path id="Trazado_145065-2" data-name="Trazado 145065" d="M613.166,532.264a1.5,1.5,0,1,1-1.5-1.5A1.5,1.5,0,0,1,613.166,532.264Z" transform="translate(-610.166 -530.764)" fill="#17c878"/>
      </g>
      <g id="Grupo_91006-2" data-name="Grupo 91006" transform="translate(584.388 482.29)">
        <path id="Trazado_145066-2" data-name="Trazado 145066" d="M587.388,505.9a1.5,1.5,0,1,1-1.5-1.5A1.5,1.5,0,0,1,587.388,505.9Z" transform="translate(-584.388 -504.4)" fill="#17c878"/>
      </g>
      <g id="Grupo_91007-2" data-name="Grupo 91007" transform="translate(588.055 482.29)">
        <path id="Trazado_145067-2" data-name="Trazado 145067" d="M613.166,505.9a1.5,1.5,0,1,1-1.5-1.5A1.5,1.5,0,0,1,613.166,505.9Z" transform="translate(-610.166 -504.4)" fill="#17c878"/>
      </g>
      <g id="Grupo_91008-2" data-name="Grupo 91008" transform="translate(591.721 489.623)">
        <path id="Trazado_145068-2" data-name="Trazado 145068" d="M638.943,557.455a1.5,1.5,0,1,1-1.5-1.5A1.5,1.5,0,0,1,638.943,557.455Z" transform="translate(-635.943 -555.955)" fill="#17c878"/>
      </g>
      <g id="Grupo_91009-2" data-name="Grupo 91009" transform="translate(591.721 493.29)">
        <path id="Trazado_145069-2" data-name="Trazado 145069" d="M638.943,583.232a1.5,1.5,0,1,1-1.5-1.5A1.5,1.5,0,0,1,638.943,583.232Z" transform="translate(-635.943 -581.732)" fill="#17c878"/>
      </g>
      <g id="Grupo_91010-2" data-name="Grupo 91010" transform="translate(595.388 489.623)">
        <path id="Trazado_145070-2" data-name="Trazado 145070" d="M664.72,557.455a1.5,1.5,0,1,1-1.5-1.5A1.5,1.5,0,0,1,664.72,557.455Z" transform="translate(-661.72 -555.955)" fill="#17c878"/>
      </g>
      <g id="Grupo_91011-2" data-name="Grupo 91011" transform="translate(591.721 485.956)">
        <path id="Trazado_145071-2" data-name="Trazado 145071" d="M638.943,531.677a1.5,1.5,0,1,1-1.5-1.5A1.5,1.5,0,0,1,638.943,531.677Z" transform="translate(-635.943 -530.177)" fill="#17c878"/>
      </g>
    </g>
    <g id="Grupo_92861" data-name="Grupo 92861" transform="translate(337.203 1053.377)">
      <g id="Grupo_90996-3" data-name="Grupo 90996" transform="translate(584.388 493.29)">
        <path id="Trazado_145056-3" data-name="Trazado 145056" d="M587.388,583.232a1.5,1.5,0,1,1-1.5-1.5A1.5,1.5,0,0,1,587.388,583.232Z" transform="translate(-584.388 -581.732)" fill="#17c878"/>
      </g>
      <g id="Grupo_90997-3" data-name="Grupo 90997" transform="translate(584.388 496.956)">
        <path id="Trazado_145057-3" data-name="Trazado 145057" d="M587.388,609.009a1.5,1.5,0,1,1-1.5-1.5A1.5,1.5,0,0,1,587.388,609.009Z" transform="translate(-584.388 -607.509)" fill="#17c878"/>
      </g>
      <g id="Grupo_90998-3" data-name="Grupo 90998" transform="translate(588.055 497.29)">
        <path id="Trazado_145058-3" data-name="Trazado 145058" d="M613.166,611.353a1.5,1.5,0,1,1-1.5-1.5A1.5,1.5,0,0,1,613.166,611.353Z" transform="translate(-610.166 -609.853)" fill="#17c878"/>
      </g>
      <g id="Grupo_90999-3" data-name="Grupo 90999" transform="translate(584.388 500.623)">
        <path id="Trazado_145059-3" data-name="Trazado 145059" d="M587.388,634.787a1.5,1.5,0,1,1-1.5-1.5A1.5,1.5,0,0,1,587.388,634.787Z" transform="translate(-584.388 -633.287)" fill="#17c878"/>
      </g>
      <g id="Grupo_91000-3" data-name="Grupo 91000" transform="translate(584.388 478.623)">
        <path id="Trazado_145060-3" data-name="Trazado 145060" d="M587.388,480.123a1.5,1.5,0,1,1-1.5-1.5A1.5,1.5,0,0,1,587.388,480.123Z" transform="translate(-584.388 -478.623)" fill="#17c878"/>
      </g>
      <g id="Grupo_91001-3" data-name="Grupo 91001" transform="translate(584.388 489.623)">
        <path id="Trazado_145061-3" data-name="Trazado 145061" d="M587.388,557.455a1.5,1.5,0,1,1-1.5-1.5A1.5,1.5,0,0,1,587.388,557.455Z" transform="translate(-584.388 -555.955)" fill="#17c878"/>
      </g>
      <g id="Grupo_91002-3" data-name="Grupo 91002" transform="translate(588.055 489.79)">
        <path id="Trazado_145062-3" data-name="Trazado 145062" d="M613.166,558.627a1.5,1.5,0,1,1-1.5-1.5A1.5,1.5,0,0,1,613.166,558.627Z" transform="translate(-610.166 -557.127)" fill="#17c878"/>
      </g>
      <g id="Grupo_91003-3" data-name="Grupo 91003" transform="translate(588.055 493.54)">
        <path id="Trazado_145063-3" data-name="Trazado 145063" d="M613.166,584.99a1.5,1.5,0,1,1-1.5-1.5A1.5,1.5,0,0,1,613.166,584.99Z" transform="translate(-610.166 -583.49)" fill="#17c878"/>
      </g>
      <g id="Grupo_91004-3" data-name="Grupo 91004" transform="translate(584.388 485.956)">
        <path id="Trazado_145064-3" data-name="Trazado 145064" d="M587.388,531.677a1.5,1.5,0,1,1-1.5-1.5A1.5,1.5,0,0,1,587.388,531.677Z" transform="translate(-584.388 -530.177)" fill="#17c878"/>
      </g>
      <g id="Grupo_91005-3" data-name="Grupo 91005" transform="translate(588.055 486.04)">
        <path id="Trazado_145065-3" data-name="Trazado 145065" d="M613.166,532.264a1.5,1.5,0,1,1-1.5-1.5A1.5,1.5,0,0,1,613.166,532.264Z" transform="translate(-610.166 -530.764)" fill="#17c878"/>
      </g>
      <g id="Grupo_91006-3" data-name="Grupo 91006" transform="translate(584.388 482.29)">
        <path id="Trazado_145066-3" data-name="Trazado 145066" d="M587.388,505.9a1.5,1.5,0,1,1-1.5-1.5A1.5,1.5,0,0,1,587.388,505.9Z" transform="translate(-584.388 -504.4)" fill="#17c878"/>
      </g>
      <g id="Grupo_91007-3" data-name="Grupo 91007" transform="translate(588.055 482.29)">
        <path id="Trazado_145067-3" data-name="Trazado 145067" d="M613.166,505.9a1.5,1.5,0,1,1-1.5-1.5A1.5,1.5,0,0,1,613.166,505.9Z" transform="translate(-610.166 -504.4)" fill="#17c878"/>
      </g>
      <g id="Grupo_91008-3" data-name="Grupo 91008" transform="translate(591.721 489.623)">
        <path id="Trazado_145068-3" data-name="Trazado 145068" d="M638.943,557.455a1.5,1.5,0,1,1-1.5-1.5A1.5,1.5,0,0,1,638.943,557.455Z" transform="translate(-635.943 -555.955)" fill="#17c878"/>
      </g>
      <g id="Grupo_91009-3" data-name="Grupo 91009" transform="translate(591.721 493.29)">
        <path id="Trazado_145069-3" data-name="Trazado 145069" d="M638.943,583.232a1.5,1.5,0,1,1-1.5-1.5A1.5,1.5,0,0,1,638.943,583.232Z" transform="translate(-635.943 -581.732)" fill="#17c878"/>
      </g>
      <g id="Grupo_91010-3" data-name="Grupo 91010" transform="translate(595.388 489.623)">
        <path id="Trazado_145070-3" data-name="Trazado 145070" d="M664.72,557.455a1.5,1.5,0,1,1-1.5-1.5A1.5,1.5,0,0,1,664.72,557.455Z" transform="translate(-661.72 -555.955)" fill="#17c878"/>
      </g>
      <g id="Grupo_91011-3" data-name="Grupo 91011" transform="translate(591.721 485.956)">
        <path id="Trazado_145071-3" data-name="Trazado 145071" d="M638.943,531.677a1.5,1.5,0,1,1-1.5-1.5A1.5,1.5,0,0,1,638.943,531.677Z" transform="translate(-635.943 -530.177)" fill="#17c878"/>
      </g>
    </g>
    <g id="Grupo_92862" data-name="Grupo 92862" transform="translate(593.203 1053.377)">
      <g id="Grupo_90996-4" data-name="Grupo 90996" transform="translate(584.388 493.29)">
        <path id="Trazado_145056-4" data-name="Trazado 145056" d="M587.388,583.232a1.5,1.5,0,1,1-1.5-1.5A1.5,1.5,0,0,1,587.388,583.232Z" transform="translate(-584.388 -581.732)" fill="#17c878"/>
      </g>
      <g id="Grupo_90997-4" data-name="Grupo 90997" transform="translate(584.388 496.956)">
        <path id="Trazado_145057-4" data-name="Trazado 145057" d="M587.388,609.009a1.5,1.5,0,1,1-1.5-1.5A1.5,1.5,0,0,1,587.388,609.009Z" transform="translate(-584.388 -607.509)" fill="#17c878"/>
      </g>
      <g id="Grupo_90998-4" data-name="Grupo 90998" transform="translate(588.055 497.29)">
        <path id="Trazado_145058-4" data-name="Trazado 145058" d="M613.166,611.353a1.5,1.5,0,1,1-1.5-1.5A1.5,1.5,0,0,1,613.166,611.353Z" transform="translate(-610.166 -609.853)" fill="#17c878"/>
      </g>
      <g id="Grupo_90999-4" data-name="Grupo 90999" transform="translate(584.388 500.623)">
        <path id="Trazado_145059-4" data-name="Trazado 145059" d="M587.388,634.787a1.5,1.5,0,1,1-1.5-1.5A1.5,1.5,0,0,1,587.388,634.787Z" transform="translate(-584.388 -633.287)" fill="#17c878"/>
      </g>
      <g id="Grupo_91000-4" data-name="Grupo 91000" transform="translate(584.388 478.623)">
        <path id="Trazado_145060-4" data-name="Trazado 145060" d="M587.388,480.123a1.5,1.5,0,1,1-1.5-1.5A1.5,1.5,0,0,1,587.388,480.123Z" transform="translate(-584.388 -478.623)" fill="#17c878"/>
      </g>
      <g id="Grupo_91001-4" data-name="Grupo 91001" transform="translate(584.388 489.623)">
        <path id="Trazado_145061-4" data-name="Trazado 145061" d="M587.388,557.455a1.5,1.5,0,1,1-1.5-1.5A1.5,1.5,0,0,1,587.388,557.455Z" transform="translate(-584.388 -555.955)" fill="#17c878"/>
      </g>
      <g id="Grupo_91002-4" data-name="Grupo 91002" transform="translate(588.055 489.79)">
        <path id="Trazado_145062-4" data-name="Trazado 145062" d="M613.166,558.627a1.5,1.5,0,1,1-1.5-1.5A1.5,1.5,0,0,1,613.166,558.627Z" transform="translate(-610.166 -557.127)" fill="#17c878"/>
      </g>
      <g id="Grupo_91003-4" data-name="Grupo 91003" transform="translate(588.055 493.54)">
        <path id="Trazado_145063-4" data-name="Trazado 145063" d="M613.166,584.99a1.5,1.5,0,1,1-1.5-1.5A1.5,1.5,0,0,1,613.166,584.99Z" transform="translate(-610.166 -583.49)" fill="#17c878"/>
      </g>
      <g id="Grupo_91004-4" data-name="Grupo 91004" transform="translate(584.388 485.956)">
        <path id="Trazado_145064-4" data-name="Trazado 145064" d="M587.388,531.677a1.5,1.5,0,1,1-1.5-1.5A1.5,1.5,0,0,1,587.388,531.677Z" transform="translate(-584.388 -530.177)" fill="#17c878"/>
      </g>
      <g id="Grupo_91005-4" data-name="Grupo 91005" transform="translate(588.055 486.04)">
        <path id="Trazado_145065-4" data-name="Trazado 145065" d="M613.166,532.264a1.5,1.5,0,1,1-1.5-1.5A1.5,1.5,0,0,1,613.166,532.264Z" transform="translate(-610.166 -530.764)" fill="#17c878"/>
      </g>
      <g id="Grupo_91006-4" data-name="Grupo 91006" transform="translate(584.388 482.29)">
        <path id="Trazado_145066-4" data-name="Trazado 145066" d="M587.388,505.9a1.5,1.5,0,1,1-1.5-1.5A1.5,1.5,0,0,1,587.388,505.9Z" transform="translate(-584.388 -504.4)" fill="#17c878"/>
      </g>
      <g id="Grupo_91007-4" data-name="Grupo 91007" transform="translate(588.055 482.29)">
        <path id="Trazado_145067-4" data-name="Trazado 145067" d="M613.166,505.9a1.5,1.5,0,1,1-1.5-1.5A1.5,1.5,0,0,1,613.166,505.9Z" transform="translate(-610.166 -504.4)" fill="#17c878"/>
      </g>
      <g id="Grupo_91008-4" data-name="Grupo 91008" transform="translate(591.721 489.623)">
        <path id="Trazado_145068-4" data-name="Trazado 145068" d="M638.943,557.455a1.5,1.5,0,1,1-1.5-1.5A1.5,1.5,0,0,1,638.943,557.455Z" transform="translate(-635.943 -555.955)" fill="#17c878"/>
      </g>
      <g id="Grupo_91009-4" data-name="Grupo 91009" transform="translate(591.721 493.29)">
        <path id="Trazado_145069-4" data-name="Trazado 145069" d="M638.943,583.232a1.5,1.5,0,1,1-1.5-1.5A1.5,1.5,0,0,1,638.943,583.232Z" transform="translate(-635.943 -581.732)" fill="#17c878"/>
      </g>
      <g id="Grupo_91010-4" data-name="Grupo 91010" transform="translate(595.388 489.623)">
        <path id="Trazado_145070-4" data-name="Trazado 145070" d="M664.72,557.455a1.5,1.5,0,1,1-1.5-1.5A1.5,1.5,0,0,1,664.72,557.455Z" transform="translate(-661.72 -555.955)" fill="#17c878"/>
      </g>
      <g id="Grupo_91011-4" data-name="Grupo 91011" transform="translate(591.721 485.956)">
        <path id="Trazado_145071-4" data-name="Trazado 145071" d="M638.943,531.677a1.5,1.5,0,1,1-1.5-1.5A1.5,1.5,0,0,1,638.943,531.677Z" transform="translate(-635.943 -530.177)" fill="#17c878"/>
      </g>
    </g>
    <g id="Grupo_92863" data-name="Grupo 92863" transform="translate(-46.662 1673.687) rotate(-45)">
      <g id="Grupo_90996-5" data-name="Grupo 90996" transform="translate(584.388 493.29)">
        <path id="Trazado_145056-5" data-name="Trazado 145056" d="M587.388,583.232a1.5,1.5,0,1,1-1.5-1.5A1.5,1.5,0,0,1,587.388,583.232Z" transform="translate(-584.388 -581.732)" fill="#17c878"/>
      </g>
      <g id="Grupo_90997-5" data-name="Grupo 90997" transform="translate(584.388 496.956)">
        <path id="Trazado_145057-5" data-name="Trazado 145057" d="M587.388,609.009a1.5,1.5,0,1,1-1.5-1.5A1.5,1.5,0,0,1,587.388,609.009Z" transform="translate(-584.388 -607.509)" fill="#17c878"/>
      </g>
      <g id="Grupo_90998-5" data-name="Grupo 90998" transform="translate(588.055 497.29)">
        <path id="Trazado_145058-5" data-name="Trazado 145058" d="M613.166,611.353a1.5,1.5,0,1,1-1.5-1.5A1.5,1.5,0,0,1,613.166,611.353Z" transform="translate(-610.166 -609.853)" fill="#17c878"/>
      </g>
      <g id="Grupo_90999-5" data-name="Grupo 90999" transform="translate(584.388 500.623)">
        <path id="Trazado_145059-5" data-name="Trazado 145059" d="M587.388,634.787a1.5,1.5,0,1,1-1.5-1.5A1.5,1.5,0,0,1,587.388,634.787Z" transform="translate(-584.388 -633.287)" fill="#17c878"/>
      </g>
      <g id="Grupo_91000-5" data-name="Grupo 91000" transform="translate(584.388 478.623)">
        <path id="Trazado_145060-5" data-name="Trazado 145060" d="M587.388,480.123a1.5,1.5,0,1,1-1.5-1.5A1.5,1.5,0,0,1,587.388,480.123Z" transform="translate(-584.388 -478.623)" fill="#17c878"/>
      </g>
      <g id="Grupo_91001-5" data-name="Grupo 91001" transform="translate(584.388 489.623)">
        <path id="Trazado_145061-5" data-name="Trazado 145061" d="M587.388,557.455a1.5,1.5,0,1,1-1.5-1.5A1.5,1.5,0,0,1,587.388,557.455Z" transform="translate(-584.388 -555.955)" fill="#17c878"/>
      </g>
      <g id="Grupo_91002-5" data-name="Grupo 91002" transform="translate(588.055 489.79)">
        <path id="Trazado_145062-5" data-name="Trazado 145062" d="M613.166,558.627a1.5,1.5,0,1,1-1.5-1.5A1.5,1.5,0,0,1,613.166,558.627Z" transform="translate(-610.166 -557.127)" fill="#17c878"/>
      </g>
      <g id="Grupo_91003-5" data-name="Grupo 91003" transform="translate(588.055 493.54)">
        <path id="Trazado_145063-5" data-name="Trazado 145063" d="M613.166,584.99a1.5,1.5,0,1,1-1.5-1.5A1.5,1.5,0,0,1,613.166,584.99Z" transform="translate(-610.166 -583.49)" fill="#17c878"/>
      </g>
      <g id="Grupo_91004-5" data-name="Grupo 91004" transform="translate(584.388 485.956)">
        <path id="Trazado_145064-5" data-name="Trazado 145064" d="M587.388,531.677a1.5,1.5,0,1,1-1.5-1.5A1.5,1.5,0,0,1,587.388,531.677Z" transform="translate(-584.388 -530.177)" fill="#17c878"/>
      </g>
      <g id="Grupo_91005-5" data-name="Grupo 91005" transform="translate(588.055 486.04)">
        <path id="Trazado_145065-5" data-name="Trazado 145065" d="M613.166,532.264a1.5,1.5,0,1,1-1.5-1.5A1.5,1.5,0,0,1,613.166,532.264Z" transform="translate(-610.166 -530.764)" fill="#17c878"/>
      </g>
      <g id="Grupo_91006-5" data-name="Grupo 91006" transform="translate(584.388 482.29)">
        <path id="Trazado_145066-5" data-name="Trazado 145066" d="M587.388,505.9a1.5,1.5,0,1,1-1.5-1.5A1.5,1.5,0,0,1,587.388,505.9Z" transform="translate(-584.388 -504.4)" fill="#17c878"/>
      </g>
      <g id="Grupo_91007-5" data-name="Grupo 91007" transform="translate(588.055 482.29)">
        <path id="Trazado_145067-5" data-name="Trazado 145067" d="M613.166,505.9a1.5,1.5,0,1,1-1.5-1.5A1.5,1.5,0,0,1,613.166,505.9Z" transform="translate(-610.166 -504.4)" fill="#17c878"/>
      </g>
      <g id="Grupo_91008-5" data-name="Grupo 91008" transform="translate(591.721 489.623)">
        <path id="Trazado_145068-5" data-name="Trazado 145068" d="M638.943,557.455a1.5,1.5,0,1,1-1.5-1.5A1.5,1.5,0,0,1,638.943,557.455Z" transform="translate(-635.943 -555.955)" fill="#17c878"/>
      </g>
      <g id="Grupo_91009-5" data-name="Grupo 91009" transform="translate(591.721 493.29)">
        <path id="Trazado_145069-5" data-name="Trazado 145069" d="M638.943,583.232a1.5,1.5,0,1,1-1.5-1.5A1.5,1.5,0,0,1,638.943,583.232Z" transform="translate(-635.943 -581.732)" fill="#17c878"/>
      </g>
      <g id="Grupo_91010-5" data-name="Grupo 91010" transform="translate(595.388 489.623)">
        <path id="Trazado_145070-5" data-name="Trazado 145070" d="M664.72,557.455a1.5,1.5,0,1,1-1.5-1.5A1.5,1.5,0,0,1,664.72,557.455Z" transform="translate(-661.72 -555.955)" fill="#17c878"/>
      </g>
      <g id="Grupo_91011-5" data-name="Grupo 91011" transform="translate(591.721 485.956)">
        <path id="Trazado_145071-5" data-name="Trazado 145071" d="M638.943,531.677a1.5,1.5,0,1,1-1.5-1.5A1.5,1.5,0,0,1,638.943,531.677Z" transform="translate(-635.943 -530.177)" fill="#17c878"/>
      </g>
    </g>
    <g id="Grupo_92864" data-name="Grupo 92864" transform="translate(952.109 2368.239) rotate(-135)">
      <g id="Grupo_90996-6" data-name="Grupo 90996" transform="translate(584.388 493.29)">
        <path id="Trazado_145056-6" data-name="Trazado 145056" d="M587.388,583.232a1.5,1.5,0,1,1-1.5-1.5A1.5,1.5,0,0,1,587.388,583.232Z" transform="translate(-584.388 -581.732)" fill="#17c878"/>
      </g>
      <g id="Grupo_90997-6" data-name="Grupo 90997" transform="translate(584.388 496.956)">
        <path id="Trazado_145057-6" data-name="Trazado 145057" d="M587.388,609.009a1.5,1.5,0,1,1-1.5-1.5A1.5,1.5,0,0,1,587.388,609.009Z" transform="translate(-584.388 -607.509)" fill="#17c878"/>
      </g>
      <g id="Grupo_90998-6" data-name="Grupo 90998" transform="translate(588.055 497.29)">
        <path id="Trazado_145058-6" data-name="Trazado 145058" d="M613.166,611.353a1.5,1.5,0,1,1-1.5-1.5A1.5,1.5,0,0,1,613.166,611.353Z" transform="translate(-610.166 -609.853)" fill="#17c878"/>
      </g>
      <g id="Grupo_90999-6" data-name="Grupo 90999" transform="translate(584.388 500.623)">
        <path id="Trazado_145059-6" data-name="Trazado 145059" d="M587.388,634.787a1.5,1.5,0,1,1-1.5-1.5A1.5,1.5,0,0,1,587.388,634.787Z" transform="translate(-584.388 -633.287)" fill="#17c878"/>
      </g>
      <g id="Grupo_91000-6" data-name="Grupo 91000" transform="translate(584.388 478.623)">
        <path id="Trazado_145060-6" data-name="Trazado 145060" d="M587.388,480.123a1.5,1.5,0,1,1-1.5-1.5A1.5,1.5,0,0,1,587.388,480.123Z" transform="translate(-584.388 -478.623)" fill="#17c878"/>
      </g>
      <g id="Grupo_91001-6" data-name="Grupo 91001" transform="translate(584.388 489.623)">
        <path id="Trazado_145061-6" data-name="Trazado 145061" d="M587.388,557.455a1.5,1.5,0,1,1-1.5-1.5A1.5,1.5,0,0,1,587.388,557.455Z" transform="translate(-584.388 -555.955)" fill="#17c878"/>
      </g>
      <g id="Grupo_91002-6" data-name="Grupo 91002" transform="translate(588.055 489.79)">
        <path id="Trazado_145062-6" data-name="Trazado 145062" d="M613.166,558.627a1.5,1.5,0,1,1-1.5-1.5A1.5,1.5,0,0,1,613.166,558.627Z" transform="translate(-610.166 -557.127)" fill="#17c878"/>
      </g>
      <g id="Grupo_91003-6" data-name="Grupo 91003" transform="translate(588.055 493.54)">
        <path id="Trazado_145063-6" data-name="Trazado 145063" d="M613.166,584.99a1.5,1.5,0,1,1-1.5-1.5A1.5,1.5,0,0,1,613.166,584.99Z" transform="translate(-610.166 -583.49)" fill="#17c878"/>
      </g>
      <g id="Grupo_91004-6" data-name="Grupo 91004" transform="translate(584.388 485.956)">
        <path id="Trazado_145064-6" data-name="Trazado 145064" d="M587.388,531.677a1.5,1.5,0,1,1-1.5-1.5A1.5,1.5,0,0,1,587.388,531.677Z" transform="translate(-584.388 -530.177)" fill="#17c878"/>
      </g>
      <g id="Grupo_91005-6" data-name="Grupo 91005" transform="translate(588.055 486.04)">
        <path id="Trazado_145065-6" data-name="Trazado 145065" d="M613.166,532.264a1.5,1.5,0,1,1-1.5-1.5A1.5,1.5,0,0,1,613.166,532.264Z" transform="translate(-610.166 -530.764)" fill="#17c878"/>
      </g>
      <g id="Grupo_91006-6" data-name="Grupo 91006" transform="translate(584.388 482.29)">
        <path id="Trazado_145066-6" data-name="Trazado 145066" d="M587.388,505.9a1.5,1.5,0,1,1-1.5-1.5A1.5,1.5,0,0,1,587.388,505.9Z" transform="translate(-584.388 -504.4)" fill="#17c878"/>
      </g>
      <g id="Grupo_91007-6" data-name="Grupo 91007" transform="translate(588.055 482.29)">
        <path id="Trazado_145067-6" data-name="Trazado 145067" d="M613.166,505.9a1.5,1.5,0,1,1-1.5-1.5A1.5,1.5,0,0,1,613.166,505.9Z" transform="translate(-610.166 -504.4)" fill="#17c878"/>
      </g>
      <g id="Grupo_91008-6" data-name="Grupo 91008" transform="translate(591.721 489.623)">
        <path id="Trazado_145068-6" data-name="Trazado 145068" d="M638.943,557.455a1.5,1.5,0,1,1-1.5-1.5A1.5,1.5,0,0,1,638.943,557.455Z" transform="translate(-635.943 -555.955)" fill="#17c878"/>
      </g>
      <g id="Grupo_91009-6" data-name="Grupo 91009" transform="translate(591.721 493.29)">
        <path id="Trazado_145069-6" data-name="Trazado 145069" d="M638.943,583.232a1.5,1.5,0,1,1-1.5-1.5A1.5,1.5,0,0,1,638.943,583.232Z" transform="translate(-635.943 -581.732)" fill="#17c878"/>
      </g>
      <g id="Grupo_91010-6" data-name="Grupo 91010" transform="translate(595.388 489.623)">
        <path id="Trazado_145070-6" data-name="Trazado 145070" d="M664.72,557.455a1.5,1.5,0,1,1-1.5-1.5A1.5,1.5,0,0,1,664.72,557.455Z" transform="translate(-661.72 -555.955)" fill="#17c878"/>
      </g>
      <g id="Grupo_91011-6" data-name="Grupo 91011" transform="translate(591.721 485.956)">
        <path id="Trazado_145071-6" data-name="Trazado 145071" d="M638.943,531.677a1.5,1.5,0,1,1-1.5-1.5A1.5,1.5,0,0,1,638.943,531.677Z" transform="translate(-635.943 -530.177)" fill="#17c878"/>
      </g>
    </g>
  </g>
</svg>
